<svg width="84" height="84" viewBox="0 0 84 84" fill="none" xmlns="http://www.w3.org/2000/svg">
<rect width="84" height="84" rx="42" transform="matrix(-1 0 0 1 84 0)" fill="#B092F7"/>
<g clip-path="url(#clip0_9_21)">
<path d="M28.8512 32.9844C30.8022 32.9844 32.3837 31.4028 32.3837 29.4519C32.3837 27.5009 30.8022 25.9193 28.8512 25.9193C26.9002 25.9193 25.3186 27.5009 25.3186 29.4519C25.3186 31.4028 26.9002 32.9844 28.8512 32.9844Z" fill="white"/>
<path d="M62.9071 47.7258C63.2952 41.0928 62.4654 36.7653 60.4412 34.8634C59.559 34.0344 58.6972 33.8928 58.2557 33.8828C58.2311 33.8812 58.2066 33.879 58.1816 33.879H52.1159C52.0904 33.879 52.0658 33.8812 52.0407 33.8828C51.599 33.893 50.7377 34.0349 49.856 34.8632C49.3555 35.3336 48.9281 35.9528 48.5741 36.7181C48.22 35.9528 47.7927 35.3336 47.2921 34.8634C46.4101 34.0344 45.5483 33.8928 45.1067 33.8828C45.082 33.8812 45.0575 33.879 45.0326 33.879H38.9668C38.9414 33.879 38.9167 33.8812 38.8916 33.8828C38.45 33.893 37.5886 34.0349 36.7069 34.8632C36.2064 35.3336 35.779 35.9528 35.425 36.7181C35.071 35.9528 34.6436 35.3336 34.1431 34.8634C33.261 34.0346 32.3993 33.8928 31.9578 33.8828C31.9331 33.8812 31.9086 33.879 31.8835 33.879H25.8182C25.7929 33.879 25.7681 33.8812 25.7432 33.8828C25.3015 33.893 24.4402 34.0349 23.5585 34.8632C21.5344 36.7652 20.7048 41.0928 21.0928 47.7258C21.1123 48.0583 21.263 48.3695 21.5119 48.5909C21.7609 48.8123 22.0875 48.9257 22.4201 48.9063C22.7526 48.8868 23.0638 48.736 23.2852 48.4871C23.5066 48.2382 23.62 47.9115 23.6006 47.579C23.2778 42.0621 23.903 39.1213 24.6049 37.6615V44.6074L23.2657 61.0282C23.1786 62.0969 23.9744 63.0334 25.0426 63.1206C26.111 63.2076 27.048 62.4125 27.1352 61.3438L28.3015 47.0434H29.4008L30.5672 61.3438C30.6543 62.4127 31.5913 63.2077 32.6597 63.1206C33.7281 63.0334 34.5238 62.0969 34.4367 61.0282L33.0975 44.6071V37.6618C33.6017 38.7106 34.0662 40.5239 34.1682 43.5078C34.1433 44.3572 34.1436 45.2071 34.1691 46.0565C34.1541 46.5642 34.1316 47.0716 34.1018 47.5787C34.0918 47.7496 34.1168 47.9208 34.1754 48.0817C34.2339 48.2426 34.3248 48.3898 34.4423 48.5143C34.5599 48.6389 34.7016 48.738 34.8589 48.8057C35.0162 48.8735 35.1856 48.9083 35.3569 48.9082C35.3801 48.9082 35.4027 48.9061 35.4256 48.9049C35.4486 48.9061 35.4715 48.9082 35.4947 48.9082C35.6659 48.9083 35.8354 48.8735 35.9927 48.8057C36.1499 48.738 36.2917 48.6389 36.4093 48.5143C36.5268 48.3898 36.6176 48.2426 36.6762 48.0817C36.7348 47.9208 36.7598 47.7496 36.7498 47.5787C36.72 47.0717 36.6975 46.5643 36.6824 46.0567C36.708 45.1586 36.7082 44.3091 36.6834 43.5076C36.7853 40.5235 37.2498 38.7099 37.7541 37.6613V44.6072L36.4149 61.0281C36.3278 62.0968 37.1236 63.0333 38.1918 63.1204C39.2602 63.2074 40.1972 62.4123 40.2844 61.3436L41.4507 47.0433H42.5501L43.7164 61.3436C43.8036 62.4125 44.7405 63.2076 45.8089 63.1204C46.8773 63.0333 47.673 62.0968 47.5859 61.0281L46.2467 44.6069V37.6616C46.751 38.7104 47.2154 40.5238 47.3174 43.5076C47.2925 44.357 47.2928 45.207 47.3184 46.0564C47.3033 46.564 47.2808 47.0715 47.251 47.5785C47.241 47.7494 47.266 47.9206 47.3246 48.0815C47.3831 48.2424 47.474 48.3897 47.5915 48.5142C47.7091 48.6387 47.8508 48.7379 48.0081 48.8056C48.1654 48.8733 48.3348 48.9082 48.5061 48.908C48.5293 48.908 48.5519 48.906 48.5748 48.9047C48.5978 48.906 48.6207 48.908 48.6439 48.908C48.8152 48.9082 48.9846 48.8733 49.1419 48.8056C49.2992 48.7379 49.4409 48.6387 49.5585 48.5142C49.676 48.3897 49.7668 48.2424 49.8254 48.0815C49.884 47.9206 49.909 47.7494 49.899 47.5785C49.8692 47.0715 49.8467 46.5642 49.8316 46.0565C49.8572 45.1585 49.8574 44.3089 49.8326 43.5075C49.9345 40.5233 50.399 38.7098 50.9033 37.6612V44.6071L49.5641 61.0279C49.477 62.0966 50.2728 63.0331 51.3411 63.1203C52.4095 63.2072 53.3464 62.4122 53.4336 61.3435L54.5999 47.0431H55.6993L56.8656 61.3435C56.9528 62.4123 57.8898 63.2074 58.9581 63.1203C60.0265 63.0331 60.8222 62.0966 60.7351 61.0279L59.3959 44.6068V37.6615C60.0977 39.1213 60.7228 42.0621 60.4001 47.5785C60.39 47.7494 60.4151 47.9206 60.4736 48.0815C60.5322 48.2424 60.623 48.3897 60.7406 48.5142C60.8581 48.6387 60.9999 48.7379 61.1572 48.8056C61.3144 48.8733 61.4839 48.9082 61.6551 48.908C61.9752 48.9078 62.2831 48.7852 62.5158 48.5655C62.7486 48.3457 62.8885 48.0453 62.9071 47.7258Z" fill="white"/>
<path d="M55.149 32.9844C57.0999 32.9844 58.6815 31.4028 58.6815 29.4519C58.6815 27.5009 57.0999 25.9193 55.149 25.9193C53.198 25.9193 51.6164 27.5009 51.6164 29.4519C51.6164 31.4028 53.198 32.9844 55.149 32.9844Z" fill="white"/>
<path d="M42.0001 32.9844C43.951 32.9844 45.5326 31.4028 45.5326 29.4519C45.5326 27.5009 43.951 25.9193 42.0001 25.9193C40.0491 25.9193 38.4675 27.5009 38.4675 29.4519C38.4675 31.4028 40.0491 32.9844 42.0001 32.9844Z" fill="white"/>
<path d="M35.4256 28.0651C37.3766 28.0651 38.9582 26.4835 38.9582 24.5325C38.9582 22.5816 37.3766 21 35.4256 21C33.4747 21 31.8931 22.5816 31.8931 24.5325C31.8931 26.4835 33.4747 28.0651 35.4256 28.0651Z" fill="white"/>
<path d="M48.5745 28.0651C50.5255 28.0651 52.1071 26.4835 52.1071 24.5325C52.1071 22.5816 50.5255 21 48.5745 21C46.6236 21 45.042 22.5816 45.042 24.5325C45.042 26.4835 46.6236 28.0651 48.5745 28.0651Z" fill="white"/>
</g>
<defs>
<clipPath id="clip0_9_21">
<rect width="42" height="42.1273" fill="white" transform="translate(21 21)"/>
</clipPath>
</defs>
</svg>
