<svg width="84" height="84" viewBox="0 0 84 84" fill="none" xmlns="http://www.w3.org/2000/svg">
<rect width="84" height="84" rx="42" transform="matrix(-1 0 0 1 84 0)" fill="#5FA8E7"/>
<path d="M45.0723 63C44.4006 63.0015 43.7524 62.7543 43.2549 62.3069C42.7573 61.8595 42.4461 61.244 42.3822 60.5811C42.3184 59.9182 42.5064 59.2555 42.9096 58.7228C43.3127 58.1901 43.9019 57.8257 44.5618 57.7011C47.0664 57.2171 49.4198 56.1522 51.4295 54.5935C53.4392 53.0348 55.0481 51.0265 56.1247 48.7331C56.4261 48.0902 56.9728 47.5923 57.6445 47.349C58.3162 47.1057 59.0578 47.1369 59.7063 47.4358C60.3548 47.7346 60.857 48.2765 61.1024 48.9424C61.3478 49.6083 61.3164 50.3436 61.0149 50.9864C59.5781 54.0464 57.431 56.7256 54.7492 58.8052C52.0675 60.8847 48.9273 62.3053 45.5855 62.951C45.4164 62.9835 45.2446 62.9999 45.0723 63ZM60.3157 44.8848H60.2833C59.929 44.8807 59.579 44.8074 59.2532 44.6692C58.9275 44.5309 58.6324 44.3303 58.3849 44.0789C58.1374 43.8275 57.9423 43.5302 57.8108 43.204C57.6793 42.8778 57.6139 42.5291 57.6184 42.1779V41.9997C57.6184 34.3467 52.1278 27.7434 44.5636 26.2982C43.8614 26.164 43.2417 25.7587 42.8408 25.1715C42.44 24.5843 42.2909 23.8634 42.4263 23.1672C42.5617 22.471 42.9705 21.8567 43.5628 21.4593C44.1551 21.062 44.8824 20.9141 45.5846 21.0484C55.6834 22.9783 63.012 31.7895 63.012 41.9997V42.2429C63.0038 42.9464 62.716 43.6183 62.2113 44.1129C61.7065 44.6075 61.0254 44.8848 60.3157 44.8848ZM36.657 26.6279C36.0021 26.6281 35.3695 26.392 34.8774 25.9637C34.3852 25.5354 34.0671 24.9441 33.9825 24.3003C33.8978 23.6565 34.0524 23.0042 34.4174 22.4652C34.7824 21.9261 35.3328 21.5371 35.9658 21.3709C36.4269 21.2497 36.9051 21.141 37.3877 21.0484C38.0881 20.9182 38.8119 21.0681 39.4011 21.4654C39.9903 21.8627 40.3969 22.475 40.5321 23.1686C40.6672 23.8622 40.5199 24.5806 40.1224 25.1669C39.7249 25.7531 39.1094 26.1595 38.4105 26.2973C38.051 26.3668 37.6915 26.4479 37.3518 26.5379C37.125 26.5973 36.8915 26.6276 36.657 26.6279ZM27.2737 32.4302C26.7564 32.4303 26.25 32.2829 25.8149 32.0056C25.3797 31.7282 25.0343 31.3326 24.8197 30.866C24.6051 30.3994 24.5304 29.8814 24.6046 29.3739C24.6787 28.8663 24.8986 28.3907 25.238 28.0036C26.2398 26.8618 27.3605 25.8281 28.5814 24.9198C29.1535 24.4945 29.8726 24.3118 30.5806 24.4121C31.2885 24.5123 31.9273 24.8873 32.3563 25.4544C32.7854 26.0216 32.9696 26.7345 32.8685 27.4363C32.7674 28.1381 32.3891 28.7713 31.8171 29.1967C30.9008 29.8793 30.0596 30.6558 29.3077 31.5133C29.0544 31.8014 28.7418 32.0323 28.391 32.1904C28.0401 32.3486 27.6591 32.4303 27.2737 32.4302ZM22.6989 43.4894C22.6423 43.4894 22.5856 43.4894 22.5281 43.4841C21.8145 43.4399 21.1477 43.1164 20.6746 42.5849C20.2015 42.0534 19.9607 41.3573 20.0052 40.6498C20.1251 38.7395 20.5045 36.854 21.1332 35.0444C21.3665 34.3742 21.8587 33.8234 22.5017 33.513C23.1446 33.2026 23.8856 33.1581 24.5616 33.3894C25.2376 33.6206 25.7933 34.1086 26.1064 34.746C26.4195 35.3834 26.4644 36.1179 26.2311 36.7881C25.7608 38.1427 25.4769 39.5541 25.3872 40.9839C25.3442 41.662 25.0424 42.2985 24.543 42.7639C24.0437 43.2293 23.3843 43.4887 22.6989 43.4894ZM37.9018 63C37.7293 62.9999 37.5571 62.9834 37.3877 62.951C34.5433 62.4092 31.8402 61.2984 29.4434 59.6863C29.1467 59.4911 28.8919 59.2396 28.6938 58.9463C28.4956 58.653 28.3581 58.3237 28.289 57.9774C28.2199 57.6311 28.2208 57.2747 28.2914 56.9287C28.362 56.5827 28.5011 56.254 28.7006 55.9616C28.9001 55.6692 29.156 55.4188 29.4536 55.225C29.7512 55.0311 30.0846 54.8977 30.4345 54.8322C30.7844 54.7668 31.1439 54.7708 31.4923 54.8438C31.8407 54.9169 32.171 55.0577 32.4642 55.258C34.2579 56.4646 36.2809 57.2962 38.4096 57.702C39.0683 57.8276 39.656 58.192 40.0582 58.7242C40.4604 59.2563 40.6481 59.9179 40.5846 60.5798C40.5212 61.2417 40.2111 61.8565 39.7151 62.304C39.219 62.7515 38.5725 62.9996 37.9018 63ZM25.8824 55.1154C25.4409 55.1162 25.0061 55.0094 24.6161 54.8043C24.2261 54.5992 23.893 54.3021 23.6462 53.9393C22.5434 52.3237 21.6702 50.5652 21.0514 48.7135C20.8265 48.04 20.8807 47.3055 21.2021 46.6716C21.5234 46.0377 22.0856 45.5564 22.765 45.3334C23.4443 45.1104 24.1852 45.1642 24.8246 45.4827C25.464 45.8013 25.9496 46.3586 26.1745 47.0321C26.6373 48.4181 27.29 49.7346 28.1141 50.9446C28.3883 51.3465 28.5471 51.8148 28.5733 52.2993C28.5994 52.7838 28.4921 53.2663 28.2628 53.6949C28.0334 54.1236 27.6907 54.4823 27.2713 54.7325C26.852 54.9828 26.3718 55.1151 25.8824 55.1154ZM45.1793 38.3376V34.2113C45.1793 33.2402 44.7902 32.3089 44.0976 31.6222C43.4051 30.9354 42.4657 30.5495 41.4862 30.5492C40.5065 30.5492 39.5669 30.9351 38.8741 31.6218C38.1814 32.3086 37.7922 33.2401 37.7922 34.2113V38.3376H33.6299C32.6502 38.3376 31.7106 38.7234 31.0178 39.4102C30.3251 40.097 29.9359 41.0284 29.9359 41.9997C29.9359 42.4805 30.0315 42.9567 30.2171 43.4009C30.4028 43.8452 30.6749 44.2488 31.0179 44.5888C31.3609 44.9288 31.7682 45.1985 32.2163 45.3824C32.6645 45.5664 33.1448 45.661 33.6299 45.6608H37.7922V49.788C37.7924 50.7591 38.1817 51.6903 38.8744 52.3769C39.5672 53.0635 40.5066 53.4492 41.4862 53.4492C42.4656 53.4492 43.405 53.0635 44.0976 52.3769C44.7902 51.6903 45.1793 50.759 45.1793 49.788V45.6608H49.3424C50.3219 45.6608 51.2613 45.2751 51.9539 44.5885C52.6465 43.9019 53.0355 42.9707 53.0355 41.9997C53.0355 41.0284 52.6464 40.097 51.9536 39.4102C51.2608 38.7234 50.3213 38.3376 49.3415 38.3376H45.1793Z" fill="white"/>
</svg>
