<svg width="84" height="84" viewBox="0 0 84 84" fill="none" xmlns="http://www.w3.org/2000/svg">
<rect width="84" height="84" rx="42" transform="matrix(-1 0 0 1 84 0)" fill="#FF995F"/>
<path d="M52.8621 32.5862H43.4121V50.0278L46.045 47.3948C46.1795 47.2604 46.3391 47.1537 46.5148 47.0809C46.6905 47.0082 46.8788 46.9707 47.069 46.9707C47.2591 46.9707 47.4474 47.0082 47.6231 47.0809C47.7988 47.1537 47.9584 47.2604 48.0929 47.3948C48.2274 47.5293 48.334 47.6889 48.4068 47.8646C48.4796 48.0403 48.517 48.2286 48.517 48.4188C48.517 48.6089 48.4796 48.7972 48.4068 48.9729C48.334 49.1486 48.2274 49.3082 48.0929 49.4427L43.0239 54.5117C42.8897 54.6466 42.7302 54.7537 42.5545 54.8268C42.3788 54.8999 42.1903 54.9375 42 54.9375C41.8097 54.9375 41.6212 54.8999 41.4455 54.8268C41.2698 54.7537 41.1103 54.6466 40.9761 54.5117L35.9071 49.4427C35.7726 49.3082 35.666 49.1486 35.5932 48.9729C35.5204 48.7972 35.483 48.6089 35.483 48.4188C35.483 48.2286 35.5204 48.0403 35.5932 47.8646C35.666 47.6889 35.7726 47.5293 35.9071 47.3948C36.0416 47.2604 36.2012 47.1537 36.3769 47.0809C36.5526 47.0082 36.7409 46.9707 36.931 46.9707C37.1212 46.9707 37.3095 47.0082 37.4852 47.0809C37.6609 47.1537 37.8205 47.2604 37.955 47.3948L40.5155 49.9554V32.5862H31.1379C30.3697 32.5862 29.633 32.8914 29.0898 33.4346C28.5466 33.9778 28.2414 34.7145 28.2414 35.4828V57.2069C28.2414 57.9751 28.5466 58.7119 29.0898 59.2551C29.633 59.7983 30.3697 60.1035 31.1379 60.1035H52.8621C53.6303 60.1035 54.367 59.7983 54.9102 59.2551C55.4534 58.7119 55.7586 57.9751 55.7586 57.2069V35.4828C55.7586 34.7145 55.4534 33.9778 54.9102 33.4346C54.367 32.8914 53.6303 32.5862 52.8621 32.5862ZM43.4121 32.5862V25.3448C43.4121 24.9607 43.2595 24.5923 42.9879 24.3207C42.7163 24.0491 42.3479 23.8966 41.9638 23.8966C41.5797 23.8966 41.2113 24.0491 40.9397 24.3207C40.6681 24.5923 40.5155 24.9607 40.5155 25.3448V32.5862H43.4121Z" fill="white"/>
</svg>
