<svg width="84" height="84" viewBox="0 0 84 84" fill="none" xmlns="http://www.w3.org/2000/svg">
<rect width="84" height="84" rx="42" transform="matrix(-1 0 0 1 84 0)" fill="#29B9A2"/>
<g clip-path="url(#clip0_9_8)">
<path d="M41.125 42C44.5077 42 47.25 39.2577 47.25 35.875C47.25 32.4923 44.5077 29.75 41.125 29.75C37.7423 29.75 35 32.4923 35 35.875C35 39.2577 37.7423 42 41.125 42Z" fill="white"/>
<path d="M53.375 45.5C55.7912 45.5 57.75 43.5412 57.75 41.125C57.75 38.7088 55.7912 36.75 53.375 36.75C50.9588 36.75 49 38.7088 49 41.125C49 43.5412 50.9588 45.5 53.375 45.5Z" fill="white"/>
<path d="M28.9993 45.5C31.4155 45.5 33.3743 43.5412 33.3743 41.125C33.3743 38.7088 31.4155 36.75 28.9993 36.75C26.583 36.75 24.6243 38.7088 24.6243 41.125C24.6243 43.5412 26.583 45.5 28.9993 45.5Z" fill="white"/>
<path d="M41.125 43.75C38.1093 43.7537 35.2182 44.9533 33.0858 47.0858C30.9533 49.2182 29.7537 52.1093 29.75 55.125C29.75 55.3571 29.8422 55.5796 30.0063 55.7437C30.1704 55.9078 30.3929 56 30.625 56H51.625C51.8571 56 52.0796 55.9078 52.2437 55.7437C52.4078 55.5796 52.5 55.3571 52.5 55.125C52.5 48.853 47.397 43.75 41.125 43.75ZM30.5078 47.439C29.9716 47.3191 29.4244 47.2557 28.875 47.25C26.7871 47.2523 24.7854 48.0827 23.3091 49.5591C21.8327 51.0354 21.0023 53.0371 21 55.125C21 55.3571 21.0922 55.5796 21.2563 55.7437C21.4204 55.9078 21.6429 56 21.875 56H28.161C28.0574 55.7198 28.0029 55.4238 28 55.125C28 52.2532 28.938 49.602 30.5078 47.439ZM53.375 47.25C52.822 47.25 52.2777 47.3252 51.7422 47.439C53.3712 49.6707 54.2493 52.3621 54.25 55.125C54.25 55.433 54.187 55.7252 54.089 56H60.375C60.6071 56 60.8296 55.9078 60.9937 55.7437C61.1578 55.5796 61.25 55.3571 61.25 55.125C61.25 50.7833 57.7167 47.25 53.375 47.25Z" fill="white"/>
</g>
<defs>
<clipPath id="clip0_9_8">
<rect width="42" height="42" fill="white" transform="translate(21 21)"/>
</clipPath>
</defs>
</svg>
