<svg width="50" height="50" viewBox="0 0 50 50" fill="none" xmlns="http://www.w3.org/2000/svg">
<path d="M44.5013 46.0222L45.2274 39.0839L45.2277 39.0832C45.2845 38.5231 44.9998 37.9519 44.421 37.7627V36.391C44.421 35.8472 44 35.4044 43.4826 35.4044H37.8747V29.6452C38.7609 29.4835 39.4337 28.7111 39.4337 27.7784C39.4337 26.7282 38.5825 25.877 37.5324 25.877C36.5991 25.877 35.8265 26.5505 35.6654 27.4374L25.8641 27.4446L25.839 22.2742H26.3869C26.9553 22.2742 27.4006 21.8222 27.4006 21.2605V19.8426C29.1323 19.3519 30.3878 18.1356 30.5444 18.0276L32.1403 18.9523C32.6334 19.2331 33.243 19.0619 33.5238 18.5825L34.5101 16.8701C34.7978 16.3906 34.6266 15.7673 34.1471 15.4934C34.0779 15.453 32.4481 14.5016 32.5513 14.5618C32.8514 13.3009 32.8414 12.1195 32.5307 10.877C32.5993 10.8373 34.0329 10.0091 33.9416 10.0619C34.4211 9.79473 34.5923 9.17142 34.3115 8.68514L33.3184 6.97967C33.0444 6.48645 32.4211 6.32208 31.9348 6.59615L30.4965 7.43175C29.6334 6.59615 28.5786 5.98647 27.4006 5.65086V3.92482C27.4006 3.37007 26.9553 2.91113 26.3869 2.91113H24.4074C23.8526 2.91113 23.4005 3.37007 23.4005 3.92482V5.65086C21.1422 6.32292 20.7342 7.32891 20.4005 7.32891L18.9074 6.46597C18.4143 6.17827 17.7978 6.35636 17.5239 6.84263L16.5376 8.54811C16.2499 9.02761 16.4211 9.64406 16.9005 9.93168C16.9693 9.97159 18.3955 10.7995 18.3046 10.7468C18.0341 11.6667 17.8933 13.0341 18.2362 14.5139C18.1668 14.5541 16.8147 15.3376 16.9005 15.2879C16.4211 15.5618 16.2499 16.1852 16.5376 16.6715L17.5239 18.3769C17.7978 18.8564 18.4143 19.0276 18.9074 18.7468L20.2225 17.9865C21.0992 18.8564 22.1814 19.5002 23.4005 19.8426V21.2605C23.4005 21.8222 23.8526 22.2742 24.4074 22.2742H25.1541L25.1791 27.4451L14.9774 27.4527C14.8223 26.5585 14.0474 25.877 13.1088 25.877C12.0587 25.877 11.2075 26.7282 11.2075 27.7784C11.2075 28.7111 11.8803 29.4835 12.7664 29.6452V35.4044H11.9212C11.7751 35.4044 11.6607 35.2693 11.6607 35.0961C11.6607 34.5523 11.24 34.1101 10.7226 34.1101H6.51704C5.99967 34.1101 5.57861 34.5556 5.57861 35.1027V37.7677C5.00507 37.9561 4.71485 38.5248 4.77261 39.0913L5.50503 46.0269C5.56255 46.6128 6.10869 47.089 6.72239 47.089H19.51C20.12 47.089 20.6632 46.6095 20.7207 46.0222L21.4397 39.0859C21.5026 38.5254 21.2215 37.9578 20.6404 37.7662V36.391C20.6404 35.8472 20.2194 35.4044 19.702 35.4044H13.4513V29.6452C14.2204 29.5048 14.8269 28.9046 14.9739 28.1379L35.6658 28.1227C35.8078 28.8965 36.4159 29.5039 37.1898 29.6452V35.4044H35.7019C35.5621 35.4044 35.4484 35.2659 35.4484 35.0961C35.4484 34.5523 35.0277 34.1101 34.5103 34.1101H30.2977C29.7803 34.1101 29.3596 34.5556 29.3596 35.1027V37.7702C28.7843 37.962 28.4957 38.5294 28.5603 39.0906L29.2863 46.0329C29.3546 46.6248 29.889 47.089 30.5034 47.089H43.291C43.9003 47.089 44.4435 46.6095 44.5013 46.0222ZM22.4348 12.5961C22.4348 10.9112 23.7978 9.54131 25.4828 9.54131C27.1745 9.54131 28.5375 10.9112 28.5375 12.5961C28.5375 14.2811 27.1745 15.6509 25.4828 15.6509C23.7978 15.6509 22.4348 14.2811 22.4348 12.5961ZM20.7585 39.013L20.0391 45.9533C20.015 46.1974 19.7729 46.4041 19.51 46.4041H6.72239C6.45584 46.4041 6.21036 46.2008 6.18628 45.9573L5.45386 39.0204C5.42143 38.6996 5.60878 38.3948 5.93512 38.3909L20.2882 38.3836C20.6035 38.3923 20.7956 38.6887 20.7591 39.0097C20.7588 39.011 20.7585 39.013 20.7585 39.013ZM29.9669 45.958L29.2409 39.0163C29.2045 38.6963 29.3902 38.3996 29.7228 38.3909L44.0736 38.3836C44.3854 38.3887 44.579 38.6902 44.5461 39.0137L43.8201 45.9533C43.796 46.1974 43.5535 46.4041 43.291 46.4041H30.5034C30.2405 46.4041 29.9947 46.1981 29.9669 45.958Z" fill="white"/>
<path d="M35.0696 42.8335H31.9041C31.7148 42.8335 31.5616 42.9867 31.5616 43.176V44.505C31.5616 44.6943 31.7148 44.8475 31.9041 44.8475H35.0696C35.2589 44.8475 35.412 44.6943 35.412 44.505V43.176C35.412 42.9867 35.2589 42.8335 35.0696 42.8335ZM11.2863 42.8335H8.12079C7.93149 42.8335 7.77832 42.9867 7.77832 43.176V44.505C7.77832 44.6943 7.93149 44.8475 8.12079 44.8475H11.2863C11.4755 44.8475 11.6287 44.6943 11.6287 44.505V43.176C11.6287 42.9867 11.4755 42.8335 11.2863 42.8335Z" fill="white"/>
</svg>
