<svg width="50" height="50" viewBox="0 0 50 50" fill="none" xmlns="http://www.w3.org/2000/svg">
<g clip-path="url(#clip0_18_2110)">
<path d="M15.643 19.416L25.0001 13.6768L34.3571 19.416C34.5038 19.506 34.6761 19.545 34.8472 19.5271C35.0183 19.5091 35.1787 19.4352 35.3035 19.3168C35.4283 19.1983 35.5105 19.042 35.5374 18.8721C35.5643 18.7022 35.5343 18.5281 35.4521 18.3769L25.6865 0.408175C25.6194 0.284684 25.5202 0.181588 25.3994 0.109752C25.2786 0.037916 25.1406 0 25.0001 0C24.8595 0 24.7216 0.037916 24.6007 0.109752C24.4799 0.181588 24.3807 0.284684 24.3136 0.408175L14.548 18.3769C14.4658 18.5281 14.4359 18.7022 14.4628 18.8721C14.4896 19.042 14.5719 19.1983 14.6967 19.3168C14.8215 19.4352 14.9819 19.5091 15.153 19.5271C15.3241 19.545 15.4963 19.506 15.643 19.416ZM41.8984 19.1462L35.2578 30.8649C35.173 31.0145 35.14 31.188 35.1638 31.3583C35.1876 31.5287 35.267 31.6864 35.3896 31.807C35.5122 31.9276 35.6712 32.0044 35.8419 32.0254C36.0126 32.0464 36.1855 32.0105 36.3337 31.9233L42.5782 28.2501L48.8227 31.9233C48.9709 32.0105 49.1438 32.0464 49.3145 32.0254C49.4852 32.0044 49.6442 31.9276 49.7668 31.807C49.8894 31.6864 49.9688 31.5287 49.9926 31.3583C50.0164 31.188 49.9834 31.0145 49.8986 30.8649L43.258 19.1462C43.1898 19.0259 43.091 18.9259 42.9716 18.8563C42.8522 18.7867 42.7164 18.75 42.5782 18.75C42.44 18.75 42.3042 18.7867 42.1848 18.8563C42.0654 18.9259 41.9666 19.0259 41.8984 19.1462ZM1.17748 31.9233L7.42195 28.2501L13.6664 31.9233C13.8146 32.0105 13.9875 32.0464 14.1582 32.0254C14.3289 32.0044 14.4879 31.9276 14.6105 31.807C14.7331 31.6864 14.8125 31.5287 14.8363 31.3583C14.8602 31.188 14.8271 31.0145 14.7423 30.8649L8.10172 19.1462C8.03358 19.0259 7.93476 18.9259 7.81534 18.8563C7.69591 18.7867 7.56017 18.75 7.42194 18.75C7.28372 18.75 7.14797 18.7867 7.02855 18.8563C6.90912 18.9259 6.8103 19.0259 6.74216 19.1462L0.101539 30.8649C0.016745 31.0145 -0.0162966 31.188 0.00753989 31.3583C0.0313764 31.5287 0.110758 31.6864 0.233371 31.807C0.355984 31.9276 0.514974 32.0044 0.685676 32.0254C0.856377 32.0464 1.02925 32.0105 1.17748 31.9233ZM39.0626 11.7188C39.2698 11.7187 39.4685 11.6364 39.615 11.4899C39.7615 11.3434 39.8438 11.1447 39.8438 10.9375V3.90625C39.8438 3.69905 39.7615 3.50034 39.615 3.35383C39.4685 3.20731 39.2698 3.125 39.0626 3.125C38.8554 3.125 38.6567 3.20731 38.5101 3.35383C38.3636 3.50034 38.2813 3.69905 38.2813 3.90625V10.9375C38.2813 11.1447 38.3636 11.3434 38.5102 11.4899C38.6567 11.6364 38.8554 11.7187 39.0626 11.7188ZM42.1876 11.7188C42.3948 11.7187 42.5935 11.6364 42.74 11.4899C42.8865 11.3434 42.9688 11.1447 42.9688 10.9375V7.03125C42.9688 6.82405 42.8865 6.62534 42.74 6.47883C42.5935 6.33231 42.3948 6.25 42.1876 6.25C41.9804 6.25 41.7817 6.33231 41.6351 6.47883C41.4886 6.62534 41.4063 6.82405 41.4063 7.03125V10.9375C41.4063 11.1447 41.4886 11.3434 41.6352 11.4899C41.7817 11.6364 41.9804 11.7187 42.1876 11.7188ZM10.9376 11.7188C11.1448 11.7187 11.3435 11.6364 11.49 11.4899C11.6365 11.3434 11.7188 11.1447 11.7188 10.9375V3.90625C11.7188 3.69905 11.6365 3.50034 11.49 3.35383C11.3435 3.20731 11.1448 3.125 10.9376 3.125C10.7304 3.125 10.5317 3.20731 10.3851 3.35383C10.2386 3.50034 10.1563 3.69905 10.1563 3.90625V10.9375C10.1563 11.1447 10.2386 11.3434 10.3852 11.4899C10.5317 11.6364 10.7304 11.7187 10.9376 11.7188ZM7.81257 11.7188C8.01977 11.7187 8.21848 11.6364 8.36499 11.4899C8.5115 11.3434 8.59381 11.1447 8.59382 10.9375V7.03125C8.59382 6.82405 8.51151 6.62534 8.365 6.47883C8.21848 6.33231 8.01977 6.25 7.81257 6.25C7.60537 6.25 7.40666 6.33231 7.26014 6.47883C7.11363 6.62534 7.03132 6.82405 7.03132 7.03125V10.9375C7.03133 11.1447 7.11364 11.3434 7.26015 11.4899C7.40666 11.6364 7.60537 11.7187 7.81257 11.7188ZM32.4219 46.0938V26.5625C32.4219 24.3355 29.2311 22.6563 25.0001 22.6563C20.769 22.6563 17.5782 24.3355 17.5782 26.5625V46.0938C17.5782 48.3208 20.769 50 25.0001 50C29.2311 50 32.4219 48.3208 32.4219 46.0938ZM19.1407 29.0123C20.4766 29.9099 22.5636 30.4688 25.0001 30.4688C27.4366 30.4688 29.5236 29.9099 30.8594 29.0123V30.4688C30.8594 31.4474 28.6303 32.8125 25.0001 32.8125C21.3698 32.8125 19.1407 31.4474 19.1407 30.4688V29.0123ZM19.1407 32.9185C20.4766 33.8162 22.5636 34.375 25.0001 34.375C27.4366 34.375 29.5236 33.8162 30.8594 32.9185V34.375C30.8594 35.3537 28.6303 36.7188 25.0001 36.7188C21.3698 36.7188 19.1407 35.3537 19.1407 34.375V32.9185ZM19.1407 36.8248C20.4766 37.7224 22.5636 38.2813 25.0001 38.2813C27.4366 38.2813 29.5236 37.7224 30.8594 36.8248V38.2813C30.8594 39.2599 28.6303 40.625 25.0001 40.625C21.3698 40.625 19.1407 39.2599 19.1407 38.2813V36.8248ZM19.1407 40.731C20.4766 41.6287 22.5636 42.1875 25.0001 42.1875C27.4366 42.1875 29.5236 41.6287 30.8594 40.731V42.1875C30.8594 43.1662 28.6303 44.5313 25.0001 44.5313C21.3698 44.5313 19.1407 43.1662 19.1407 42.1875V40.731ZM19.1407 46.0938V44.6373C20.4766 45.5349 22.5636 46.0938 25.0001 46.0938C27.4366 46.0938 29.5236 45.5349 30.8594 44.6373V46.0938C30.8594 47.0724 28.6303 48.4375 25.0001 48.4375C21.3698 48.4375 19.1407 47.0724 19.1407 46.0938ZM42.5782 34.375C38.3471 34.375 35.1563 36.0542 35.1563 38.2813V46.0938C35.1563 48.3208 38.3471 50 42.5782 50C46.8093 50 50.0001 48.3208 50.0001 46.0938V38.2813C50.0001 36.0542 46.8093 34.375 42.5782 34.375ZM48.4376 46.0938C48.4376 47.0724 46.2085 48.4375 42.5782 48.4375C38.9479 48.4375 36.7188 47.0724 36.7188 46.0938V44.6373C38.0547 45.5349 40.1417 46.0938 42.5782 46.0938C45.0147 46.0938 47.1017 45.5349 48.4376 44.6373V46.0938ZM48.4376 42.1875C48.4376 43.1662 46.2085 44.5313 42.5782 44.5313C38.9479 44.5313 36.7188 43.1662 36.7188 42.1875V40.731C38.0547 41.6287 40.1417 42.1875 42.5782 42.1875C45.0147 42.1875 47.1017 41.6287 48.4376 40.731V42.1875ZM7.42195 50C11.653 50 14.8438 48.3208 14.8438 46.0938V38.2813C14.8438 36.0542 11.653 34.375 7.42195 34.375C3.19087 34.375 7.00466e-05 36.0542 7.00466e-05 38.2813V46.0938C7.00466e-05 48.3208 3.19087 50 7.42195 50ZM1.56257 40.731C2.89845 41.6287 4.98545 42.1875 7.42195 42.1875C9.85844 42.1875 11.9454 41.6287 13.2813 40.731V42.1875C13.2813 43.1662 11.0522 44.5313 7.42195 44.5313C3.79169 44.5313 1.56257 43.1662 1.56257 42.1875V40.731ZM1.56257 44.6373C2.89845 45.5349 4.98545 46.0938 7.42195 46.0938C9.85844 46.0938 11.9454 45.5349 13.2813 44.6373V46.0938C13.2813 47.0724 11.0522 48.4375 7.42195 48.4375C3.79169 48.4375 1.56257 47.0724 1.56257 46.0938V44.6373Z" fill="white"/>
</g>
<defs>
<clipPath id="clip0_18_2110">
<rect width="50" height="50" fill="white"/>
</clipPath>
</defs>
</svg>
