<svg width="50" height="50" viewBox="0 0 50 50" fill="none" xmlns="http://www.w3.org/2000/svg">
<path d="M8.8999 33.7999L9.5999 34.4999L10.2999 33.7999L9.5999 31.3999L8.8999 33.7999Z" fill="white"/>
<path d="M5.59995 40.6V40.9C5.59995 41.4 5.49995 41.8 5.19995 42.2C5.19995 42.2 5.19995 42.3 5.19995 42.4L5.89995 49H8.79995V42.4C8.79995 42 9.19995 41.6 9.59995 41.6C9.99995 41.6 10.4 42 10.4 42.4V49H13.3L14 42.3V40.5H5.59995V40.6Z" fill="white"/>
<path d="M39.7 33.7999L40.4 34.4999L41.0999 33.7999L40.4 31.3999L39.7 33.7999Z" fill="white"/>
<path d="M44.4 40.6001H36V42.5001L36.7 49.1001H39.6V42.5001C39.6 42.1001 40 41.7001 40.4 41.7001C40.8 41.7001 41.2 42.1001 41.2 42.5001V49.0001H44.1L44.8 42.3001C44.8 42.2001 44.8 42.2001 44.8 42.1001C44.6 41.7001 44.4 41.3001 44.4 40.8001V40.6001Z" fill="white"/>
<path d="M47.1999 26.2C46.2999 25.2 45.0999 24.6 43.6999 24.6L41.1999 28.6L42.5999 33.9C42.6999 34.2 42.5999 34.4 42.3999 34.6L40.9999 36.2C40.8999 36.4 40.5999 36.5 40.3999 36.5C40.1999 36.5 39.9999 36.4 39.7999 36.2L38.2999 34.6C38.0999 34.4 37.9999 34.1 38.0999 33.9L39.4999 28.6L36.7999 24.3L25.6999 11.5V12.5L35.8999 27.4C35.9999 27.5 35.9999 27.7 35.9999 27.8V39H44.3999V32.8C44.3999 32.4 44.7999 32 45.1999 32C45.5999 32 45.9999 32.4 45.9999 32.8V40.9C45.9999 41.3 46.2999 41.6 46.6999 41.6C47.0999 41.6 47.3999 41.3 47.3999 40.9L48.3999 30.1C48.5999 28.7 48.1999 27.2 47.1999 26.2ZM24.1999 11.5L13.1999 24.3L10.4999 28.6L11.8999 33.9C11.9999 34.2 11.8999 34.4 11.6999 34.6L10.1999 36.2C10.0999 36.4 9.7999 36.5 9.59991 36.5C9.39991 36.5 9.1999 36.3 8.9999 36.2L7.4999 34.6C7.2999 34.4 7.1999 34.1 7.2999 33.9L8.6999 28.6L6.1999 24.6C4.8999 24.6 3.6999 25.2 2.6999 26.2C1.6999 27.3 1.1999 28.7 1.3999 30.2L2.3999 41C2.3999 41.4 2.7999 41.7 3.0999 41.7C3.4999 41.7 3.7999 41.4 3.7999 41V32.9C3.9999 32.4 4.3999 32 4.7999 32C5.1999 32 5.5999 32.4 5.5999 32.8V39H13.9999V28.9C13.9999 28.8 13.9999 28.8 13.9999 28.7C13.9999 28.6 14.0999 28.6 14.0999 28.5L24.1999 12.5V11.5Z" fill="white"/>
<path d="M40.4001 22.9C42.2001 22.9 43.7001 21.4 43.7001 19.6C43.7001 17.8 42.2001 16.3 40.4001 16.3C38.6001 16.3 37.1 17.8 37.1 19.6C37.1 21.4 38.6001 22.9 40.4001 22.9ZM9.60005 22.9C11.4 22.9 12.9 21.4 12.9 19.6C12.9 17.8 11.4 16.3 9.60005 16.3C7.80005 16.3 6.30005 17.8 6.30005 19.6C6.30005 21.4 7.80005 22.9 9.60005 22.9ZM25 6C25.4 6 25.8 5.6 25.8 5.2V1.8C25.8 1.4 25.4 1 25 1C24.6 1 24.2001 1.4 24.2001 1.8V5.2C24.2001 5.6 24.6 6 25 6ZM30.5 11.4C30.5 11.8 30.9 12.2 31.3 12.2H34.7001C35.1 12.2 35.5 11.8 35.5 11.4C35.5 11 35.1 10.6 34.7001 10.6H31.3C30.8 10.6 30.5 11 30.5 11.4ZM15.4 12.2H18.8C19.2 12.2 19.6 11.8 19.6 11.4C19.6 11 19.2 10.6 18.8 10.6H15.4C15 10.6 14.6 11 14.6 11.4C14.6 11.8 14.9 12.2 15.4 12.2ZM29.4 7.8C29.6 7.8 29.8 7.7 30 7.6L32.4001 5.2C32.7001 4.9 32.7001 4.4 32.4001 4.1C32.1001 3.8 31.6 3.8 31.3 4.1L28.9 6.5C28.6 6.8 28.6 7.3 28.9 7.6C29 7.7 29.2 7.8 29.4 7.8ZM20 7.6C20.2 7.8 20.4 7.8 20.6 7.8C20.8 7.8 21 7.7 21.2 7.6C21.5 7.3 21.5 6.8 21.2 6.5L18.7 4C18.4 3.7 17.9 3.7 17.6 4C17.3 4.3 17.3 4.8 17.6 5.1L20 7.6Z" fill="white"/>
<path d="M27.2999 35.4999L25 30.8999L22.7 35.4999L17.7 36.1999L21.2999 39.7999L20.5 44.7999L25 42.3999L29.5 44.7999L28.7 39.7999L32.2999 36.1999L27.2999 35.4999Z" fill="white"/>
</svg>
