<svg width="50" height="50" viewBox="0 0 50 50" fill="none" xmlns="http://www.w3.org/2000/svg">
<path d="M25.0596 34.0483H32.1826C33.3145 34.0483 34.2773 34.7681 34.6104 35.7759L38.3262 34.2427C35.9336 32.6128 32.8711 31.7222 29.6035 31.7222C26.8408 31.7222 24.165 32.3804 21.9521 33.5903C22.9453 33.854 24.2148 34.0483 25.0596 34.0483ZM4.54883 29.8882H8.57715V47.3257H4.54883V29.8882ZM11.2373 31.1157H9.55371V45.8657H11.2373C11.5928 45.8657 11.8818 45.5767 11.8818 45.2212V31.7603C11.8818 31.4048 11.5928 31.1157 11.2373 31.1157Z" fill="white"/>
<path d="M45.25 33.8579C44.8223 33.2476 43.8145 33.0151 43.0488 33.3501C43.0459 33.3521 43.042 33.353 43.0391 33.355L34.7236 36.7856C34.7158 36.8687 34.7031 36.9517 34.6875 37.0337C34.4512 38.2026 33.3984 39.0513 32.1826 39.0513H25.0596C25.0508 39.0513 25.042 39.0513 25.0322 39.0503C25.0176 39.0503 23.3447 38.9819 22.0068 40.1372C21.9182 40.2141 21.8048 40.2565 21.6875 40.2563C21.5508 40.2563 21.415 40.1997 21.3184 40.0874C21.2764 40.039 21.2443 39.9827 21.2241 39.9219C21.2038 39.861 21.1958 39.7968 21.2004 39.7328C21.2051 39.6689 21.2222 39.6065 21.251 39.5492C21.2798 39.4919 21.3196 39.4408 21.3682 39.3989C22.9541 38.0278 24.8633 38.0659 25.0713 38.0747H32.1826C32.9346 38.0747 33.5859 37.5562 33.7295 36.8413C33.749 36.7437 33.7588 36.6489 33.7588 36.5503C33.7588 36.5278 33.7578 36.5054 33.7568 36.4839C33.7178 35.6636 33.0264 35.0249 32.1826 35.0249H25.0596C23.874 35.0249 22.0029 34.6919 20.8887 34.2827C20.8848 34.2808 20.8799 34.2788 20.876 34.2769L20.835 34.2612C19.6719 33.8345 17.8564 33.5806 15.9756 33.5806H12.8584V43.1431L26.3428 46.2729C27.2588 46.4722 28.7051 46.2114 29.4971 45.7017L44.7676 35.6772C45.1162 35.4536 45.3545 35.1138 45.4277 34.7417C45.4902 34.4253 45.4268 34.1118 45.25 33.8579ZM21.958 27.9595C24.6592 27.9595 26.8564 25.7622 26.8564 23.061C26.8564 20.3608 24.6592 18.1636 21.958 18.1636C19.2578 18.1636 17.0605 20.3608 17.0605 23.061C17.0605 25.7622 19.2578 27.9595 21.958 27.9595ZM22.2168 23.5493H21.6992C20.9355 23.5493 20.3145 22.9282 20.3145 22.1646C20.3145 21.479 20.8154 20.9097 21.4697 20.8003V20.2603C21.4697 19.9907 21.6885 19.772 21.958 19.772C22.2275 19.772 22.4463 19.9907 22.4463 20.2603V20.7798H23.1133C23.3828 20.7798 23.6016 20.9985 23.6016 21.2681C23.6016 21.5376 23.3828 21.7563 23.1133 21.7563H21.6992C21.4746 21.7563 21.291 21.939 21.291 22.1646C21.291 22.3901 21.4746 22.5728 21.6992 22.5728H22.2168C22.9805 22.5728 23.6016 23.1948 23.6016 23.9585C23.6016 24.6431 23.1006 25.2124 22.4463 25.3228V25.8618C22.4463 26.1323 22.2275 26.3501 21.958 26.3501C21.6885 26.3501 21.4697 26.1323 21.4697 25.8618V25.3433H20.8027C20.5332 25.3433 20.3145 25.1245 20.3145 24.855C20.3145 24.5854 20.5332 24.3667 20.8027 24.3667H22.2168C22.3252 24.3667 22.4291 24.3236 22.5058 24.247C22.5824 24.1704 22.6255 24.0664 22.6255 23.958C22.6255 23.8496 22.5824 23.7457 22.5058 23.669C22.4291 23.5924 22.3252 23.5493 22.2168 23.5493ZM32.2168 23.061C32.2168 25.7622 34.4141 27.9595 37.1152 27.9595C39.8154 27.9595 42.0127 25.7622 42.0127 23.061C42.0127 20.3608 39.8154 18.1636 37.1152 18.1636C34.4141 18.1636 32.2168 20.3608 32.2168 23.061ZM36.8555 22.5728H37.373C38.1367 22.5728 38.7578 23.1948 38.7578 23.9585C38.7578 24.6431 38.2568 25.2124 37.6025 25.3228V25.8618C37.6025 26.1323 37.3838 26.3501 37.1143 26.3501C36.8447 26.3501 36.626 26.1323 36.626 25.8618V25.3433H35.959C35.6895 25.3433 35.4707 25.1245 35.4707 24.855C35.4707 24.5854 35.6895 24.3667 35.959 24.3667H37.373C37.4814 24.3667 37.5854 24.3236 37.662 24.247C37.7387 24.1704 37.7817 24.0664 37.7817 23.958C37.7817 23.8496 37.7387 23.7457 37.662 23.669C37.5854 23.5924 37.4814 23.5493 37.373 23.5493H36.8555C36.0918 23.5493 35.4707 22.9282 35.4707 22.1646C35.4707 21.479 35.9717 20.9106 36.626 20.8003V20.2603C36.626 19.9907 36.8447 19.772 37.1143 19.772C37.3838 19.772 37.6025 19.9907 37.6025 20.2603V20.7798H38.2695C38.5391 20.7798 38.7578 20.9985 38.7578 21.2681C38.7578 21.5376 38.5391 21.7563 38.2695 21.7563H36.8555C36.6309 21.7563 36.4473 21.939 36.4473 22.1646C36.4473 22.3901 36.6309 22.5728 36.8555 22.5728ZM23.101 15.742C24.1613 16.416 25.507 16.567 27.1068 16.1986L23.5326 14.0819C23.3465 13.9725 23.2855 13.7324 23.395 13.5463C23.448 13.4572 23.5341 13.3927 23.6345 13.3671C23.735 13.3414 23.8415 13.3567 23.9307 13.4095L27.5057 15.5262C27.0592 13.9459 26.2796 12.8387 25.1786 12.2334C23.5146 11.3178 21.5293 11.7775 20.7888 12.0035C20.9467 12.7612 21.4979 14.7231 23.101 15.742ZM35.1429 13.4095C35.2321 13.3567 35.3386 13.3415 35.439 13.3671C35.5394 13.3928 35.6256 13.4572 35.6785 13.5463C35.788 13.7324 35.727 13.9725 35.5409 14.0819L31.9667 16.1986C33.5688 16.5677 34.9162 16.4152 35.9765 15.7396C37.5826 14.7161 38.1292 12.7597 38.2855 12.0035C37.5458 11.7783 35.5597 11.317 33.8949 12.2334C32.7947 12.8387 32.0151 13.9458 31.5679 15.5254L35.1429 13.4095ZM29.0527 6.94287C29.0537 6.81394 29.1056 6.69062 29.197 6.59972C29.2884 6.50883 29.4121 6.45772 29.541 6.45752H29.5449C29.8145 6.45947 30.0312 6.6792 30.0293 6.94873L29.9961 12.1392C31.4209 10.6626 32.123 9.12353 32.084 7.55518C32.0244 5.1831 30.2783 3.33154 29.5693 2.67432C28.8516 3.32178 27.082 5.15088 26.9912 7.52197C26.9316 9.09033 27.6133 10.6372 29.0195 12.1333L29.0527 6.94287Z" fill="white"/>
<path d="M29.6032 13.5522C29.4737 13.5522 29.3495 13.6037 29.258 13.6953C29.1664 13.7868 29.115 13.911 29.115 14.0405V26.7271L27.1874 25.7458C27.1303 25.7167 27.0679 25.6992 27.004 25.6942C26.9401 25.6891 26.8758 25.6968 26.8148 25.7166C26.7538 25.7365 26.6973 25.7681 26.6486 25.8098C26.5998 25.8515 26.5598 25.9023 26.5307 25.9595C26.5016 26.0166 26.484 26.0789 26.479 26.1429C26.474 26.2068 26.4817 26.2711 26.5015 26.3321C26.5213 26.3931 26.553 26.4496 26.5947 26.4983C26.6363 26.5471 26.6872 26.5871 26.7444 26.6162L29.1149 27.8231V30.0496C29.1149 30.3193 29.3334 30.5379 29.6031 30.5379C29.8729 30.5379 30.0914 30.3193 30.0914 30.0496V27.7706L32.359 26.6162C32.4713 26.5557 32.5555 26.4537 32.5936 26.3319C32.6316 26.2101 32.6205 26.0783 32.5627 25.9646C32.5048 25.8509 32.4047 25.7643 32.2839 25.7234C32.163 25.6826 32.0309 25.6906 31.9159 25.7458L30.0914 26.6746V14.0405C30.0914 13.9764 30.0788 13.9129 30.0543 13.8537C30.0298 13.7944 29.9938 13.7406 29.9485 13.6952C29.9032 13.6499 29.8493 13.6139 29.7901 13.5894C29.7309 13.5649 29.6674 13.5522 29.6032 13.5522Z" fill="white"/>
</svg>
