<svg width="50" height="50" viewBox="0 0 50 50" fill="none" xmlns="http://www.w3.org/2000/svg">
<path d="M35.5078 24.1504H14.4551C14.1445 24.151 13.8467 24.2746 13.6271 24.4943C13.4074 24.7139 13.2838 25.0116 13.2832 25.3223V33.6797C15.3354 36.5247 18.3488 38.5299 21.7656 39.3242H28.2441C31.6421 38.5384 34.6394 36.5463 36.6797 33.7178V25.3223C36.6791 25.0116 36.5555 24.7139 36.3358 24.4943C36.1162 24.2746 35.8184 24.151 35.5078 24.1504ZM24.9814 33.6699C24.5992 33.6699 24.2256 33.5566 23.9077 33.3442C23.5899 33.1319 23.3422 32.83 23.1959 32.4769C23.0497 32.1237 23.0114 31.7352 23.086 31.3603C23.1605 30.9854 23.3446 30.641 23.6149 30.3707C23.8852 30.1005 24.2295 29.9164 24.6044 29.8418C24.9793 29.7673 25.3679 29.8055 25.721 29.9518C26.0742 30.0981 26.376 30.3458 26.5884 30.6636C26.8007 30.9814 26.9141 31.3551 26.9141 31.7373C26.9136 32.2497 26.7098 32.741 26.3475 33.1033C25.9851 33.4657 25.4939 33.6694 24.9814 33.6699ZM35.5078 24.1504H14.4551C14.1445 24.151 13.8467 24.2746 13.6271 24.4943C13.4074 24.7139 13.2838 25.0116 13.2832 25.3223V33.6797C15.3354 36.5247 18.3488 38.5299 21.7656 39.3242H28.2441C31.6421 38.5384 34.6394 36.5463 36.6797 33.7178V25.3223C36.6791 25.0116 36.5555 24.7139 36.3358 24.4943C36.1162 24.2746 35.8184 24.151 35.5078 24.1504ZM24.9814 33.6699C24.5992 33.6699 24.2256 33.5566 23.9077 33.3442C23.5899 33.1319 23.3422 32.83 23.1959 32.4769C23.0497 32.1237 23.0114 31.7352 23.086 31.3603C23.1605 30.9854 23.3446 30.641 23.6149 30.3707C23.8852 30.1005 24.2295 29.9164 24.6044 29.8418C24.9793 29.7673 25.3679 29.8055 25.721 29.9518C26.0742 30.0981 26.376 30.3458 26.5884 30.6636C26.8007 30.9814 26.9141 31.3551 26.9141 31.7373C26.9136 32.2497 26.7098 32.741 26.3475 33.1033C25.9851 33.4657 25.4939 33.6694 24.9814 33.6699ZM35.5078 24.1504H14.4551C14.1445 24.151 13.8467 24.2746 13.6271 24.4943C13.4074 24.7139 13.2838 25.0116 13.2832 25.3223V33.6797C15.3354 36.5247 18.3488 38.5299 21.7656 39.3242H28.2441C31.6421 38.5384 34.6394 36.5463 36.6797 33.7178V25.3223C36.6791 25.0116 36.5555 24.7139 36.3358 24.4943C36.1162 24.2746 35.8184 24.151 35.5078 24.1504ZM24.9814 33.6699C24.5992 33.6699 24.2256 33.5566 23.9077 33.3442C23.5899 33.1319 23.3422 32.83 23.1959 32.4769C23.0497 32.1237 23.0114 31.7352 23.086 31.3603C23.1605 30.9854 23.3446 30.641 23.6149 30.3707C23.8852 30.1005 24.2295 29.9164 24.6044 29.8418C24.9793 29.7673 25.3679 29.8055 25.721 29.9518C26.0742 30.0981 26.376 30.3458 26.5884 30.6636C26.8007 30.9814 26.9141 31.3551 26.9141 31.7373C26.9136 32.2497 26.7098 32.741 26.3475 33.1033C25.9851 33.4657 25.4939 33.6694 24.9814 33.6699ZM47.6377 24.8496H44.1182C43.9121 14.6055 35.6172 6.30957 25.3721 6.10449V2.58398C25.3721 2.48038 25.3309 2.38103 25.2577 2.30777C25.1844 2.23451 25.085 2.19336 24.9814 2.19336C24.8778 2.19336 24.7785 2.23451 24.7052 2.30777C24.632 2.38103 24.5908 2.48038 24.5908 2.58398V6.10449C14.3457 6.30957 6.05078 14.6055 5.84473 24.8496H2.3252C2.2216 24.8496 2.12224 24.8908 2.04898 24.964C1.97573 25.0373 1.93457 25.1366 1.93457 25.2402C1.93457 25.3438 1.97573 25.4432 2.04898 25.5164C2.12224 25.5897 2.2216 25.6309 2.3252 25.6309H5.84473C6.05078 35.877 14.3457 44.1709 24.5908 44.3779V47.8965C24.5908 48.0001 24.632 48.0994 24.7052 48.1727C24.7785 48.246 24.8778 48.2871 24.9814 48.2871C25.085 48.2871 25.1844 48.246 25.2577 48.1727C25.3309 48.0994 25.3721 48.0001 25.3721 47.8965V44.3779C35.6172 44.1709 43.9121 35.877 44.1182 25.6309H47.6377C47.7413 25.6309 47.8407 25.5897 47.9139 25.5164C47.9872 25.4432 48.0283 25.3438 48.0283 25.2402C48.0283 25.1366 47.9872 25.0373 47.9139 24.964C47.8407 24.8908 47.7413 24.8496 47.6377 24.8496ZM24.5908 6.88672C24.7207 6.88184 24.8506 6.88086 24.9814 6.88086C25.1123 6.88086 25.2422 6.88184 25.3721 6.88672V8.05273C25.3721 8.15633 25.3309 8.25569 25.2577 8.32895C25.1844 8.4022 25.085 8.44336 24.9814 8.44336C24.8778 8.44336 24.7785 8.4022 24.7052 8.32895C24.632 8.25569 24.5908 8.15633 24.5908 8.05273V6.88672ZM7.79395 25.6309H6.62695C6.62305 25.502 6.62207 25.3711 6.62207 25.2402C6.62207 25.1094 6.62305 24.9795 6.62695 24.8496H7.79395C7.89755 24.8496 7.9969 24.8908 8.07016 24.964C8.14342 25.0373 8.18457 25.1366 8.18457 25.2402C8.18457 25.3438 8.14342 25.4432 8.07016 25.5164C7.9969 25.5897 7.89755 25.6309 7.79395 25.6309ZM25.3721 43.5957C25.2422 43.5986 25.1123 43.5996 24.9814 43.5996C24.8506 43.5996 24.7207 43.5986 24.5908 43.5957V42.4277C24.5908 42.3241 24.632 42.2248 24.7052 42.1515C24.7785 42.0783 24.8778 42.0371 24.9814 42.0371C25.085 42.0371 25.1844 42.0783 25.2577 42.1515C25.3309 42.2248 25.3721 42.3241 25.3721 42.4277V43.5957ZM37.7129 33.5967C37.7129 33.5967 36.707 34.9541 36.6797 34.9873C34.605 37.4817 31.7875 39.2478 28.6383 40.028C25.4891 40.8082 22.173 40.5616 19.1738 39.3242C16.4307 38.1904 13.8477 36.1436 12.3066 33.6855L12.2275 33.5625C11.7944 32.9026 11.4137 32.2097 11.0889 31.4902L12.459 24.6387C12.6766 23.5631 13.259 22.5958 14.1075 21.9C14.9561 21.2043 16.0189 20.8229 17.1162 20.8203H22.5664C22.659 21.3941 22.9529 21.9162 23.3954 22.293C23.838 22.6699 24.4002 22.8768 24.9814 22.8768C25.5627 22.8768 26.1249 22.6699 26.5675 22.293C27.01 21.9162 27.3039 21.3941 27.3965 20.8203H32.8467C33.944 20.8229 35.0068 21.2043 35.8554 21.9C36.7039 22.5958 37.2863 23.5631 37.5039 24.6387L38.874 31.4902C38.5432 32.222 38.155 32.9263 37.7129 33.5967ZM23.999 17.4307C23.8247 17.4098 23.6641 17.3257 23.5476 17.1943C23.4312 17.0629 23.367 16.8933 23.3672 16.7178V16.7031C23.3704 16.5261 23.439 16.3565 23.5599 16.227C23.6807 16.0976 23.8451 16.0174 24.0215 16.002C24.0264 16.001 24.0303 16.001 24.0352 16C24.052 15.9984 24.069 15.9977 24.0859 15.998C24.1961 15.9977 24.3048 16.0231 24.4033 16.0723C24.4871 16.1146 24.5835 16.1251 24.6745 16.102C24.7655 16.0788 24.845 16.0235 24.8984 15.9463C25.1235 15.6235 25.2711 15.2533 25.3301 14.8643L25.3418 14.7832C25.7313 15.0173 26.1504 15.1982 26.5879 15.3213V17.8662C26.5879 18.1592 26.4716 18.4403 26.2645 18.6476C26.0574 18.8549 25.7764 18.9714 25.4834 18.9717C25.3798 18.9717 25.2804 19.0128 25.2072 19.0861C25.1339 19.1593 25.0928 19.2587 25.0928 19.3623C25.0928 19.4659 25.1339 19.5653 25.2072 19.6385C25.2804 19.7118 25.3798 19.7529 25.4834 19.7529C25.5293 19.7529 25.5742 19.749 25.6191 19.7461V20.4297C25.6191 20.481 25.6291 20.5318 25.6487 20.5793C25.6683 20.6267 25.6971 20.6698 25.7334 20.7061C25.7696 20.7424 25.8127 20.7712 25.8602 20.7908C25.9076 20.8104 25.9584 20.8204 26.0098 20.8203H26.6006C26.5131 21.1838 26.3057 21.5073 26.012 21.7386C25.7183 21.97 25.3553 22.0958 24.9814 22.0958C24.6076 22.0958 24.2445 21.97 23.9508 21.7386C23.6571 21.5073 23.4498 21.1838 23.3623 20.8203H23.9531C24.0044 20.8204 24.0553 20.8104 24.1027 20.7908C24.1502 20.7712 24.1932 20.7424 24.2295 20.7061C24.2658 20.6698 24.2946 20.6267 24.3142 20.5793C24.3338 20.5318 24.3438 20.481 24.3438 20.4297V17.8184C24.3434 17.7228 24.3081 17.6307 24.2447 17.5593C24.1812 17.488 24.0938 17.4422 23.999 17.4307ZM39.4033 30.1533L38.2695 24.4853C38.0163 23.2329 37.3383 22.1063 36.3502 21.2961C35.3621 20.486 34.1245 20.0419 32.8467 20.0391H26.4004V19.5137C26.6933 19.3495 26.9374 19.1104 27.1076 18.821C27.2778 18.5315 27.3681 18.202 27.3691 17.8662V15.4746C27.5704 15.4991 27.7729 15.5115 27.9756 15.5117H28.9482C29.0518 15.5117 29.1512 15.4706 29.2245 15.3973C29.2977 15.3241 29.3389 15.2247 29.3389 15.1211V13.6934C29.3383 13.2389 29.2056 12.7945 28.957 12.4141C28.706 12.0296 28.353 11.7226 27.9375 11.5273C27.5877 11.3635 27.2062 11.2784 26.8199 11.2782C26.4337 11.2781 26.0521 11.3628 25.7021 11.5264L24.668 12.0156C24.3179 11.8971 23.943 11.8718 23.5801 11.9422C23.2173 12.0126 22.879 12.1762 22.5986 12.417C22.3154 12.6505 22.1048 12.96 21.9915 13.3091C21.8782 13.6582 21.8669 14.0324 21.959 14.3877C21.959 14.3877 22.4629 16.3994 22.6279 17.0693C22.6857 17.308 22.8011 17.5288 22.9641 17.7125C23.127 17.8962 23.3325 18.0372 23.5625 18.123V20.0391H17.1162C15.8384 20.0419 14.6008 20.486 13.6127 21.2961C12.6246 22.1063 11.9466 23.2329 11.6934 24.4853L10.5596 30.1533C10.0203 28.5715 9.74577 26.9115 9.74707 25.2402C9.74707 16.8408 16.5811 10.0059 24.9814 10.0059C33.3818 10.0059 40.2158 16.8408 40.2158 25.2402C40.2171 26.9115 39.9426 28.5715 39.4033 30.1533ZM43.3359 25.6309H42.1689C42.0653 25.6309 41.966 25.5897 41.8927 25.5164C41.8195 25.4432 41.7783 25.3438 41.7783 25.2402C41.7783 25.1366 41.8195 25.0373 41.8927 24.964C41.966 24.8908 42.0653 24.8496 42.1689 24.8496H43.3359C43.3398 24.9795 43.3408 25.1094 43.3408 25.2402C43.3408 25.3711 43.3398 25.502 43.3359 25.6309ZM35.5078 24.1504H14.4551C14.1445 24.151 13.8467 24.2746 13.6271 24.4943C13.4074 24.7139 13.2838 25.0116 13.2832 25.3223V33.6797C15.3354 36.5247 18.3488 38.5299 21.7656 39.3242H28.2441C31.6421 38.5384 34.6394 36.5463 36.6797 33.7178V25.3223C36.6791 25.0116 36.5555 24.7139 36.3358 24.4943C36.1162 24.2746 35.8184 24.151 35.5078 24.1504ZM24.9814 33.6699C24.5992 33.6699 24.2256 33.5566 23.9077 33.3442C23.5899 33.1319 23.3422 32.83 23.1959 32.4769C23.0497 32.1237 23.0114 31.7352 23.086 31.3603C23.1605 30.9854 23.3446 30.641 23.6149 30.3707C23.8852 30.1005 24.2295 29.9164 24.6044 29.8418C24.9793 29.7673 25.3679 29.8055 25.721 29.9518C26.0742 30.0981 26.376 30.3458 26.5884 30.6636C26.8007 30.9814 26.9141 31.3551 26.9141 31.7373C26.9136 32.2497 26.7098 32.741 26.3475 33.1033C25.9851 33.4657 25.4939 33.6694 24.9814 33.6699ZM35.5078 24.1504H14.4551C14.1445 24.151 13.8467 24.2746 13.6271 24.4943C13.4074 24.7139 13.2838 25.0116 13.2832 25.3223V33.6797C15.3354 36.5247 18.3488 38.5299 21.7656 39.3242H28.2441C31.6421 38.5384 34.6394 36.5463 36.6797 33.7178V25.3223C36.6791 25.0116 36.5555 24.7139 36.3358 24.4943C36.1162 24.2746 35.8184 24.151 35.5078 24.1504ZM24.9814 33.6699C24.5992 33.6699 24.2256 33.5566 23.9077 33.3442C23.5899 33.1319 23.3422 32.83 23.1959 32.4769C23.0497 32.1237 23.0114 31.7352 23.086 31.3603C23.1605 30.9854 23.3446 30.641 23.6149 30.3707C23.8852 30.1005 24.2295 29.9164 24.6044 29.8418C24.9793 29.7673 25.3679 29.8055 25.721 29.9518C26.0742 30.0981 26.376 30.3458 26.5884 30.6636C26.8007 30.9814 26.9141 31.3551 26.9141 31.7373C26.9136 32.2497 26.7098 32.741 26.3475 33.1033C25.9851 33.4657 25.4939 33.6694 24.9814 33.6699ZM35.5078 24.1504H14.4551C14.1445 24.151 13.8467 24.2746 13.6271 24.4943C13.4074 24.7139 13.2838 25.0116 13.2832 25.3223V33.6797C15.3354 36.5247 18.3488 38.5299 21.7656 39.3242H28.2441C31.6421 38.5384 34.6394 36.5463 36.6797 33.7178V25.3223C36.6791 25.0116 36.5555 24.7139 36.3358 24.4943C36.1162 24.2746 35.8184 24.151 35.5078 24.1504ZM24.9814 33.6699C24.5992 33.6699 24.2256 33.5566 23.9077 33.3442C23.5899 33.1319 23.3422 32.83 23.1959 32.4769C23.0497 32.1237 23.0114 31.7352 23.086 31.3603C23.1605 30.9854 23.3446 30.641 23.6149 30.3707C23.8852 30.1005 24.2295 29.9164 24.6044 29.8418C24.9793 29.7673 25.3679 29.8055 25.721 29.9518C26.0742 30.0981 26.376 30.3458 26.5884 30.6636C26.8007 30.9814 26.9141 31.3551 26.9141 31.7373C26.9136 32.2497 26.7098 32.741 26.3475 33.1033C25.9851 33.4657 25.4939 33.6694 24.9814 33.6699Z" fill="white"/>
<path d="M43.1976 41.769L44.0261 40.9403C44.075 40.8915 44.1101 40.8305 44.1277 40.7637C44.1453 40.6968 44.1448 40.6265 44.1264 40.5599C44.1079 40.4933 44.0721 40.4327 44.0226 40.3845C43.9732 40.3362 43.9118 40.3019 43.8447 40.2852L39.4253 39.1803C39.3598 39.1639 39.2912 39.1648 39.2262 39.1828C39.1612 39.2008 39.102 39.2353 39.0543 39.283C39.0066 39.3307 38.972 39.39 38.954 39.455C38.936 39.52 38.9352 39.5886 38.9515 39.654L40.0564 44.0734C40.0732 44.1404 40.1074 44.2018 40.1557 44.2513C40.2039 44.3008 40.2645 44.3367 40.3311 44.3551C40.3977 44.3736 40.468 44.374 40.5349 44.3564C40.6017 44.3388 40.6627 44.3038 40.7116 44.2549L41.5403 43.4263L46.8276 48.7136C46.9009 48.7868 47.0002 48.828 47.1038 48.828C47.2074 48.828 47.3067 48.7868 47.3799 48.7136L48.4848 47.6087C48.5211 47.5724 48.5499 47.5294 48.5695 47.482C48.5891 47.4346 48.5992 47.3838 48.5992 47.3325C48.5992 47.2812 48.5891 47.2304 48.5695 47.183C48.5499 47.1356 48.5211 47.0925 48.4848 47.0563L43.1976 41.769ZM6.80231 8.68839L5.97379 9.5171C5.92494 9.56598 5.88993 9.62695 5.87233 9.69378C5.85473 9.76061 5.85518 9.83092 5.87363 9.89752C5.89208 9.96412 5.92786 10.0246 5.97734 10.0729C6.02681 10.1211 6.0882 10.1554 6.15524 10.1722L10.5747 11.2771C10.6401 11.2934 10.7087 11.2926 10.7737 11.2746C10.8387 11.2566 10.898 11.222 10.9457 11.1743C10.9934 11.1266 11.0279 11.0674 11.0459 11.0024C11.0639 10.9374 11.0648 10.8688 11.0484 10.8033L9.94352 6.3839C9.92675 6.31684 9.89249 6.25543 9.84423 6.20594C9.79597 6.15645 9.73544 6.12066 9.66882 6.10221C9.6022 6.08376 9.53188 6.08332 9.46504 6.10093C9.39819 6.11854 9.33722 6.15358 9.28834 6.20246L8.45963 7.03107L3.17233 1.74376C3.09908 1.67053 2.99974 1.62939 2.89616 1.62939C2.79258 1.62939 2.69324 1.67053 2.61998 1.74376L1.5151 2.84855C1.47881 2.88482 1.45003 2.92789 1.43038 2.9753C1.41074 3.0227 1.40063 3.07351 1.40063 3.12482C1.40063 3.17613 1.41074 3.22694 1.43038 3.27434C1.45003 3.32174 1.47881 3.36481 1.5151 3.40109L6.80231 8.68839ZM10.5747 39.1803L6.15524 40.2852C6.08818 40.3019 6.02677 40.3362 5.97728 40.3845C5.92779 40.4327 5.892 40.4933 5.87355 40.5599C5.8551 40.6265 5.85466 40.6968 5.87227 40.7637C5.88988 40.8305 5.92491 40.8915 5.97379 40.9403L6.80231 41.769L1.5151 47.0563C1.47883 47.0925 1.45005 47.1356 1.43042 47.183C1.41079 47.2304 1.40068 47.2812 1.40068 47.3325C1.40068 47.3838 1.41079 47.4346 1.43042 47.482C1.45005 47.5294 1.47883 47.5724 1.5151 47.6087L2.61998 48.7136C2.69324 48.7868 2.79258 48.828 2.89616 48.828C2.99974 48.828 3.09908 48.7868 3.17233 48.7136L8.45963 43.4263L9.28834 44.2549C9.33723 44.3038 9.39821 44.3388 9.46506 44.3564C9.53191 44.374 9.60223 44.3736 9.66885 44.3551C9.73547 44.3367 9.796 44.3008 9.84425 44.2513C9.89251 44.2018 9.92676 44.1404 9.94352 44.0734L11.0484 39.654C11.0648 39.5886 11.0639 39.52 11.0459 39.455C11.0279 39.39 10.9934 39.3307 10.9457 39.283C10.898 39.2353 10.8387 39.2008 10.7737 39.1828C10.7087 39.1648 10.6401 39.1639 10.5747 39.1803ZM39.3305 11.2889C39.3625 11.2889 39.3943 11.285 39.4253 11.2773L43.8447 10.1724C43.9117 10.1556 43.9731 10.1213 44.0226 10.0731C44.0721 10.0248 44.1079 9.96431 44.1263 9.89771C44.1447 9.83111 44.1452 9.76081 44.1276 9.69398C44.11 9.62715 44.075 9.56618 44.0261 9.5173L43.1976 8.68859L48.4848 3.40128C48.5211 3.36501 48.5499 3.32194 48.5695 3.27454C48.5892 3.22713 48.5993 3.17633 48.5993 3.12501C48.5993 3.0737 48.5892 3.0229 48.5695 2.97549C48.5499 2.92809 48.5211 2.88502 48.4848 2.84874L47.3799 1.74376C47.3067 1.67053 47.2074 1.62939 47.1038 1.62939C47.0002 1.62939 46.9009 1.67053 46.8276 1.74376L41.5403 7.03107L40.7116 6.20246C40.6627 6.15358 40.6017 6.11854 40.5349 6.10093C40.468 6.08332 40.3977 6.08376 40.3311 6.10221C40.2645 6.12066 40.204 6.15645 40.1557 6.20594C40.1074 6.25543 40.0732 6.31684 40.0564 6.3839L38.9515 10.8033C38.9371 10.8609 38.9361 10.921 38.9484 10.9791C38.9607 11.0372 38.9861 11.0917 39.0226 11.1385C39.0592 11.1853 39.1059 11.2231 39.1592 11.2491C39.2126 11.2752 39.2712 11.2887 39.3305 11.2887V11.2889Z" fill="white"/>
</svg>
