<svg width="50" height="50" viewBox="0 0 50 50" fill="none" xmlns="http://www.w3.org/2000/svg">
<g clip-path="url(#clip0_18_2170)">
<path d="M49.0151 42.6515C48.8636 42.5 48.7121 42.4243 48.4848 42.4243H47.197V11.9697C47.197 10.6061 46.0606 9.46973 44.697 9.46973H30.1515C30.2273 9.92427 30.2273 10.5303 30.1515 10.9849H44.697C45.2273 10.9849 45.6818 11.4394 45.6818 11.9697V42.4243H29.3182C29.0151 42.4243 28.7121 42.6515 28.6364 42.9546L28.1061 44.394H21.8182L21.2879 42.9546C21.2121 42.6515 20.9091 42.4243 20.5303 42.4243H4.31817V11.9697C4.31817 11.3637 4.77272 10.9849 5.37878 10.9849H8.40908C8.33333 10.5303 8.33333 9.92427 8.40908 9.46973H5.30302C3.93939 9.46973 2.72727 10.6061 2.72727 11.9697V42.4243H1.51514C1.28787 42.4243 1.13636 42.5 0.984841 42.6515C0.833326 42.7273 0.757568 42.9546 0.757568 43.1818C0.833326 46.5909 3.63636 49.2425 7.04545 49.2425H43.0303C46.4394 49.2425 49.1667 46.5909 49.3182 43.1818C49.2424 42.9546 49.1667 42.7273 49.0151 42.6515Z" fill="white"/>
<path d="M19.2424 25.7578C19.4697 25.7578 19.6969 25.6821 19.8485 25.4548C20.2272 25.076 28.7121 15.1518 28.7121 10.1518C28.6363 5.00024 24.4697 0.757812 19.2424 0.757812C14.0151 0.757812 9.84845 5.00024 9.84845 10.1518C9.84845 15.1518 18.3333 25.076 18.7121 25.4548C18.7878 25.6821 19.0151 25.7578 19.2424 25.7578ZM15.303 10.1518C15.303 7.95478 17.0454 6.21236 19.2424 6.21236C21.4394 6.21236 23.1818 7.95478 23.1818 10.1518C23.1818 12.3487 21.4394 14.0911 19.2424 14.0911C17.0454 14.0911 15.303 12.3487 15.303 10.1518ZM8.03027 37.5002C8.03027 37.9548 8.40906 38.2578 8.78785 38.2578H41.1363C41.5151 38.2578 41.8939 37.9548 41.8939 37.5002C41.8939 37.0457 41.5151 36.7427 41.1363 36.7427H35.606V20.379C35.606 20.0002 35.303 19.6214 34.8485 19.6214H31.2878C30.9091 19.6214 30.5303 20.0002 30.5303 20.379V36.6669H27.5757V26.4396C27.5757 25.9851 27.1969 25.6821 26.8182 25.6821H23.2575C22.803 25.6821 22.5 25.9851 22.5 26.4396V36.7427H19.5454V32.5002C19.5454 32.1215 19.1666 31.7427 18.7878 31.7427H15.1515C14.7727 31.7427 14.3939 32.1215 14.3939 32.5002V36.7427H8.78785C8.40906 36.7427 8.03027 37.0457 8.03027 37.5002Z" fill="white"/>
</g>
<defs>
<clipPath id="clip0_18_2170">
<rect width="50" height="50" fill="white"/>
</clipPath>
</defs>
</svg>
