<svg width="124" height="20" viewBox="0 0 124 20" fill="none" xmlns="http://www.w3.org/2000/svg">
<path d="M18.3337 8.41678C18.417 8.00011 18.0837 7.50011 17.667 7.50011L12.917 6.83344L10.7503 2.50011C10.667 2.33344 10.5837 2.25011 10.417 2.16678C10.0003 1.91678 9.50033 2.08344 9.25033 2.50011L7.16699 6.83344L2.41699 7.50011C2.16699 7.50011 2.00033 7.58345 1.91699 7.75011C1.58366 8.08345 1.58366 8.58344 1.91699 8.91678L5.33366 12.2501L4.50033 17.0001C4.50033 17.1668 4.50033 17.3334 4.58366 17.5001C4.83366 17.9168 5.33366 18.0834 5.75033 17.8334L10.0003 15.5834L14.2503 17.8334C14.3337 17.9168 14.5003 17.9168 14.667 17.9168C14.7503 17.9168 14.7503 17.9168 14.8337 17.9168C15.2503 17.8334 15.5837 17.4168 15.5003 16.9168L14.667 12.1668L18.0837 8.83344C18.2503 8.75011 18.3337 8.58345 18.3337 8.41678Z" fill="#FFBE55"/>
<path d="M44.3337 8.41678C44.417 8.00011 44.0837 7.50011 43.667 7.50011L38.917 6.83344L36.7503 2.50011C36.667 2.33344 36.5837 2.25011 36.417 2.16678C36.0003 1.91678 35.5003 2.08344 35.2503 2.50011L33.167 6.83344L28.417 7.50011C28.167 7.50011 28.0003 7.58345 27.917 7.75011C27.5837 8.08345 27.5837 8.58344 27.917 8.91678L31.3337 12.2501L30.5003 17.0001C30.5003 17.1668 30.5003 17.3334 30.5837 17.5001C30.8337 17.9168 31.3337 18.0834 31.7503 17.8334L36.0003 15.5834L40.2503 17.8334C40.3337 17.9168 40.5003 17.9168 40.667 17.9168C40.7503 17.9168 40.7503 17.9168 40.8337 17.9168C41.2503 17.8334 41.5837 17.4168 41.5003 16.9168L40.667 12.1668L44.0837 8.83344C44.2503 8.75011 44.3337 8.58345 44.3337 8.41678Z" fill="#FFBE55"/>
<path d="M70.3337 8.41678C70.417 8.00011 70.0837 7.50011 69.667 7.50011L64.917 6.83344L62.7503 2.50011C62.667 2.33344 62.5837 2.25011 62.417 2.16678C62.0003 1.91678 61.5003 2.08344 61.2503 2.50011L59.167 6.83344L54.417 7.50011C54.167 7.50011 54.0003 7.58345 53.917 7.75011C53.5837 8.08345 53.5837 8.58344 53.917 8.91678L57.3337 12.2501L56.5003 17.0001C56.5003 17.1668 56.5003 17.3334 56.5837 17.5001C56.8337 17.9168 57.3337 18.0834 57.7503 17.8334L62.0003 15.5834L66.2503 17.8334C66.3337 17.9168 66.5003 17.9168 66.667 17.9168C66.7503 17.9168 66.7503 17.9168 66.8337 17.9168C67.2503 17.8334 67.5837 17.4168 67.5003 16.9168L66.667 12.1668L70.0837 8.83344C70.2503 8.75011 70.3337 8.58345 70.3337 8.41678Z" fill="#FFBE55"/>
<path d="M96.3337 8.41678C96.417 8.00011 96.0837 7.50011 95.667 7.50011L90.917 6.83344L88.7503 2.50011C88.667 2.33344 88.5837 2.25011 88.417 2.16678C88.0003 1.91678 87.5003 2.08344 87.2503 2.50011L85.167 6.83344L80.417 7.50011C80.167 7.50011 80.0003 7.58345 79.917 7.75011C79.5837 8.08345 79.5837 8.58344 79.917 8.91678L83.3337 12.2501L82.5003 17.0001C82.5003 17.1668 82.5003 17.3334 82.5837 17.5001C82.8337 17.9168 83.3337 18.0834 83.7503 17.8334L88.0003 15.5834L92.2503 17.8334C92.3337 17.9168 92.5003 17.9168 92.667 17.9168C92.7503 17.9168 92.7503 17.9168 92.8337 17.9168C93.2503 17.8334 93.5837 17.4168 93.5003 16.9168L92.667 12.1668L96.0837 8.83344C96.2503 8.75011 96.3337 8.58345 96.3337 8.41678Z" fill="#FFBE55"/>
<path d="M122.334 8.41678C122.417 8.00011 122.084 7.50011 121.667 7.50011L116.917 6.83344L114.75 2.50011C114.667 2.33344 114.584 2.25011 114.417 2.16678C114 1.91678 113.5 2.08344 113.25 2.50011L111.167 6.83344L106.417 7.50011C106.167 7.50011 106 7.58344 105.917 7.75011C105.584 8.08344 105.584 8.58344 105.917 8.91678L109.334 12.2501L108.5 17.0001C108.5 17.1668 108.5 17.3334 108.584 17.5001C108.834 17.9168 109.334 18.0834 109.75 17.8334L114 15.5834L118.25 17.8334C118.334 17.9168 118.5 17.9168 118.667 17.9168C118.75 17.9168 118.75 17.9168 118.834 17.9168C119.25 17.8334 119.584 17.4168 119.5 16.9168L118.667 12.1668L122.084 8.83344C122.25 8.75011 122.334 8.58345 122.334 8.41678Z" fill="#DADADA"/>
</svg>
