<svg width="60" height="60" viewBox="0 0 60 60" fill="none" xmlns="http://www.w3.org/2000/svg">
<rect width="60" height="60" rx="10" fill="url(#paint0_linear_73_4560)"/>
<path d="M45.7227 30.6641V41.0547C45.7227 41.875 45.0586 42.5391 44.2383 42.5391H33.8477C33.0273 42.5391 32.3633 41.875 32.3633 41.0547V26.6797C32.3633 21.5898 36.4922 17.4609 41.582 17.4609V22.8516C40.5234 22.8516 39.5664 23.2813 38.875 23.9727C38.1836 24.6641 37.7539 25.6211 37.7539 26.6797V29.1797H44.2383C45.0586 29.1797 45.7227 29.8438 45.7227 30.6641Z" fill="white"/>
<path d="M45.1367 30.6641V41.0547C45.1367 41.1094 45.1328 41.1641 45.1289 41.2148C45.1328 41.1875 45.1523 41.1094 45.125 41.2148C45.1133 41.2656 45.0977 41.3164 45.082 41.3672C45.0781 41.3906 45.0391 41.4727 45.0859 41.3711C45.043 41.4648 44.9922 41.5547 44.9336 41.6328C45 41.5469 44.9453 41.6172 44.9297 41.6328C44.8945 41.668 44.8555 41.7031 44.8242 41.7383C44.7539 41.8125 44.8008 41.7578 44.8242 41.7422C44.7852 41.7734 44.7422 41.8008 44.6953 41.8242C44.6641 41.8398 44.6367 41.8555 44.6055 41.8711C44.4727 41.9453 44.7031 41.8516 44.5547 41.8906C44.5195 41.8984 44.4883 41.9102 44.4531 41.9219C44.418 41.9297 44.3867 41.9375 44.3516 41.9453C44.4219 41.9375 44.418 41.9375 44.3477 41.9453C44.2891 41.9453 44.2344 41.9492 44.1797 41.9492H38.0156C36.6328 41.9492 35.2461 41.9688 33.8594 41.9492C33.8125 41.9492 33.7617 41.9453 33.7148 41.9414C33.6172 41.9336 33.8398 41.9805 33.6875 41.9336C33.6445 41.9219 33.6016 41.9102 33.5625 41.8984C33.5352 41.8906 33.4297 41.8477 33.5352 41.8945C33.4883 41.875 33.4414 41.8516 33.3984 41.8242L33.2695 41.7422C33.293 41.7578 33.3398 41.8125 33.2695 41.7383C33.2344 41.7031 33.1992 41.6641 33.1641 41.6328C33.1484 41.6172 33.0938 41.5469 33.1602 41.6328C33.1094 41.5625 33.0703 41.4883 33.0273 41.4141C32.9531 41.2812 33.0469 41.5117 33.0078 41.3633C32.9961 41.3125 32.9805 41.2617 32.9648 41.2109C32.918 41.0586 32.9648 41.2773 32.957 41.1836C32.9531 41.1367 32.9531 41.0937 32.9492 41.0469V26.5039C32.9531 26.3203 32.9609 26.1406 32.9766 25.957L33 25.6875L33.0117 25.582C33.0156 25.5469 33.0352 25.418 33.0195 25.5234C33.125 24.793 33.3125 24.0742 33.5898 23.3906C33.6016 23.3594 33.6172 23.3281 33.6289 23.293C33.5781 23.4141 33.6445 23.2539 33.6523 23.2422C33.6875 23.1641 33.7227 23.0859 33.7617 23.0078C33.8438 22.8359 33.9297 22.668 34.0195 22.5039C34.1836 22.2031 34.3672 21.9141 34.5664 21.6367C34.6172 21.5664 34.668 21.5 34.7188 21.4297C34.8203 21.293 34.6445 21.5195 34.7539 21.3867C34.7734 21.3594 34.7969 21.332 34.8164 21.3086C34.9336 21.1641 35.0547 21.0195 35.1836 20.8828C35.4258 20.6172 35.6797 20.3672 35.9492 20.1328C36.0781 20.0195 36.2109 19.9102 36.3438 19.8086C36.25 19.8828 36.4414 19.7344 36.4688 19.7148C36.543 19.6602 36.6211 19.6055 36.6992 19.5547C36.9883 19.3555 37.293 19.1758 37.6016 19.0117C37.7539 18.9336 37.9102 18.8555 38.0664 18.7852C38.1133 18.7656 38.1602 18.7422 38.207 18.7227C38.2266 18.7148 38.3125 18.6797 38.2109 18.7227C38.3086 18.6836 38.4023 18.6445 38.5 18.6094C38.8438 18.4805 39.1953 18.3711 39.5508 18.2852C39.7227 18.2422 39.8945 18.207 40.0703 18.1758C40.1562 18.1602 40.2461 18.1445 40.332 18.1328C40.3672 18.1289 40.4023 18.1211 40.4375 18.1172C40.3047 18.1367 40.4805 18.1133 40.4961 18.1094C40.8555 18.0664 41.2188 18.0469 41.582 18.0469L40.9961 17.4609V22.8516L41.582 22.2656C39.8438 22.2812 38.2227 23.3164 37.5352 24.9219C37.1016 25.9414 37.168 27.0039 37.168 28.0859V29.1797C37.168 29.4961 37.4375 29.7656 37.7539 29.7656H44.2383C44.293 29.7656 44.3477 29.7695 44.3984 29.7734C44.2812 29.7617 44.4648 29.793 44.5 29.8047C44.5312 29.8125 44.5664 29.8242 44.5977 29.8359C44.543 29.8164 44.5508 29.8125 44.5977 29.8398C44.6562 29.8711 44.7148 29.9062 44.7734 29.9414C44.7812 29.9453 44.8477 29.9961 44.7969 29.957C44.7383 29.9102 44.8438 30 44.8516 30.0117C44.875 30.0352 44.9961 30.1758 44.9258 30.082C44.9609 30.1289 44.9922 30.1797 45.0234 30.2305C45.0391 30.2617 45.0547 30.2891 45.0703 30.3203C45.1094 30.3984 45.043 30.2383 45.0703 30.3242C45.0898 30.3906 45.1094 30.457 45.125 30.5234C45.1406 30.5898 45.125 30.5078 45.125 30.5C45.1328 30.5547 45.1367 30.6094 45.1367 30.6641C45.1406 30.9688 45.4023 31.2656 45.7227 31.25C46.0352 31.2344 46.3164 30.9922 46.3086 30.6641C46.2891 29.5156 45.3672 28.6055 44.2227 28.5938C43.8516 28.5898 43.4844 28.5938 43.1133 28.5938H37.7539L38.3398 29.1797V26.6914C38.3398 26.5898 38.3438 26.4922 38.3516 26.3906C38.3633 26.2305 38.3828 26.1094 38.4336 25.8984C38.6016 25.2266 38.9453 24.6719 39.4844 24.2031C39.5938 24.1055 39.5664 24.1289 39.6719 24.0547C39.7539 23.9961 39.8398 23.9414 39.9258 23.8906C40.0117 23.8398 40.1016 23.793 40.1914 23.7461C40.2266 23.7266 40.2656 23.7109 40.3008 23.6953C40.4727 23.6172 40.207 23.7227 40.3867 23.6602C40.582 23.5938 40.7773 23.5312 40.9805 23.4922C41.0312 23.4805 41.082 23.4727 41.1328 23.4648C41.1758 23.457 41.1758 23.457 41.1328 23.4648C41.1641 23.4609 41.1953 23.457 41.2266 23.457C41.3438 23.4453 41.4609 23.4414 41.5781 23.4414C41.8945 23.4375 42.1641 23.1758 42.1641 22.8555V17.4648C42.1641 17.1484 41.8945 16.8789 41.5781 16.8789C38.4375 16.8867 35.4922 18.4102 33.6367 20.9336C32.7578 22.1289 32.1562 23.5508 31.918 25.0156C31.8047 25.707 31.7734 26.3984 31.7734 27.0977V40.3789C31.7734 40.8437 31.7344 41.3398 31.9062 41.7812C32.2227 42.5898 32.9766 43.1172 33.8477 43.1289H42.6328C43.1523 43.1289 43.6719 43.1328 44.1953 43.1289C45.3906 43.125 46.3047 42.1758 46.3047 40.9883C46.3086 39.4219 46.3047 37.8555 46.3047 36.2891V30.668C46.3047 30.3633 46.0352 30.0664 45.7188 30.082C45.4062 30.0937 45.1367 30.3359 45.1367 30.6641ZM27.6367 30.6641V41.0547C27.6367 41.875 26.9727 42.5391 26.1523 42.5391H15.7617C14.9414 42.5391 14.2773 41.875 14.2773 41.0547V26.6797C14.2773 21.5898 18.4062 17.4609 23.4961 17.4609V22.8516C22.4375 22.8516 21.4805 23.2812 20.7891 23.9727C20.0977 24.6641 19.668 25.6211 19.668 26.6797V29.1797H26.1523C26.9727 29.1797 27.6367 29.8438 27.6367 30.6641Z" fill="white"/>
<path d="M27.0507 30.6641V41.0547C27.0507 41.1094 27.0468 41.1641 27.0429 41.2148C27.0468 41.1875 27.0663 41.1094 27.039 41.2148C27.0273 41.2656 27.0116 41.3164 26.996 41.3672C26.9921 41.3906 26.953 41.4727 26.9999 41.3711C26.9569 41.4648 26.9062 41.5547 26.8476 41.6328C26.914 41.5469 26.8593 41.6172 26.8437 41.6328C26.8085 41.668 26.7694 41.7031 26.7382 41.7383C26.6679 41.8125 26.7148 41.7578 26.7382 41.7422C26.6991 41.7734 26.6562 41.8008 26.6093 41.8242C26.578 41.8398 26.5507 41.8555 26.5194 41.8711C26.3866 41.9453 26.6171 41.8516 26.4687 41.8906C26.4335 41.8984 26.4023 41.9102 26.3671 41.9219C26.3319 41.9297 26.3007 41.9375 26.2655 41.9453C26.3358 41.9375 26.3319 41.9375 26.2616 41.9453C26.203 41.9453 26.1483 41.9492 26.0937 41.9492H19.9296C18.5468 41.9492 17.1601 41.9688 15.7733 41.9492C15.7265 41.9492 15.6757 41.9453 15.6288 41.9414C15.5312 41.9336 15.7538 41.9805 15.6015 41.9336C15.5585 41.9219 15.5155 41.9102 15.4765 41.8984C15.4491 41.8906 15.3437 41.8477 15.4491 41.8945C15.4023 41.875 15.3554 41.8516 15.3124 41.8242L15.1835 41.7422C15.2069 41.7578 15.2538 41.8125 15.1835 41.7383C15.1483 41.7031 15.1132 41.6641 15.078 41.6328C15.0624 41.6172 15.0077 41.5469 15.0741 41.6328C15.0233 41.5625 14.9843 41.4883 14.9413 41.4141C14.8671 41.2812 14.9608 41.5117 14.9218 41.3633C14.9101 41.3125 14.8944 41.2617 14.8788 41.2109C14.8319 41.0586 14.8788 41.2773 14.871 41.1836C14.8671 41.1367 14.8671 41.0937 14.8632 41.0469V26.5039C14.8671 26.3203 14.8749 26.1406 14.8905 25.957L14.914 25.6875L14.9257 25.582C14.9296 25.5469 14.9491 25.418 14.9335 25.5234C15.039 24.793 15.2265 24.0742 15.5038 23.3906C15.5155 23.3594 15.5312 23.3281 15.5429 23.293C15.4921 23.4141 15.5585 23.2539 15.5663 23.2422C15.6015 23.1641 15.6366 23.0859 15.6757 23.0078C15.7577 22.8359 15.8437 22.668 15.9335 22.5039C16.0976 22.2031 16.2812 21.9141 16.4804 21.6367C16.5312 21.5664 16.5819 21.5 16.6327 21.4297C16.7343 21.293 16.5585 21.5195 16.6679 21.3867C16.6874 21.3594 16.7108 21.332 16.7304 21.3086C16.8476 21.1641 16.9687 21.0195 17.0976 20.8828C17.3398 20.6172 17.5937 20.3672 17.8632 20.1328C17.9921 20.0195 18.1249 19.9102 18.2577 19.8086C18.164 19.8828 18.3554 19.7344 18.3827 19.7148C18.4569 19.6602 18.5351 19.6055 18.6132 19.5547C18.9023 19.3555 19.2069 19.1758 19.5155 19.0117C19.6679 18.9336 19.8241 18.8555 19.9804 18.7852C20.0273 18.7656 20.0741 18.7422 20.121 18.7227C20.1405 18.7148 20.2265 18.6797 20.1249 18.7227C20.2226 18.6836 20.3163 18.6445 20.414 18.6094C20.7577 18.4805 21.1093 18.3711 21.4648 18.2852C21.6366 18.2422 21.8085 18.207 21.9843 18.1758C22.0702 18.1602 22.1601 18.1445 22.246 18.1328C22.2812 18.1289 22.3163 18.1211 22.3515 18.1172C22.2187 18.1367 22.3944 18.1133 22.4101 18.1094C22.7694 18.0664 23.1327 18.0469 23.496 18.0469L22.9101 17.4609V22.8516L23.496 22.2656C21.7577 22.2812 20.1366 23.3164 19.4491 24.9219C19.0155 25.9414 19.0819 27.0039 19.0819 28.0859V29.1797C19.0819 29.4961 19.3515 29.7656 19.6679 29.7656H26.1523C26.2069 29.7656 26.2616 29.7695 26.3124 29.7734C26.1952 29.7617 26.3788 29.793 26.414 29.8047C26.4452 29.8125 26.4804 29.8242 26.5116 29.8359C26.4569 29.8164 26.4648 29.8125 26.5116 29.8398C26.5702 29.8711 26.6288 29.9062 26.6874 29.9414C26.6952 29.9453 26.7616 29.9961 26.7108 29.957C26.6523 29.9102 26.7577 30 26.7655 30.0117C26.789 30.0352 26.9101 30.1758 26.8398 30.082C26.8749 30.1289 26.9062 30.1797 26.9374 30.2305C26.953 30.2617 26.9687 30.2891 26.9843 30.3203C27.0233 30.3984 26.9569 30.2383 26.9843 30.3242C27.0038 30.3906 27.0233 30.457 27.039 30.5234C27.0546 30.5898 27.039 30.5078 27.039 30.5C27.0468 30.5547 27.0507 30.6094 27.0507 30.6641C27.0546 30.9688 27.3163 31.2656 27.6366 31.25C27.9491 31.2344 28.2304 30.9922 28.2226 30.6641C28.203 29.5156 27.2812 28.6055 26.1366 28.5938C25.7655 28.5898 25.3983 28.5938 25.0273 28.5938H19.6679L20.2538 29.1797V26.6914C20.2538 26.5898 20.2577 26.4922 20.2655 26.3906C20.2773 26.2305 20.2968 26.1094 20.3476 25.8984C20.5155 25.2266 20.8593 24.6719 21.3983 24.2031C21.5077 24.1055 21.4804 24.1289 21.5858 24.0547C21.6679 23.9961 21.7538 23.9414 21.8398 23.8906C21.9257 23.8398 22.0155 23.793 22.1054 23.7461C22.1405 23.7266 22.1796 23.7109 22.2148 23.6953C22.3866 23.6172 22.121 23.7227 22.3007 23.6602C22.496 23.5938 22.6913 23.5312 22.8944 23.4922C22.9452 23.4805 22.996 23.4727 23.0468 23.4648C23.0898 23.457 23.0898 23.457 23.0468 23.4648C23.078 23.4609 23.1093 23.457 23.1405 23.457C23.2577 23.4453 23.3749 23.4414 23.4921 23.4414C23.8085 23.4375 24.078 23.1758 24.078 22.8555V17.4648C24.078 17.1484 23.8085 16.8789 23.4921 16.8789C20.3515 16.8867 17.4062 18.4102 15.5507 20.9336C14.6718 22.1289 14.0702 23.5508 13.8319 25.0156C13.7187 25.707 13.6874 26.3984 13.6874 27.0977V40.3789C13.6874 40.8437 13.6483 41.3398 13.8202 41.7812C14.1366 42.5898 14.8905 43.1172 15.7616 43.1289H24.5468C25.0663 43.1289 25.5858 43.1328 26.1093 43.1289C27.3046 43.125 28.2187 42.1758 28.2187 40.9883C28.2226 39.4219 28.2187 37.8555 28.2187 36.2891V30.668C28.2187 30.3633 27.9491 30.0664 27.6327 30.082C27.3202 30.0937 27.0507 30.3359 27.0507 30.6641Z" fill="white"/>
<defs>
<linearGradient id="paint0_linear_73_4560" x1="-31.3846" y1="48.6611" x2="0.104403" y2="-37.3878" gradientUnits="userSpaceOnUse">
<stop stop-color="#01204C"/>
<stop offset="1" stop-color="#2269CF"/>
</linearGradient>
</defs>
</svg>
