<svg width="1358" height="1013" viewBox="0 0 1358 1013" fill="none" xmlns="http://www.w3.org/2000/svg">
<g opacity="0.1">
<path d="M1318.97 556.049C1133.88 555.545 1013.77 605.295 936.2 654.405C871.533 695.349 862.669 719.249 801.41 744.507C668.474 799.313 460.381 789.776 404.854 673.66C377.502 616.461 413.939 572.88 431.733 469.57C447.739 376.635 447.138 239.622 364.099 57.2246" stroke="white" stroke-width="0.903173" stroke-miterlimit="10"/>
<path d="M1310.24 576.615C1133.16 568.86 1015.95 613.948 940.206 658.629C876.47 696.241 864.228 716.665 800.549 740.077C666.964 789.19 471.011 781.529 413.176 670.736C383.384 613.67 413.753 568.621 427.868 464.139C440.293 372.154 437.889 236.748 356.711 56.4394" stroke="white" stroke-width="0.903173" stroke-miterlimit="10"/>
<path d="M1301.51 597.177C1132.44 582.177 1018.05 622.594 944.203 662.85C881.291 697.145 865.859 714.114 799.678 735.644C665.618 779.254 481.31 773.314 421.483 667.808C389.165 610.808 413.613 564.438 423.989 458.707C432.912 367.727 428.626 233.877 349.296 55.6602" stroke="white" stroke-width="0.903173" stroke-miterlimit="10"/>
<path d="M1292.78 617.743C1131.73 595.497 1020.06 631.227 948.193 667.088C886.036 698.081 867.566 711.618 798.798 731.203C664.411 769.509 491.286 765.155 429.785 664.875C394.84 607.903 413.528 560.324 420.103 453.268C425.627 363.358 419.354 231.003 341.897 54.8773" stroke="white" stroke-width="0.903173" stroke-miterlimit="10"/>
<path d="M1284.05 638.305C1131 608.801 1021.98 639.82 952.195 671.295C890.686 699.033 869.31 709.166 797.943 726.776C663.362 759.965 500.984 757.083 438.112 661.953C400.442 604.959 413.542 556.277 416.241 447.839C418.451 359.041 410.105 228.135 334.508 54.115" stroke="white" stroke-width="0.903173" stroke-miterlimit="10"/>
<path d="M1275.32 658.868C1130.29 622.123 1023.79 648.374 956.193 675.516C895.226 699.997 871.142 706.797 797.074 722.34C662.402 750.608 510.386 749.095 446.424 659.028C405.927 601.997 413.644 552.286 412.367 442.405C411.36 354.755 400.844 225.265 327.115 53.3178" stroke="white" stroke-width="0.903173" stroke-miterlimit="10"/>
<path d="M1266.59 679.431C1129.58 635.425 1025.48 656.847 960.19 679.737C899.652 700.961 873.004 704.494 796.207 717.908C661.523 741.43 519.524 741.213 454.738 656.1C411.306 599.039 413.807 548.32 408.491 436.974C404.362 350.494 391.572 222.391 319.717 52.5389" stroke="white" stroke-width="0.903173" stroke-miterlimit="10"/>
<path d="M1257.85 699.992C1128.85 648.749 1027.04 665.228 964.176 683.953C903.943 701.897 874.878 702.262 795.328 713.472C660.698 732.424 528.406 733.438 463.04 653.167C416.563 596.094 414.073 544.389 404.605 431.535C397.463 346.255 382.32 219.535 312.318 51.756" stroke="white" stroke-width="0.903173" stroke-miterlimit="10"/>
<path d="M1249.13 720.56C1128.15 662.071 1028.5 673.495 968.183 688.182C908.117 702.798 876.813 700.148 794.47 709.04C659.926 723.588 537.083 725.793 471.364 650.247C421.724 593.194 414.467 540.476 400.742 426.106C390.65 342.023 373.064 216.654 304.905 50.967" stroke="white" stroke-width="0.903173" stroke-miterlimit="10"/>
<path d="M1240.4 741.114C1127.43 675.378 1029.83 681.6 972.184 692.394C912.18 703.628 878.759 698.073 793.606 704.599C659.193 714.897 545.572 718.266 479.681 647.31C426.781 590.345 414.96 536.553 396.871 420.663C383.932 337.781 363.804 213.775 297.526 50.1823" stroke="white" stroke-width="0.903173" stroke-miterlimit="10"/>
<path d="M1231.66 761.688C1126.7 688.697 1031.04 689.551 976.174 696.622C916.101 704.367 880.696 696.118 792.733 700.171C658.453 706.361 553.874 710.886 487.989 644.393C431.709 587.591 415.558 532.637 392.992 415.237C377.292 333.551 354.539 210.914 290.12 49.4133" stroke="white" stroke-width="0.903173" stroke-miterlimit="10"/>
<path d="M1222.93 782.25C1125.99 702.016 1032.17 697.296 980.171 700.843C919.924 704.956 882.624 694.242 791.865 695.739C657.715 697.945 562.03 703.627 496.302 641.465C436.525 584.932 416.271 528.69 389.115 409.806C370.729 329.296 345.279 208.041 282.724 48.6284" stroke="white" stroke-width="0.903173" stroke-miterlimit="10"/>
<path d="M1214.2 802.816C1125.28 715.333 1033.24 704.83 984.167 705.067C923.67 705.359 884.57 692.464 790.995 691.306C656.962 689.648 570.064 696.506 504.613 638.536C441.236 582.4 417.093 524.712 385.241 404.372C364.238 325.02 336.019 205.172 275.325 47.8455" stroke="white" stroke-width="0.903173" stroke-miterlimit="10"/>
<path d="M1205.47 823.379C1124.56 728.649 1034.27 712.142 988.165 709.288C927.374 705.526 886.488 690.771 790.134 686.874C656.197 681.455 578.009 689.506 512.932 635.613C445.819 580.014 418.035 520.688 381.372 398.94C357.811 320.714 326.762 202.294 267.926 47.0724" stroke="white" stroke-width="0.903173" stroke-miterlimit="10"/>
<path d="M1196.74 843.942C1123.84 741.963 1035.31 719.235 992.174 713.514C931.106 705.412 888.396 689.168 789.27 682.443C655.396 673.358 585.867 682.668 521.251 632.687C450.298 577.805 419.079 516.608 377.507 393.5C351.458 316.37 317.511 199.425 260.545 46.2768" stroke="white" stroke-width="0.903173" stroke-miterlimit="10"/>
<path d="M1188.01 864.508C1123.11 755.274 1036.41 726.12 996.159 717.73C934.898 704.959 890.256 687.642 788.392 678.003C654.548 665.352 593.659 675.943 529.552 629.757C454.653 575.79 420.207 512.47 373.616 388.072C345.122 311.993 308.235 196.559 253.132 45.5016" stroke="white" stroke-width="0.903173" stroke-miterlimit="10"/>
<path d="M1179.26 885.065C1122.4 768.591 1032.97 743.027 1000.14 721.948C946.44 687.467 892.079 686.199 787.507 673.564C653.656 657.399 601.429 669.356 537.865 626.83C458.909 574.016 421.448 508.24 369.741 382.638C338.845 307.58 298.975 193.69 245.728 44.7302" stroke="white" stroke-width="0.903173" stroke-miterlimit="10"/>
<path d="M1170.55 905.633C1121.69 781.912 1034.63 747.61 1004.15 726.175C950.73 688.607 893.899 684.844 786.653 669.137C652.714 649.532 609.199 662.913 546.178 623.901C463.076 572.483 422.773 503.944 365.868 377.198C332.602 303.111 289.716 190.812 238.338 43.9308" stroke="white" stroke-width="0.903173" stroke-miterlimit="10"/>
<path d="M1161.82 926.199C1120.98 795.226 1036.82 752.024 1008.15 730.396C954.631 690.025 895.667 683.561 785.778 664.716C651.73 641.712 616.987 656.587 554.485 620.99C467.149 571.249 424.175 499.576 361.986 371.784C326.381 298.624 280.447 187.955 230.931 43.1678" stroke="white" stroke-width="0.903173" stroke-miterlimit="10"/>
<path d="M1153.09 946.762C1120.26 808.543 1042.32 752.387 1012.14 734.616C952.693 699.632 897.388 682.343 784.91 660.277C650.687 633.931 624.818 650.376 562.798 618.055C471.167 570.293 425.667 495.084 358.111 366.334C320.188 294.052 271.185 185.075 223.537 42.3705" stroke="white" stroke-width="0.903173" stroke-miterlimit="10"/>
<path d="M1144.36 967.324C1119.54 821.859 1044.34 758.88 1016.14 738.841C958.17 697.642 899.074 681.197 784.047 655.843C649.598 626.198 632.716 644.295 571.114 615.129C475.123 569.683 427.208 490.539 354.239 360.91C314.016 289.455 261.927 182.214 216.137 41.5972" stroke="white" stroke-width="0.903173" stroke-miterlimit="10"/>
<path d="M1135.62 987.89C1118.82 835.175 1046.63 765.49 1020.14 743.062C964.097 695.595 900.711 680.112 783.179 651.404C648.448 618.493 640.697 638.322 579.426 612.197C479.059 569.388 428.818 485.881 350.362 355.472C307.848 284.812 252.67 179.336 208.741 40.8085" stroke="white" stroke-width="0.903173" stroke-miterlimit="10"/>
</g>
</svg>
