<svg width="98" height="97" viewBox="0 0 98 97" fill="none" xmlns="http://www.w3.org/2000/svg">
<g id="Group" opacity="0.5">
<g id="Group_2">
<g id="Vector">
<path d="M4.10391 8.20769C6.3704 8.20769 8.20766 6.37034 8.20766 4.10385C8.20766 1.83735 6.3704 0 4.10391 0C1.83742 0 0 1.83735 0 4.10385C0 6.37034 1.83742 8.20769 4.10391 8.20769Z" fill="#DADADA"/>
<path d="M4.10391 8.20769C6.3704 8.20769 8.20766 6.37034 8.20766 4.10385C8.20766 1.83735 6.3704 0 4.10391 0C1.83742 0 0 1.83735 0 4.10385C0 6.37034 1.83742 8.20769 4.10391 8.20769Z" fill="#DADADA"/>
<path d="M4.10391 8.20769C6.3704 8.20769 8.20766 6.37034 8.20766 4.10385C8.20766 1.83735 6.3704 0 4.10391 0C1.83742 0 0 1.83735 0 4.10385C0 6.37034 1.83742 8.20769 4.10391 8.20769Z" fill="#DADADA"/>
<path d="M4.10391 8.20769C6.3704 8.20769 8.20766 6.37034 8.20766 4.10385C8.20766 1.83735 6.3704 0 4.10391 0C1.83742 0 0 1.83735 0 4.10385C0 6.37034 1.83742 8.20769 4.10391 8.20769Z" fill="#DADADA"/>
<path d="M4.10391 8.20769C6.3704 8.20769 8.20766 6.37034 8.20766 4.10385C8.20766 1.83735 6.3704 0 4.10391 0C1.83742 0 0 1.83735 0 4.10385C0 6.37034 1.83742 8.20769 4.10391 8.20769Z" fill="#DADADA"/>
</g>
<g id="Vector_2">
<path d="M22.043 8.20769C24.3095 8.20769 26.1469 6.37034 26.1469 4.10385C26.1469 1.83735 24.3095 0 22.043 0C19.7765 0 17.9392 1.83735 17.9392 4.10385C17.9392 6.37034 19.7765 8.20769 22.043 8.20769Z" fill="#DADADA"/>
<path d="M22.043 8.20769C24.3095 8.20769 26.1469 6.37034 26.1469 4.10385C26.1469 1.83735 24.3095 0 22.043 0C19.7765 0 17.9392 1.83735 17.9392 4.10385C17.9392 6.37034 19.7765 8.20769 22.043 8.20769Z" fill="#DADADA"/>
<path d="M22.043 8.20769C24.3095 8.20769 26.1469 6.37034 26.1469 4.10385C26.1469 1.83735 24.3095 0 22.043 0C19.7765 0 17.9392 1.83735 17.9392 4.10385C17.9392 6.37034 19.7765 8.20769 22.043 8.20769Z" fill="#DADADA"/>
<path d="M22.043 8.20769C24.3095 8.20769 26.1469 6.37034 26.1469 4.10385C26.1469 1.83735 24.3095 0 22.043 0C19.7765 0 17.9392 1.83735 17.9392 4.10385C17.9392 6.37034 19.7765 8.20769 22.043 8.20769Z" fill="#DADADA"/>
<path d="M22.043 8.20769C24.3095 8.20769 26.1469 6.37034 26.1469 4.10385C26.1469 1.83735 24.3095 0 22.043 0C19.7765 0 17.9392 1.83735 17.9392 4.10385C17.9392 6.37034 19.7765 8.20769 22.043 8.20769Z" fill="#DADADA"/>
</g>
<g id="Vector_3">
<path d="M39.9813 8.20769C42.2478 8.20769 44.0851 6.37034 44.0851 4.10385C44.0851 1.83735 42.2478 0 39.9813 0C37.7149 0 35.8774 1.83735 35.8774 4.10385C35.8774 6.37034 37.7149 8.20769 39.9813 8.20769Z" fill="#DADADA"/>
<path d="M39.9813 8.20769C42.2478 8.20769 44.0851 6.37034 44.0851 4.10385C44.0851 1.83735 42.2478 0 39.9813 0C37.7149 0 35.8774 1.83735 35.8774 4.10385C35.8774 6.37034 37.7149 8.20769 39.9813 8.20769Z" fill="#DADADA"/>
<path d="M39.9813 8.20769C42.2478 8.20769 44.0851 6.37034 44.0851 4.10385C44.0851 1.83735 42.2478 0 39.9813 0C37.7149 0 35.8774 1.83735 35.8774 4.10385C35.8774 6.37034 37.7149 8.20769 39.9813 8.20769Z" fill="#DADADA"/>
<path d="M39.9813 8.20769C42.2478 8.20769 44.0851 6.37034 44.0851 4.10385C44.0851 1.83735 42.2478 0 39.9813 0C37.7149 0 35.8774 1.83735 35.8774 4.10385C35.8774 6.37034 37.7149 8.20769 39.9813 8.20769Z" fill="#DADADA"/>
<path d="M39.9813 8.20769C42.2478 8.20769 44.0851 6.37034 44.0851 4.10385C44.0851 1.83735 42.2478 0 39.9813 0C37.7149 0 35.8774 1.83735 35.8774 4.10385C35.8774 6.37034 37.7149 8.20769 39.9813 8.20769Z" fill="#DADADA"/>
</g>
<g id="Vector_4">
<path d="M57.9512 8.20769C60.2177 8.20769 62.0551 6.37034 62.0551 4.10385C62.0551 1.83735 60.2177 0 57.9512 0C55.6847 0 53.8474 1.83735 53.8474 4.10385C53.8474 6.37034 55.6847 8.20769 57.9512 8.20769Z" fill="#DADADA"/>
<path d="M57.9512 8.20769C60.2177 8.20769 62.0551 6.37034 62.0551 4.10385C62.0551 1.83735 60.2177 0 57.9512 0C55.6847 0 53.8474 1.83735 53.8474 4.10385C53.8474 6.37034 55.6847 8.20769 57.9512 8.20769Z" fill="#DADADA"/>
<path d="M57.9512 8.20769C60.2177 8.20769 62.0551 6.37034 62.0551 4.10385C62.0551 1.83735 60.2177 0 57.9512 0C55.6847 0 53.8474 1.83735 53.8474 4.10385C53.8474 6.37034 55.6847 8.20769 57.9512 8.20769Z" fill="#DADADA"/>
<path d="M57.9512 8.20769C60.2177 8.20769 62.0551 6.37034 62.0551 4.10385C62.0551 1.83735 60.2177 0 57.9512 0C55.6847 0 53.8474 1.83735 53.8474 4.10385C53.8474 6.37034 55.6847 8.20769 57.9512 8.20769Z" fill="#DADADA"/>
<path d="M57.9512 8.20769C60.2177 8.20769 62.0551 6.37034 62.0551 4.10385C62.0551 1.83735 60.2177 0 57.9512 0C55.6847 0 53.8474 1.83735 53.8474 4.10385C53.8474 6.37034 55.6847 8.20769 57.9512 8.20769Z" fill="#DADADA"/>
</g>
<g id="Vector_5">
<path d="M75.8904 8.20769C78.1569 8.20769 79.9942 6.37034 79.9942 4.10385C79.9942 1.83735 78.1569 0 75.8904 0C73.6239 0 71.7865 1.83735 71.7865 4.10385C71.7865 6.37034 73.6239 8.20769 75.8904 8.20769Z" fill="#DADADA"/>
<path d="M75.8904 8.20769C78.1569 8.20769 79.9942 6.37034 79.9942 4.10385C79.9942 1.83735 78.1569 0 75.8904 0C73.6239 0 71.7865 1.83735 71.7865 4.10385C71.7865 6.37034 73.6239 8.20769 75.8904 8.20769Z" fill="#DADADA"/>
<path d="M75.8904 8.20769C78.1569 8.20769 79.9942 6.37034 79.9942 4.10385C79.9942 1.83735 78.1569 0 75.8904 0C73.6239 0 71.7865 1.83735 71.7865 4.10385C71.7865 6.37034 73.6239 8.20769 75.8904 8.20769Z" fill="#DADADA"/>
<path d="M75.8904 8.20769C78.1569 8.20769 79.9942 6.37034 79.9942 4.10385C79.9942 1.83735 78.1569 0 75.8904 0C73.6239 0 71.7865 1.83735 71.7865 4.10385C71.7865 6.37034 73.6239 8.20769 75.8904 8.20769Z" fill="#DADADA"/>
<path d="M75.8904 8.20769C78.1569 8.20769 79.9942 6.37034 79.9942 4.10385C79.9942 1.83735 78.1569 0 75.8904 0C73.6239 0 71.7865 1.83735 71.7865 4.10385C71.7865 6.37034 73.6239 8.20769 75.8904 8.20769Z" fill="#DADADA"/>
</g>
<g id="Vector_6">
<path d="M93.8599 8.20769C96.1263 8.20769 97.9638 6.37034 97.9638 4.10385C97.9638 1.83735 96.1263 0 93.8599 0C91.5934 0 89.7561 1.83735 89.7561 4.10385C89.7561 6.37034 91.5934 8.20769 93.8599 8.20769Z" fill="#DADADA"/>
<path d="M93.8599 8.20769C96.1263 8.20769 97.9638 6.37034 97.9638 4.10385C97.9638 1.83735 96.1263 0 93.8599 0C91.5934 0 89.7561 1.83735 89.7561 4.10385C89.7561 6.37034 91.5934 8.20769 93.8599 8.20769Z" fill="#DADADA"/>
<path d="M93.8599 8.20769C96.1263 8.20769 97.9638 6.37034 97.9638 4.10385C97.9638 1.83735 96.1263 0 93.8599 0C91.5934 0 89.7561 1.83735 89.7561 4.10385C89.7561 6.37034 91.5934 8.20769 93.8599 8.20769Z" fill="#DADADA"/>
<path d="M93.8599 8.20769C96.1263 8.20769 97.9638 6.37034 97.9638 4.10385C97.9638 1.83735 96.1263 0 93.8599 0C91.5934 0 89.7561 1.83735 89.7561 4.10385C89.7561 6.37034 91.5934 8.20769 93.8599 8.20769Z" fill="#DADADA"/>
<path d="M93.8599 8.20769C96.1263 8.20769 97.9638 6.37034 97.9638 4.10385C97.9638 1.83735 96.1263 0 93.8599 0C91.5934 0 89.7561 1.83735 89.7561 4.10385C89.7561 6.37034 91.5934 8.20769 93.8599 8.20769Z" fill="#DADADA"/>
</g>
</g>
<g id="Group_3">
<g id="Vector_7">
<path d="M4.10391 23.0063C6.3704 23.0063 8.20766 21.1689 8.20766 18.9024C8.20766 16.6359 6.3704 14.7986 4.10391 14.7986C1.83742 14.7986 0 16.6359 0 18.9024C0 21.1689 1.83742 23.0063 4.10391 23.0063Z" fill="#DADADA"/>
<path d="M4.10391 23.0063C6.3704 23.0063 8.20766 21.1689 8.20766 18.9024C8.20766 16.6359 6.3704 14.7986 4.10391 14.7986C1.83742 14.7986 0 16.6359 0 18.9024C0 21.1689 1.83742 23.0063 4.10391 23.0063Z" fill="#DADADA"/>
<path d="M4.10391 23.0063C6.3704 23.0063 8.20766 21.1689 8.20766 18.9024C8.20766 16.6359 6.3704 14.7986 4.10391 14.7986C1.83742 14.7986 0 16.6359 0 18.9024C0 21.1689 1.83742 23.0063 4.10391 23.0063Z" fill="#DADADA"/>
<path d="M4.10391 23.0063C6.3704 23.0063 8.20766 21.1689 8.20766 18.9024C8.20766 16.6359 6.3704 14.7986 4.10391 14.7986C1.83742 14.7986 0 16.6359 0 18.9024C0 21.1689 1.83742 23.0063 4.10391 23.0063Z" fill="#DADADA"/>
<path d="M4.10391 23.0063C6.3704 23.0063 8.20766 21.1689 8.20766 18.9024C8.20766 16.6359 6.3704 14.7986 4.10391 14.7986C1.83742 14.7986 0 16.6359 0 18.9024C0 21.1689 1.83742 23.0063 4.10391 23.0063Z" fill="#DADADA"/>
</g>
<g id="Vector_8">
<path d="M22.043 23.006C24.3095 23.006 26.1469 21.1687 26.1469 18.9022C26.1469 16.6357 24.3095 14.7983 22.043 14.7983C19.7765 14.7983 17.9392 16.6357 17.9392 18.9022C17.9392 21.1687 19.7765 23.006 22.043 23.006Z" fill="#DADADA"/>
<path d="M22.043 23.006C24.3095 23.006 26.1469 21.1687 26.1469 18.9022C26.1469 16.6357 24.3095 14.7983 22.043 14.7983C19.7765 14.7983 17.9392 16.6357 17.9392 18.9022C17.9392 21.1687 19.7765 23.006 22.043 23.006Z" fill="#DADADA"/>
<path d="M22.043 23.006C24.3095 23.006 26.1469 21.1687 26.1469 18.9022C26.1469 16.6357 24.3095 14.7983 22.043 14.7983C19.7765 14.7983 17.9392 16.6357 17.9392 18.9022C17.9392 21.1687 19.7765 23.006 22.043 23.006Z" fill="#DADADA"/>
<path d="M22.043 23.006C24.3095 23.006 26.1469 21.1687 26.1469 18.9022C26.1469 16.6357 24.3095 14.7983 22.043 14.7983C19.7765 14.7983 17.9392 16.6357 17.9392 18.9022C17.9392 21.1687 19.7765 23.006 22.043 23.006Z" fill="#DADADA"/>
<path d="M22.043 23.006C24.3095 23.006 26.1469 21.1687 26.1469 18.9022C26.1469 16.6357 24.3095 14.7983 22.043 14.7983C19.7765 14.7983 17.9392 16.6357 17.9392 18.9022C17.9392 21.1687 19.7765 23.006 22.043 23.006Z" fill="#DADADA"/>
</g>
<g id="Vector_9">
<path d="M39.9813 23.006C42.2478 23.006 44.0851 21.1687 44.0851 18.9022C44.0851 16.6357 42.2478 14.7983 39.9813 14.7983C37.7149 14.7983 35.8774 16.6357 35.8774 18.9022C35.8774 21.1687 37.7149 23.006 39.9813 23.006Z" fill="#DADADA"/>
<path d="M39.9813 23.006C42.2478 23.006 44.0851 21.1687 44.0851 18.9022C44.0851 16.6357 42.2478 14.7983 39.9813 14.7983C37.7149 14.7983 35.8774 16.6357 35.8774 18.9022C35.8774 21.1687 37.7149 23.006 39.9813 23.006Z" fill="#DADADA"/>
<path d="M39.9813 23.006C42.2478 23.006 44.0851 21.1687 44.0851 18.9022C44.0851 16.6357 42.2478 14.7983 39.9813 14.7983C37.7149 14.7983 35.8774 16.6357 35.8774 18.9022C35.8774 21.1687 37.7149 23.006 39.9813 23.006Z" fill="#DADADA"/>
<path d="M39.9813 23.006C42.2478 23.006 44.0851 21.1687 44.0851 18.9022C44.0851 16.6357 42.2478 14.7983 39.9813 14.7983C37.7149 14.7983 35.8774 16.6357 35.8774 18.9022C35.8774 21.1687 37.7149 23.006 39.9813 23.006Z" fill="#DADADA"/>
<path d="M39.9813 23.006C42.2478 23.006 44.0851 21.1687 44.0851 18.9022C44.0851 16.6357 42.2478 14.7983 39.9813 14.7983C37.7149 14.7983 35.8774 16.6357 35.8774 18.9022C35.8774 21.1687 37.7149 23.006 39.9813 23.006Z" fill="#DADADA"/>
</g>
<g id="Vector_10">
<path d="M57.9512 23.006C60.2177 23.006 62.0551 21.1687 62.0551 18.9022C62.0551 16.6357 60.2177 14.7983 57.9512 14.7983C55.6847 14.7983 53.8474 16.6357 53.8474 18.9022C53.8474 21.1687 55.6847 23.006 57.9512 23.006Z" fill="#DADADA"/>
<path d="M57.9512 23.006C60.2177 23.006 62.0551 21.1687 62.0551 18.9022C62.0551 16.6357 60.2177 14.7983 57.9512 14.7983C55.6847 14.7983 53.8474 16.6357 53.8474 18.9022C53.8474 21.1687 55.6847 23.006 57.9512 23.006Z" fill="#DADADA"/>
<path d="M57.9512 23.006C60.2177 23.006 62.0551 21.1687 62.0551 18.9022C62.0551 16.6357 60.2177 14.7983 57.9512 14.7983C55.6847 14.7983 53.8474 16.6357 53.8474 18.9022C53.8474 21.1687 55.6847 23.006 57.9512 23.006Z" fill="#DADADA"/>
<path d="M57.9512 23.006C60.2177 23.006 62.0551 21.1687 62.0551 18.9022C62.0551 16.6357 60.2177 14.7983 57.9512 14.7983C55.6847 14.7983 53.8474 16.6357 53.8474 18.9022C53.8474 21.1687 55.6847 23.006 57.9512 23.006Z" fill="#DADADA"/>
<path d="M57.9512 23.006C60.2177 23.006 62.0551 21.1687 62.0551 18.9022C62.0551 16.6357 60.2177 14.7983 57.9512 14.7983C55.6847 14.7983 53.8474 16.6357 53.8474 18.9022C53.8474 21.1687 55.6847 23.006 57.9512 23.006Z" fill="#DADADA"/>
</g>
<g id="Vector_11">
<path d="M75.8904 23.006C78.1569 23.006 79.9942 21.1687 79.9942 18.9022C79.9942 16.6357 78.1569 14.7983 75.8904 14.7983C73.6239 14.7983 71.7865 16.6357 71.7865 18.9022C71.7865 21.1687 73.6239 23.006 75.8904 23.006Z" fill="#DADADA"/>
<path d="M75.8904 23.006C78.1569 23.006 79.9942 21.1687 79.9942 18.9022C79.9942 16.6357 78.1569 14.7983 75.8904 14.7983C73.6239 14.7983 71.7865 16.6357 71.7865 18.9022C71.7865 21.1687 73.6239 23.006 75.8904 23.006Z" fill="#DADADA"/>
<path d="M75.8904 23.006C78.1569 23.006 79.9942 21.1687 79.9942 18.9022C79.9942 16.6357 78.1569 14.7983 75.8904 14.7983C73.6239 14.7983 71.7865 16.6357 71.7865 18.9022C71.7865 21.1687 73.6239 23.006 75.8904 23.006Z" fill="#DADADA"/>
<path d="M75.8904 23.006C78.1569 23.006 79.9942 21.1687 79.9942 18.9022C79.9942 16.6357 78.1569 14.7983 75.8904 14.7983C73.6239 14.7983 71.7865 16.6357 71.7865 18.9022C71.7865 21.1687 73.6239 23.006 75.8904 23.006Z" fill="#DADADA"/>
<path d="M75.8904 23.006C78.1569 23.006 79.9942 21.1687 79.9942 18.9022C79.9942 16.6357 78.1569 14.7983 75.8904 14.7983C73.6239 14.7983 71.7865 16.6357 71.7865 18.9022C71.7865 21.1687 73.6239 23.006 75.8904 23.006Z" fill="#DADADA"/>
</g>
<g id="Vector_12">
<path d="M93.8599 23.006C96.1263 23.006 97.9638 21.1687 97.9638 18.9022C97.9638 16.6357 96.1263 14.7983 93.8599 14.7983C91.5934 14.7983 89.7561 16.6357 89.7561 18.9022C89.7561 21.1687 91.5934 23.006 93.8599 23.006Z" fill="#DADADA"/>
<path d="M93.8599 23.006C96.1263 23.006 97.9638 21.1687 97.9638 18.9022C97.9638 16.6357 96.1263 14.7983 93.8599 14.7983C91.5934 14.7983 89.7561 16.6357 89.7561 18.9022C89.7561 21.1687 91.5934 23.006 93.8599 23.006Z" fill="#DADADA"/>
<path d="M93.8599 23.006C96.1263 23.006 97.9638 21.1687 97.9638 18.9022C97.9638 16.6357 96.1263 14.7983 93.8599 14.7983C91.5934 14.7983 89.7561 16.6357 89.7561 18.9022C89.7561 21.1687 91.5934 23.006 93.8599 23.006Z" fill="#DADADA"/>
<path d="M93.8599 23.006C96.1263 23.006 97.9638 21.1687 97.9638 18.9022C97.9638 16.6357 96.1263 14.7983 93.8599 14.7983C91.5934 14.7983 89.7561 16.6357 89.7561 18.9022C89.7561 21.1687 91.5934 23.006 93.8599 23.006Z" fill="#DADADA"/>
<path d="M93.8599 23.006C96.1263 23.006 97.9638 21.1687 97.9638 18.9022C97.9638 16.6357 96.1263 14.7983 93.8599 14.7983C91.5934 14.7983 89.7561 16.6357 89.7561 18.9022C89.7561 21.1687 91.5934 23.006 93.8599 23.006Z" fill="#DADADA"/>
</g>
</g>
<g id="Group_4">
<g id="Vector_13">
<path d="M4.10391 37.8051C6.3704 37.8051 8.20766 35.9677 8.20766 33.7013C8.20766 31.4348 6.3704 29.5974 4.10391 29.5974C1.83742 29.5974 0 31.4348 0 33.7013C0 35.9677 1.83742 37.8051 4.10391 37.8051Z" fill="#DADADA"/>
<path d="M4.10391 37.8051C6.3704 37.8051 8.20766 35.9677 8.20766 33.7013C8.20766 31.4348 6.3704 29.5974 4.10391 29.5974C1.83742 29.5974 0 31.4348 0 33.7013C0 35.9677 1.83742 37.8051 4.10391 37.8051Z" fill="#DADADA"/>
<path d="M4.10391 37.8051C6.3704 37.8051 8.20766 35.9677 8.20766 33.7013C8.20766 31.4348 6.3704 29.5974 4.10391 29.5974C1.83742 29.5974 0 31.4348 0 33.7013C0 35.9677 1.83742 37.8051 4.10391 37.8051Z" fill="#DADADA"/>
<path d="M4.10391 37.8051C6.3704 37.8051 8.20766 35.9677 8.20766 33.7013C8.20766 31.4348 6.3704 29.5974 4.10391 29.5974C1.83742 29.5974 0 31.4348 0 33.7013C0 35.9677 1.83742 37.8051 4.10391 37.8051Z" fill="#DADADA"/>
<path d="M4.10391 37.8051C6.3704 37.8051 8.20766 35.9677 8.20766 33.7013C8.20766 31.4348 6.3704 29.5974 4.10391 29.5974C1.83742 29.5974 0 31.4348 0 33.7013C0 35.9677 1.83742 37.8051 4.10391 37.8051Z" fill="#DADADA"/>
</g>
<g id="Vector_14">
<path d="M22.043 37.8049C24.3095 37.8049 26.1469 35.9675 26.1469 33.701C26.1469 31.4345 24.3095 29.5972 22.043 29.5972C19.7765 29.5972 17.9392 31.4345 17.9392 33.701C17.9392 35.9675 19.7765 37.8049 22.043 37.8049Z" fill="#DADADA"/>
<path d="M22.043 37.8049C24.3095 37.8049 26.1469 35.9675 26.1469 33.701C26.1469 31.4345 24.3095 29.5972 22.043 29.5972C19.7765 29.5972 17.9392 31.4345 17.9392 33.701C17.9392 35.9675 19.7765 37.8049 22.043 37.8049Z" fill="#DADADA"/>
<path d="M22.043 37.8049C24.3095 37.8049 26.1469 35.9675 26.1469 33.701C26.1469 31.4345 24.3095 29.5972 22.043 29.5972C19.7765 29.5972 17.9392 31.4345 17.9392 33.701C17.9392 35.9675 19.7765 37.8049 22.043 37.8049Z" fill="#DADADA"/>
<path d="M22.043 37.8049C24.3095 37.8049 26.1469 35.9675 26.1469 33.701C26.1469 31.4345 24.3095 29.5972 22.043 29.5972C19.7765 29.5972 17.9392 31.4345 17.9392 33.701C17.9392 35.9675 19.7765 37.8049 22.043 37.8049Z" fill="#DADADA"/>
<path d="M22.043 37.8049C24.3095 37.8049 26.1469 35.9675 26.1469 33.701C26.1469 31.4345 24.3095 29.5972 22.043 29.5972C19.7765 29.5972 17.9392 31.4345 17.9392 33.701C17.9392 35.9675 19.7765 37.8049 22.043 37.8049Z" fill="#DADADA"/>
</g>
<g id="Vector_15">
<path d="M39.9813 37.8049C42.2478 37.8049 44.0851 35.9675 44.0851 33.701C44.0851 31.4345 42.2478 29.5972 39.9813 29.5972C37.7149 29.5972 35.8774 31.4345 35.8774 33.701C35.8774 35.9675 37.7149 37.8049 39.9813 37.8049Z" fill="#DADADA"/>
<path d="M39.9813 37.8049C42.2478 37.8049 44.0851 35.9675 44.0851 33.701C44.0851 31.4345 42.2478 29.5972 39.9813 29.5972C37.7149 29.5972 35.8774 31.4345 35.8774 33.701C35.8774 35.9675 37.7149 37.8049 39.9813 37.8049Z" fill="#DADADA"/>
<path d="M39.9813 37.8049C42.2478 37.8049 44.0851 35.9675 44.0851 33.701C44.0851 31.4345 42.2478 29.5972 39.9813 29.5972C37.7149 29.5972 35.8774 31.4345 35.8774 33.701C35.8774 35.9675 37.7149 37.8049 39.9813 37.8049Z" fill="#DADADA"/>
<path d="M39.9813 37.8049C42.2478 37.8049 44.0851 35.9675 44.0851 33.701C44.0851 31.4345 42.2478 29.5972 39.9813 29.5972C37.7149 29.5972 35.8774 31.4345 35.8774 33.701C35.8774 35.9675 37.7149 37.8049 39.9813 37.8049Z" fill="#DADADA"/>
<path d="M39.9813 37.8049C42.2478 37.8049 44.0851 35.9675 44.0851 33.701C44.0851 31.4345 42.2478 29.5972 39.9813 29.5972C37.7149 29.5972 35.8774 31.4345 35.8774 33.701C35.8774 35.9675 37.7149 37.8049 39.9813 37.8049Z" fill="#DADADA"/>
</g>
<g id="Vector_16">
<path d="M57.9512 37.8049C60.2177 37.8049 62.0551 35.9675 62.0551 33.701C62.0551 31.4345 60.2177 29.5972 57.9512 29.5972C55.6847 29.5972 53.8474 31.4345 53.8474 33.701C53.8474 35.9675 55.6847 37.8049 57.9512 37.8049Z" fill="#DADADA"/>
<path d="M57.9512 37.8049C60.2177 37.8049 62.0551 35.9675 62.0551 33.701C62.0551 31.4345 60.2177 29.5972 57.9512 29.5972C55.6847 29.5972 53.8474 31.4345 53.8474 33.701C53.8474 35.9675 55.6847 37.8049 57.9512 37.8049Z" fill="#DADADA"/>
<path d="M57.9512 37.8049C60.2177 37.8049 62.0551 35.9675 62.0551 33.701C62.0551 31.4345 60.2177 29.5972 57.9512 29.5972C55.6847 29.5972 53.8474 31.4345 53.8474 33.701C53.8474 35.9675 55.6847 37.8049 57.9512 37.8049Z" fill="#DADADA"/>
<path d="M57.9512 37.8049C60.2177 37.8049 62.0551 35.9675 62.0551 33.701C62.0551 31.4345 60.2177 29.5972 57.9512 29.5972C55.6847 29.5972 53.8474 31.4345 53.8474 33.701C53.8474 35.9675 55.6847 37.8049 57.9512 37.8049Z" fill="#DADADA"/>
<path d="M57.9512 37.8049C60.2177 37.8049 62.0551 35.9675 62.0551 33.701C62.0551 31.4345 60.2177 29.5972 57.9512 29.5972C55.6847 29.5972 53.8474 31.4345 53.8474 33.701C53.8474 35.9675 55.6847 37.8049 57.9512 37.8049Z" fill="#DADADA"/>
</g>
<g id="Vector_17">
<path d="M75.8904 37.8049C78.1569 37.8049 79.9942 35.9675 79.9942 33.701C79.9942 31.4345 78.1569 29.5972 75.8904 29.5972C73.6239 29.5972 71.7865 31.4345 71.7865 33.701C71.7865 35.9675 73.6239 37.8049 75.8904 37.8049Z" fill="#DADADA"/>
<path d="M75.8904 37.8049C78.1569 37.8049 79.9942 35.9675 79.9942 33.701C79.9942 31.4345 78.1569 29.5972 75.8904 29.5972C73.6239 29.5972 71.7865 31.4345 71.7865 33.701C71.7865 35.9675 73.6239 37.8049 75.8904 37.8049Z" fill="#DADADA"/>
<path d="M75.8904 37.8049C78.1569 37.8049 79.9942 35.9675 79.9942 33.701C79.9942 31.4345 78.1569 29.5972 75.8904 29.5972C73.6239 29.5972 71.7865 31.4345 71.7865 33.701C71.7865 35.9675 73.6239 37.8049 75.8904 37.8049Z" fill="#DADADA"/>
<path d="M75.8904 37.8049C78.1569 37.8049 79.9942 35.9675 79.9942 33.701C79.9942 31.4345 78.1569 29.5972 75.8904 29.5972C73.6239 29.5972 71.7865 31.4345 71.7865 33.701C71.7865 35.9675 73.6239 37.8049 75.8904 37.8049Z" fill="#DADADA"/>
<path d="M75.8904 37.8049C78.1569 37.8049 79.9942 35.9675 79.9942 33.701C79.9942 31.4345 78.1569 29.5972 75.8904 29.5972C73.6239 29.5972 71.7865 31.4345 71.7865 33.701C71.7865 35.9675 73.6239 37.8049 75.8904 37.8049Z" fill="#DADADA"/>
</g>
<g id="Vector_18">
<path d="M93.8599 37.8049C96.1263 37.8049 97.9638 35.9675 97.9638 33.701C97.9638 31.4345 96.1263 29.5972 93.8599 29.5972C91.5934 29.5972 89.7561 31.4345 89.7561 33.701C89.7561 35.9675 91.5934 37.8049 93.8599 37.8049Z" fill="#DADADA"/>
<path d="M93.8599 37.8049C96.1263 37.8049 97.9638 35.9675 97.9638 33.701C97.9638 31.4345 96.1263 29.5972 93.8599 29.5972C91.5934 29.5972 89.7561 31.4345 89.7561 33.701C89.7561 35.9675 91.5934 37.8049 93.8599 37.8049Z" fill="#DADADA"/>
<path d="M93.8599 37.8049C96.1263 37.8049 97.9638 35.9675 97.9638 33.701C97.9638 31.4345 96.1263 29.5972 93.8599 29.5972C91.5934 29.5972 89.7561 31.4345 89.7561 33.701C89.7561 35.9675 91.5934 37.8049 93.8599 37.8049Z" fill="#DADADA"/>
<path d="M93.8599 37.8049C96.1263 37.8049 97.9638 35.9675 97.9638 33.701C97.9638 31.4345 96.1263 29.5972 93.8599 29.5972C91.5934 29.5972 89.7561 31.4345 89.7561 33.701C89.7561 35.9675 91.5934 37.8049 93.8599 37.8049Z" fill="#DADADA"/>
<path d="M93.8599 37.8049C96.1263 37.8049 97.9638 35.9675 97.9638 33.701C97.9638 31.4345 96.1263 29.5972 93.8599 29.5972C91.5934 29.5972 89.7561 31.4345 89.7561 33.701C89.7561 35.9675 91.5934 37.8049 93.8599 37.8049Z" fill="#DADADA"/>
</g>
</g>
<g id="Group_5">
<g id="Vector_19">
<path d="M4.10391 52.6039C6.3704 52.6039 8.20766 50.7666 8.20766 48.5001C8.20766 46.2336 6.3704 44.3962 4.10391 44.3962C1.83742 44.3962 0 46.2336 0 48.5001C0 50.7666 1.83742 52.6039 4.10391 52.6039Z" fill="#DADADA"/>
<path d="M4.10391 52.6039C6.3704 52.6039 8.20766 50.7666 8.20766 48.5001C8.20766 46.2336 6.3704 44.3962 4.10391 44.3962C1.83742 44.3962 0 46.2336 0 48.5001C0 50.7666 1.83742 52.6039 4.10391 52.6039Z" fill="#DADADA"/>
<path d="M4.10391 52.6039C6.3704 52.6039 8.20766 50.7666 8.20766 48.5001C8.20766 46.2336 6.3704 44.3962 4.10391 44.3962C1.83742 44.3962 0 46.2336 0 48.5001C0 50.7666 1.83742 52.6039 4.10391 52.6039Z" fill="#DADADA"/>
<path d="M4.10391 52.6039C6.3704 52.6039 8.20766 50.7666 8.20766 48.5001C8.20766 46.2336 6.3704 44.3962 4.10391 44.3962C1.83742 44.3962 0 46.2336 0 48.5001C0 50.7666 1.83742 52.6039 4.10391 52.6039Z" fill="#DADADA"/>
<path d="M4.10391 52.6039C6.3704 52.6039 8.20766 50.7666 8.20766 48.5001C8.20766 46.2336 6.3704 44.3962 4.10391 44.3962C1.83742 44.3962 0 46.2336 0 48.5001C0 50.7666 1.83742 52.6039 4.10391 52.6039Z" fill="#DADADA"/>
</g>
<g id="Vector_20">
<path d="M22.043 52.6042C24.3095 52.6042 26.1469 50.7668 26.1469 48.5003C26.1469 46.2338 24.3095 44.3965 22.043 44.3965C19.7765 44.3965 17.9392 46.2338 17.9392 48.5003C17.9392 50.7668 19.7765 52.6042 22.043 52.6042Z" fill="#DADADA"/>
<path d="M22.043 52.6042C24.3095 52.6042 26.1469 50.7668 26.1469 48.5003C26.1469 46.2338 24.3095 44.3965 22.043 44.3965C19.7765 44.3965 17.9392 46.2338 17.9392 48.5003C17.9392 50.7668 19.7765 52.6042 22.043 52.6042Z" fill="#DADADA"/>
<path d="M22.043 52.6042C24.3095 52.6042 26.1469 50.7668 26.1469 48.5003C26.1469 46.2338 24.3095 44.3965 22.043 44.3965C19.7765 44.3965 17.9392 46.2338 17.9392 48.5003C17.9392 50.7668 19.7765 52.6042 22.043 52.6042Z" fill="#DADADA"/>
<path d="M22.043 52.6042C24.3095 52.6042 26.1469 50.7668 26.1469 48.5003C26.1469 46.2338 24.3095 44.3965 22.043 44.3965C19.7765 44.3965 17.9392 46.2338 17.9392 48.5003C17.9392 50.7668 19.7765 52.6042 22.043 52.6042Z" fill="#DADADA"/>
<path d="M22.043 52.6042C24.3095 52.6042 26.1469 50.7668 26.1469 48.5003C26.1469 46.2338 24.3095 44.3965 22.043 44.3965C19.7765 44.3965 17.9392 46.2338 17.9392 48.5003C17.9392 50.7668 19.7765 52.6042 22.043 52.6042Z" fill="#DADADA"/>
</g>
<g id="Vector_21">
<path d="M39.9813 52.6042C42.2478 52.6042 44.0851 50.7668 44.0851 48.5003C44.0851 46.2338 42.2478 44.3965 39.9813 44.3965C37.7149 44.3965 35.8774 46.2338 35.8774 48.5003C35.8774 50.7668 37.7149 52.6042 39.9813 52.6042Z" fill="#DADADA"/>
<path d="M39.9813 52.6042C42.2478 52.6042 44.0851 50.7668 44.0851 48.5003C44.0851 46.2338 42.2478 44.3965 39.9813 44.3965C37.7149 44.3965 35.8774 46.2338 35.8774 48.5003C35.8774 50.7668 37.7149 52.6042 39.9813 52.6042Z" fill="#DADADA"/>
<path d="M39.9813 52.6042C42.2478 52.6042 44.0851 50.7668 44.0851 48.5003C44.0851 46.2338 42.2478 44.3965 39.9813 44.3965C37.7149 44.3965 35.8774 46.2338 35.8774 48.5003C35.8774 50.7668 37.7149 52.6042 39.9813 52.6042Z" fill="#DADADA"/>
<path d="M39.9813 52.6042C42.2478 52.6042 44.0851 50.7668 44.0851 48.5003C44.0851 46.2338 42.2478 44.3965 39.9813 44.3965C37.7149 44.3965 35.8774 46.2338 35.8774 48.5003C35.8774 50.7668 37.7149 52.6042 39.9813 52.6042Z" fill="#DADADA"/>
<path d="M39.9813 52.6042C42.2478 52.6042 44.0851 50.7668 44.0851 48.5003C44.0851 46.2338 42.2478 44.3965 39.9813 44.3965C37.7149 44.3965 35.8774 46.2338 35.8774 48.5003C35.8774 50.7668 37.7149 52.6042 39.9813 52.6042Z" fill="#DADADA"/>
</g>
<g id="Vector_22">
<path d="M57.9512 52.6042C60.2177 52.6042 62.0551 50.7668 62.0551 48.5003C62.0551 46.2338 60.2177 44.3965 57.9512 44.3965C55.6847 44.3965 53.8474 46.2338 53.8474 48.5003C53.8474 50.7668 55.6847 52.6042 57.9512 52.6042Z" fill="#DADADA"/>
<path d="M57.9512 52.6042C60.2177 52.6042 62.0551 50.7668 62.0551 48.5003C62.0551 46.2338 60.2177 44.3965 57.9512 44.3965C55.6847 44.3965 53.8474 46.2338 53.8474 48.5003C53.8474 50.7668 55.6847 52.6042 57.9512 52.6042Z" fill="#DADADA"/>
<path d="M57.9512 52.6042C60.2177 52.6042 62.0551 50.7668 62.0551 48.5003C62.0551 46.2338 60.2177 44.3965 57.9512 44.3965C55.6847 44.3965 53.8474 46.2338 53.8474 48.5003C53.8474 50.7668 55.6847 52.6042 57.9512 52.6042Z" fill="#DADADA"/>
<path d="M57.9512 52.6042C60.2177 52.6042 62.0551 50.7668 62.0551 48.5003C62.0551 46.2338 60.2177 44.3965 57.9512 44.3965C55.6847 44.3965 53.8474 46.2338 53.8474 48.5003C53.8474 50.7668 55.6847 52.6042 57.9512 52.6042Z" fill="#DADADA"/>
<path d="M57.9512 52.6042C60.2177 52.6042 62.0551 50.7668 62.0551 48.5003C62.0551 46.2338 60.2177 44.3965 57.9512 44.3965C55.6847 44.3965 53.8474 46.2338 53.8474 48.5003C53.8474 50.7668 55.6847 52.6042 57.9512 52.6042Z" fill="#DADADA"/>
</g>
<g id="Vector_23">
<path d="M75.8904 52.6042C78.1569 52.6042 79.9942 50.7668 79.9942 48.5003C79.9942 46.2338 78.1569 44.3965 75.8904 44.3965C73.6239 44.3965 71.7865 46.2338 71.7865 48.5003C71.7865 50.7668 73.6239 52.6042 75.8904 52.6042Z" fill="#DADADA"/>
<path d="M75.8904 52.6042C78.1569 52.6042 79.9942 50.7668 79.9942 48.5003C79.9942 46.2338 78.1569 44.3965 75.8904 44.3965C73.6239 44.3965 71.7865 46.2338 71.7865 48.5003C71.7865 50.7668 73.6239 52.6042 75.8904 52.6042Z" fill="#DADADA"/>
<path d="M75.8904 52.6042C78.1569 52.6042 79.9942 50.7668 79.9942 48.5003C79.9942 46.2338 78.1569 44.3965 75.8904 44.3965C73.6239 44.3965 71.7865 46.2338 71.7865 48.5003C71.7865 50.7668 73.6239 52.6042 75.8904 52.6042Z" fill="#DADADA"/>
<path d="M75.8904 52.6042C78.1569 52.6042 79.9942 50.7668 79.9942 48.5003C79.9942 46.2338 78.1569 44.3965 75.8904 44.3965C73.6239 44.3965 71.7865 46.2338 71.7865 48.5003C71.7865 50.7668 73.6239 52.6042 75.8904 52.6042Z" fill="#DADADA"/>
<path d="M75.8904 52.6042C78.1569 52.6042 79.9942 50.7668 79.9942 48.5003C79.9942 46.2338 78.1569 44.3965 75.8904 44.3965C73.6239 44.3965 71.7865 46.2338 71.7865 48.5003C71.7865 50.7668 73.6239 52.6042 75.8904 52.6042Z" fill="#DADADA"/>
</g>
<g id="Vector_24">
<path d="M93.8599 52.6042C96.1263 52.6042 97.9638 50.7668 97.9638 48.5003C97.9638 46.2338 96.1263 44.3965 93.8599 44.3965C91.5934 44.3965 89.7561 46.2338 89.7561 48.5003C89.7561 50.7668 91.5934 52.6042 93.8599 52.6042Z" fill="#DADADA"/>
<path d="M93.8599 52.6042C96.1263 52.6042 97.9638 50.7668 97.9638 48.5003C97.9638 46.2338 96.1263 44.3965 93.8599 44.3965C91.5934 44.3965 89.7561 46.2338 89.7561 48.5003C89.7561 50.7668 91.5934 52.6042 93.8599 52.6042Z" fill="#DADADA"/>
<path d="M93.8599 52.6042C96.1263 52.6042 97.9638 50.7668 97.9638 48.5003C97.9638 46.2338 96.1263 44.3965 93.8599 44.3965C91.5934 44.3965 89.7561 46.2338 89.7561 48.5003C89.7561 50.7668 91.5934 52.6042 93.8599 52.6042Z" fill="#DADADA"/>
<path d="M93.8599 52.6042C96.1263 52.6042 97.9638 50.7668 97.9638 48.5003C97.9638 46.2338 96.1263 44.3965 93.8599 44.3965C91.5934 44.3965 89.7561 46.2338 89.7561 48.5003C89.7561 50.7668 91.5934 52.6042 93.8599 52.6042Z" fill="#DADADA"/>
<path d="M93.8599 52.6042C96.1263 52.6042 97.9638 50.7668 97.9638 48.5003C97.9638 46.2338 96.1263 44.3965 93.8599 44.3965C91.5934 44.3965 89.7561 46.2338 89.7561 48.5003C89.7561 50.7668 91.5934 52.6042 93.8599 52.6042Z" fill="#DADADA"/>
</g>
</g>
<g id="Group_6">
<g id="Vector_25">
<path d="M4.10391 67.4025C6.3704 67.4025 8.20766 65.5652 8.20766 63.2987C8.20766 61.0322 6.3704 59.1948 4.10391 59.1948C1.83742 59.1948 0 61.0322 0 63.2987C0 65.5652 1.83742 67.4025 4.10391 67.4025Z" fill="#DADADA"/>
<path d="M4.10391 67.4025C6.3704 67.4025 8.20766 65.5652 8.20766 63.2987C8.20766 61.0322 6.3704 59.1948 4.10391 59.1948C1.83742 59.1948 0 61.0322 0 63.2987C0 65.5652 1.83742 67.4025 4.10391 67.4025Z" fill="#DADADA"/>
<path d="M4.10391 67.4025C6.3704 67.4025 8.20766 65.5652 8.20766 63.2987C8.20766 61.0322 6.3704 59.1948 4.10391 59.1948C1.83742 59.1948 0 61.0322 0 63.2987C0 65.5652 1.83742 67.4025 4.10391 67.4025Z" fill="#DADADA"/>
<path d="M4.10391 67.4025C6.3704 67.4025 8.20766 65.5652 8.20766 63.2987C8.20766 61.0322 6.3704 59.1948 4.10391 59.1948C1.83742 59.1948 0 61.0322 0 63.2987C0 65.5652 1.83742 67.4025 4.10391 67.4025Z" fill="#DADADA"/>
<path d="M4.10391 67.4025C6.3704 67.4025 8.20766 65.5652 8.20766 63.2987C8.20766 61.0322 6.3704 59.1948 4.10391 59.1948C1.83742 59.1948 0 61.0322 0 63.2987C0 65.5652 1.83742 67.4025 4.10391 67.4025Z" fill="#DADADA"/>
</g>
<g id="Vector_26">
<path d="M22.043 67.4025C24.3095 67.4025 26.1469 65.5652 26.1469 63.2987C26.1469 61.0322 24.3095 59.1948 22.043 59.1948C19.7765 59.1948 17.9392 61.0322 17.9392 63.2987C17.9392 65.5652 19.7765 67.4025 22.043 67.4025Z" fill="#DADADA"/>
<path d="M22.043 67.4025C24.3095 67.4025 26.1469 65.5652 26.1469 63.2987C26.1469 61.0322 24.3095 59.1948 22.043 59.1948C19.7765 59.1948 17.9392 61.0322 17.9392 63.2987C17.9392 65.5652 19.7765 67.4025 22.043 67.4025Z" fill="#DADADA"/>
<path d="M22.043 67.4025C24.3095 67.4025 26.1469 65.5652 26.1469 63.2987C26.1469 61.0322 24.3095 59.1948 22.043 59.1948C19.7765 59.1948 17.9392 61.0322 17.9392 63.2987C17.9392 65.5652 19.7765 67.4025 22.043 67.4025Z" fill="#DADADA"/>
<path d="M22.043 67.4025C24.3095 67.4025 26.1469 65.5652 26.1469 63.2987C26.1469 61.0322 24.3095 59.1948 22.043 59.1948C19.7765 59.1948 17.9392 61.0322 17.9392 63.2987C17.9392 65.5652 19.7765 67.4025 22.043 67.4025Z" fill="#DADADA"/>
<path d="M22.043 67.4025C24.3095 67.4025 26.1469 65.5652 26.1469 63.2987C26.1469 61.0322 24.3095 59.1948 22.043 59.1948C19.7765 59.1948 17.9392 61.0322 17.9392 63.2987C17.9392 65.5652 19.7765 67.4025 22.043 67.4025Z" fill="#DADADA"/>
</g>
<g id="Vector_27">
<path d="M39.9813 67.4025C42.2478 67.4025 44.0851 65.5652 44.0851 63.2987C44.0851 61.0322 42.2478 59.1948 39.9813 59.1948C37.7149 59.1948 35.8774 61.0322 35.8774 63.2987C35.8774 65.5652 37.7149 67.4025 39.9813 67.4025Z" fill="#DADADA"/>
<path d="M39.9813 67.4025C42.2478 67.4025 44.0851 65.5652 44.0851 63.2987C44.0851 61.0322 42.2478 59.1948 39.9813 59.1948C37.7149 59.1948 35.8774 61.0322 35.8774 63.2987C35.8774 65.5652 37.7149 67.4025 39.9813 67.4025Z" fill="#DADADA"/>
<path d="M39.9813 67.4025C42.2478 67.4025 44.0851 65.5652 44.0851 63.2987C44.0851 61.0322 42.2478 59.1948 39.9813 59.1948C37.7149 59.1948 35.8774 61.0322 35.8774 63.2987C35.8774 65.5652 37.7149 67.4025 39.9813 67.4025Z" fill="#DADADA"/>
<path d="M39.9813 67.4025C42.2478 67.4025 44.0851 65.5652 44.0851 63.2987C44.0851 61.0322 42.2478 59.1948 39.9813 59.1948C37.7149 59.1948 35.8774 61.0322 35.8774 63.2987C35.8774 65.5652 37.7149 67.4025 39.9813 67.4025Z" fill="#DADADA"/>
<path d="M39.9813 67.4025C42.2478 67.4025 44.0851 65.5652 44.0851 63.2987C44.0851 61.0322 42.2478 59.1948 39.9813 59.1948C37.7149 59.1948 35.8774 61.0322 35.8774 63.2987C35.8774 65.5652 37.7149 67.4025 39.9813 67.4025Z" fill="#DADADA"/>
</g>
<g id="Vector_28">
<path d="M57.9512 67.4025C60.2177 67.4025 62.0551 65.5652 62.0551 63.2987C62.0551 61.0322 60.2177 59.1948 57.9512 59.1948C55.6847 59.1948 53.8474 61.0322 53.8474 63.2987C53.8474 65.5652 55.6847 67.4025 57.9512 67.4025Z" fill="#DADADA"/>
<path d="M57.9512 67.4025C60.2177 67.4025 62.0551 65.5652 62.0551 63.2987C62.0551 61.0322 60.2177 59.1948 57.9512 59.1948C55.6847 59.1948 53.8474 61.0322 53.8474 63.2987C53.8474 65.5652 55.6847 67.4025 57.9512 67.4025Z" fill="#DADADA"/>
<path d="M57.9512 67.4025C60.2177 67.4025 62.0551 65.5652 62.0551 63.2987C62.0551 61.0322 60.2177 59.1948 57.9512 59.1948C55.6847 59.1948 53.8474 61.0322 53.8474 63.2987C53.8474 65.5652 55.6847 67.4025 57.9512 67.4025Z" fill="#DADADA"/>
<path d="M57.9512 67.4025C60.2177 67.4025 62.0551 65.5652 62.0551 63.2987C62.0551 61.0322 60.2177 59.1948 57.9512 59.1948C55.6847 59.1948 53.8474 61.0322 53.8474 63.2987C53.8474 65.5652 55.6847 67.4025 57.9512 67.4025Z" fill="#DADADA"/>
<path d="M57.9512 67.4025C60.2177 67.4025 62.0551 65.5652 62.0551 63.2987C62.0551 61.0322 60.2177 59.1948 57.9512 59.1948C55.6847 59.1948 53.8474 61.0322 53.8474 63.2987C53.8474 65.5652 55.6847 67.4025 57.9512 67.4025Z" fill="#DADADA"/>
</g>
<g id="Vector_29">
<path d="M75.8904 67.4025C78.1569 67.4025 79.9942 65.5652 79.9942 63.2987C79.9942 61.0322 78.1569 59.1948 75.8904 59.1948C73.6239 59.1948 71.7865 61.0322 71.7865 63.2987C71.7865 65.5652 73.6239 67.4025 75.8904 67.4025Z" fill="#DADADA"/>
<path d="M75.8904 67.4025C78.1569 67.4025 79.9942 65.5652 79.9942 63.2987C79.9942 61.0322 78.1569 59.1948 75.8904 59.1948C73.6239 59.1948 71.7865 61.0322 71.7865 63.2987C71.7865 65.5652 73.6239 67.4025 75.8904 67.4025Z" fill="#DADADA"/>
<path d="M75.8904 67.4025C78.1569 67.4025 79.9942 65.5652 79.9942 63.2987C79.9942 61.0322 78.1569 59.1948 75.8904 59.1948C73.6239 59.1948 71.7865 61.0322 71.7865 63.2987C71.7865 65.5652 73.6239 67.4025 75.8904 67.4025Z" fill="#DADADA"/>
<path d="M75.8904 67.4025C78.1569 67.4025 79.9942 65.5652 79.9942 63.2987C79.9942 61.0322 78.1569 59.1948 75.8904 59.1948C73.6239 59.1948 71.7865 61.0322 71.7865 63.2987C71.7865 65.5652 73.6239 67.4025 75.8904 67.4025Z" fill="#DADADA"/>
<path d="M75.8904 67.4025C78.1569 67.4025 79.9942 65.5652 79.9942 63.2987C79.9942 61.0322 78.1569 59.1948 75.8904 59.1948C73.6239 59.1948 71.7865 61.0322 71.7865 63.2987C71.7865 65.5652 73.6239 67.4025 75.8904 67.4025Z" fill="#DADADA"/>
</g>
<g id="Vector_30">
<path d="M93.8599 67.4025C96.1263 67.4025 97.9638 65.5652 97.9638 63.2987C97.9638 61.0322 96.1263 59.1948 93.8599 59.1948C91.5934 59.1948 89.7561 61.0322 89.7561 63.2987C89.7561 65.5652 91.5934 67.4025 93.8599 67.4025Z" fill="#DADADA"/>
<path d="M93.8599 67.4025C96.1263 67.4025 97.9638 65.5652 97.9638 63.2987C97.9638 61.0322 96.1263 59.1948 93.8599 59.1948C91.5934 59.1948 89.7561 61.0322 89.7561 63.2987C89.7561 65.5652 91.5934 67.4025 93.8599 67.4025Z" fill="#DADADA"/>
<path d="M93.8599 67.4025C96.1263 67.4025 97.9638 65.5652 97.9638 63.2987C97.9638 61.0322 96.1263 59.1948 93.8599 59.1948C91.5934 59.1948 89.7561 61.0322 89.7561 63.2987C89.7561 65.5652 91.5934 67.4025 93.8599 67.4025Z" fill="#DADADA"/>
<path d="M93.8599 67.4025C96.1263 67.4025 97.9638 65.5652 97.9638 63.2987C97.9638 61.0322 96.1263 59.1948 93.8599 59.1948C91.5934 59.1948 89.7561 61.0322 89.7561 63.2987C89.7561 65.5652 91.5934 67.4025 93.8599 67.4025Z" fill="#DADADA"/>
<path d="M93.8599 67.4025C96.1263 67.4025 97.9638 65.5652 97.9638 63.2987C97.9638 61.0322 96.1263 59.1948 93.8599 59.1948C91.5934 59.1948 89.7561 61.0322 89.7561 63.2987C89.7561 65.5652 91.5934 67.4025 93.8599 67.4025Z" fill="#DADADA"/>
</g>
</g>
<g id="Group_7">
<g id="Vector_31">
<path d="M4.10391 82.2011C6.3704 82.2011 8.20766 80.3637 8.20766 78.0973C8.20766 75.8308 6.3704 73.9934 4.10391 73.9934C1.83742 73.9934 0 75.8308 0 78.0973C0 80.3637 1.83742 82.2011 4.10391 82.2011Z" fill="#DADADA"/>
<path d="M4.10391 82.2011C6.3704 82.2011 8.20766 80.3637 8.20766 78.0973C8.20766 75.8308 6.3704 73.9934 4.10391 73.9934C1.83742 73.9934 0 75.8308 0 78.0973C0 80.3637 1.83742 82.2011 4.10391 82.2011Z" fill="#DADADA"/>
<path d="M4.10391 82.2011C6.3704 82.2011 8.20766 80.3637 8.20766 78.0973C8.20766 75.8308 6.3704 73.9934 4.10391 73.9934C1.83742 73.9934 0 75.8308 0 78.0973C0 80.3637 1.83742 82.2011 4.10391 82.2011Z" fill="#DADADA"/>
<path d="M4.10391 82.2011C6.3704 82.2011 8.20766 80.3637 8.20766 78.0973C8.20766 75.8308 6.3704 73.9934 4.10391 73.9934C1.83742 73.9934 0 75.8308 0 78.0973C0 80.3637 1.83742 82.2011 4.10391 82.2011Z" fill="#DADADA"/>
<path d="M4.10391 82.2011C6.3704 82.2011 8.20766 80.3637 8.20766 78.0973C8.20766 75.8308 6.3704 73.9934 4.10391 73.9934C1.83742 73.9934 0 75.8308 0 78.0973C0 80.3637 1.83742 82.2011 4.10391 82.2011Z" fill="#DADADA"/>
</g>
<g id="Vector_32">
<path d="M22.043 82.2009C24.3095 82.2009 26.1469 80.3635 26.1469 78.097C26.1469 75.8305 24.3095 73.9932 22.043 73.9932C19.7765 73.9932 17.9392 75.8305 17.9392 78.097C17.9392 80.3635 19.7765 82.2009 22.043 82.2009Z" fill="#DADADA"/>
<path d="M22.043 82.2009C24.3095 82.2009 26.1469 80.3635 26.1469 78.097C26.1469 75.8305 24.3095 73.9932 22.043 73.9932C19.7765 73.9932 17.9392 75.8305 17.9392 78.097C17.9392 80.3635 19.7765 82.2009 22.043 82.2009Z" fill="#DADADA"/>
<path d="M22.043 82.2009C24.3095 82.2009 26.1469 80.3635 26.1469 78.097C26.1469 75.8305 24.3095 73.9932 22.043 73.9932C19.7765 73.9932 17.9392 75.8305 17.9392 78.097C17.9392 80.3635 19.7765 82.2009 22.043 82.2009Z" fill="#DADADA"/>
<path d="M22.043 82.2009C24.3095 82.2009 26.1469 80.3635 26.1469 78.097C26.1469 75.8305 24.3095 73.9932 22.043 73.9932C19.7765 73.9932 17.9392 75.8305 17.9392 78.097C17.9392 80.3635 19.7765 82.2009 22.043 82.2009Z" fill="#DADADA"/>
<path d="M22.043 82.2009C24.3095 82.2009 26.1469 80.3635 26.1469 78.097C26.1469 75.8305 24.3095 73.9932 22.043 73.9932C19.7765 73.9932 17.9392 75.8305 17.9392 78.097C17.9392 80.3635 19.7765 82.2009 22.043 82.2009Z" fill="#DADADA"/>
</g>
<g id="Vector_33">
<path d="M39.9813 82.2009C42.2478 82.2009 44.0851 80.3635 44.0851 78.097C44.0851 75.8305 42.2478 73.9932 39.9813 73.9932C37.7149 73.9932 35.8774 75.8305 35.8774 78.097C35.8774 80.3635 37.7149 82.2009 39.9813 82.2009Z" fill="#DADADA"/>
<path d="M39.9813 82.2009C42.2478 82.2009 44.0851 80.3635 44.0851 78.097C44.0851 75.8305 42.2478 73.9932 39.9813 73.9932C37.7149 73.9932 35.8774 75.8305 35.8774 78.097C35.8774 80.3635 37.7149 82.2009 39.9813 82.2009Z" fill="#DADADA"/>
<path d="M39.9813 82.2009C42.2478 82.2009 44.0851 80.3635 44.0851 78.097C44.0851 75.8305 42.2478 73.9932 39.9813 73.9932C37.7149 73.9932 35.8774 75.8305 35.8774 78.097C35.8774 80.3635 37.7149 82.2009 39.9813 82.2009Z" fill="#DADADA"/>
<path d="M39.9813 82.2009C42.2478 82.2009 44.0851 80.3635 44.0851 78.097C44.0851 75.8305 42.2478 73.9932 39.9813 73.9932C37.7149 73.9932 35.8774 75.8305 35.8774 78.097C35.8774 80.3635 37.7149 82.2009 39.9813 82.2009Z" fill="#DADADA"/>
<path d="M39.9813 82.2009C42.2478 82.2009 44.0851 80.3635 44.0851 78.097C44.0851 75.8305 42.2478 73.9932 39.9813 73.9932C37.7149 73.9932 35.8774 75.8305 35.8774 78.097C35.8774 80.3635 37.7149 82.2009 39.9813 82.2009Z" fill="#DADADA"/>
</g>
<g id="Vector_34">
<path d="M57.9512 82.2009C60.2177 82.2009 62.0551 80.3635 62.0551 78.097C62.0551 75.8305 60.2177 73.9932 57.9512 73.9932C55.6847 73.9932 53.8474 75.8305 53.8474 78.097C53.8474 80.3635 55.6847 82.2009 57.9512 82.2009Z" fill="#DADADA"/>
<path d="M57.9512 82.2009C60.2177 82.2009 62.0551 80.3635 62.0551 78.097C62.0551 75.8305 60.2177 73.9932 57.9512 73.9932C55.6847 73.9932 53.8474 75.8305 53.8474 78.097C53.8474 80.3635 55.6847 82.2009 57.9512 82.2009Z" fill="#DADADA"/>
<path d="M57.9512 82.2009C60.2177 82.2009 62.0551 80.3635 62.0551 78.097C62.0551 75.8305 60.2177 73.9932 57.9512 73.9932C55.6847 73.9932 53.8474 75.8305 53.8474 78.097C53.8474 80.3635 55.6847 82.2009 57.9512 82.2009Z" fill="#DADADA"/>
<path d="M57.9512 82.2009C60.2177 82.2009 62.0551 80.3635 62.0551 78.097C62.0551 75.8305 60.2177 73.9932 57.9512 73.9932C55.6847 73.9932 53.8474 75.8305 53.8474 78.097C53.8474 80.3635 55.6847 82.2009 57.9512 82.2009Z" fill="#DADADA"/>
<path d="M57.9512 82.2009C60.2177 82.2009 62.0551 80.3635 62.0551 78.097C62.0551 75.8305 60.2177 73.9932 57.9512 73.9932C55.6847 73.9932 53.8474 75.8305 53.8474 78.097C53.8474 80.3635 55.6847 82.2009 57.9512 82.2009Z" fill="#DADADA"/>
</g>
<g id="Vector_35">
<path d="M75.8904 82.2009C78.1569 82.2009 79.9942 80.3635 79.9942 78.097C79.9942 75.8305 78.1569 73.9932 75.8904 73.9932C73.6239 73.9932 71.7865 75.8305 71.7865 78.097C71.7865 80.3635 73.6239 82.2009 75.8904 82.2009Z" fill="#DADADA"/>
<path d="M75.8904 82.2009C78.1569 82.2009 79.9942 80.3635 79.9942 78.097C79.9942 75.8305 78.1569 73.9932 75.8904 73.9932C73.6239 73.9932 71.7865 75.8305 71.7865 78.097C71.7865 80.3635 73.6239 82.2009 75.8904 82.2009Z" fill="#DADADA"/>
<path d="M75.8904 82.2009C78.1569 82.2009 79.9942 80.3635 79.9942 78.097C79.9942 75.8305 78.1569 73.9932 75.8904 73.9932C73.6239 73.9932 71.7865 75.8305 71.7865 78.097C71.7865 80.3635 73.6239 82.2009 75.8904 82.2009Z" fill="#DADADA"/>
<path d="M75.8904 82.2009C78.1569 82.2009 79.9942 80.3635 79.9942 78.097C79.9942 75.8305 78.1569 73.9932 75.8904 73.9932C73.6239 73.9932 71.7865 75.8305 71.7865 78.097C71.7865 80.3635 73.6239 82.2009 75.8904 82.2009Z" fill="#DADADA"/>
<path d="M75.8904 82.2009C78.1569 82.2009 79.9942 80.3635 79.9942 78.097C79.9942 75.8305 78.1569 73.9932 75.8904 73.9932C73.6239 73.9932 71.7865 75.8305 71.7865 78.097C71.7865 80.3635 73.6239 82.2009 75.8904 82.2009Z" fill="#DADADA"/>
</g>
<g id="Vector_36">
<path d="M93.8599 82.2009C96.1263 82.2009 97.9638 80.3635 97.9638 78.097C97.9638 75.8305 96.1263 73.9932 93.8599 73.9932C91.5934 73.9932 89.7561 75.8305 89.7561 78.097C89.7561 80.3635 91.5934 82.2009 93.8599 82.2009Z" fill="#DADADA"/>
<path d="M93.8599 82.2009C96.1263 82.2009 97.9638 80.3635 97.9638 78.097C97.9638 75.8305 96.1263 73.9932 93.8599 73.9932C91.5934 73.9932 89.7561 75.8305 89.7561 78.097C89.7561 80.3635 91.5934 82.2009 93.8599 82.2009Z" fill="#DADADA"/>
<path d="M93.8599 82.2009C96.1263 82.2009 97.9638 80.3635 97.9638 78.097C97.9638 75.8305 96.1263 73.9932 93.8599 73.9932C91.5934 73.9932 89.7561 75.8305 89.7561 78.097C89.7561 80.3635 91.5934 82.2009 93.8599 82.2009Z" fill="#DADADA"/>
<path d="M93.8599 82.2009C96.1263 82.2009 97.9638 80.3635 97.9638 78.097C97.9638 75.8305 96.1263 73.9932 93.8599 73.9932C91.5934 73.9932 89.7561 75.8305 89.7561 78.097C89.7561 80.3635 91.5934 82.2009 93.8599 82.2009Z" fill="#DADADA"/>
<path d="M93.8599 82.2009C96.1263 82.2009 97.9638 80.3635 97.9638 78.097C97.9638 75.8305 96.1263 73.9932 93.8599 73.9932C91.5934 73.9932 89.7561 75.8305 89.7561 78.097C89.7561 80.3635 91.5934 82.2009 93.8599 82.2009Z" fill="#DADADA"/>
</g>
</g>
<g id="Group_8">
<g id="Vector_37">
<path d="M4.10391 97.0002C6.3704 97.0002 8.20766 95.1628 8.20766 92.8963C8.20766 90.6298 6.3704 88.7925 4.10391 88.7925C1.83742 88.7925 0 90.6298 0 92.8963C0 95.1628 1.83742 97.0002 4.10391 97.0002Z" fill="#DADADA"/>
<path d="M4.10391 97.0002C6.3704 97.0002 8.20766 95.1628 8.20766 92.8963C8.20766 90.6298 6.3704 88.7925 4.10391 88.7925C1.83742 88.7925 0 90.6298 0 92.8963C0 95.1628 1.83742 97.0002 4.10391 97.0002Z" fill="#DADADA"/>
<path d="M4.10391 97.0002C6.3704 97.0002 8.20766 95.1628 8.20766 92.8963C8.20766 90.6298 6.3704 88.7925 4.10391 88.7925C1.83742 88.7925 0 90.6298 0 92.8963C0 95.1628 1.83742 97.0002 4.10391 97.0002Z" fill="#DADADA"/>
<path d="M4.10391 97.0002C6.3704 97.0002 8.20766 95.1628 8.20766 92.8963C8.20766 90.6298 6.3704 88.7925 4.10391 88.7925C1.83742 88.7925 0 90.6298 0 92.8963C0 95.1628 1.83742 97.0002 4.10391 97.0002Z" fill="#DADADA"/>
<path d="M4.10391 97.0002C6.3704 97.0002 8.20766 95.1628 8.20766 92.8963C8.20766 90.6298 6.3704 88.7925 4.10391 88.7925C1.83742 88.7925 0 90.6298 0 92.8963C0 95.1628 1.83742 97.0002 4.10391 97.0002Z" fill="#DADADA"/>
</g>
<g id="Vector_38">
<path d="M22.043 97.0002C24.3095 97.0002 26.1469 95.1628 26.1469 92.8963C26.1469 90.6298 24.3095 88.7925 22.043 88.7925C19.7765 88.7925 17.9392 90.6298 17.9392 92.8963C17.9392 95.1628 19.7765 97.0002 22.043 97.0002Z" fill="#DADADA"/>
<path d="M22.043 97.0002C24.3095 97.0002 26.1469 95.1628 26.1469 92.8963C26.1469 90.6298 24.3095 88.7925 22.043 88.7925C19.7765 88.7925 17.9392 90.6298 17.9392 92.8963C17.9392 95.1628 19.7765 97.0002 22.043 97.0002Z" fill="#DADADA"/>
<path d="M22.043 97.0002C24.3095 97.0002 26.1469 95.1628 26.1469 92.8963C26.1469 90.6298 24.3095 88.7925 22.043 88.7925C19.7765 88.7925 17.9392 90.6298 17.9392 92.8963C17.9392 95.1628 19.7765 97.0002 22.043 97.0002Z" fill="#DADADA"/>
<path d="M22.043 97.0002C24.3095 97.0002 26.1469 95.1628 26.1469 92.8963C26.1469 90.6298 24.3095 88.7925 22.043 88.7925C19.7765 88.7925 17.9392 90.6298 17.9392 92.8963C17.9392 95.1628 19.7765 97.0002 22.043 97.0002Z" fill="#DADADA"/>
<path d="M22.043 97.0002C24.3095 97.0002 26.1469 95.1628 26.1469 92.8963C26.1469 90.6298 24.3095 88.7925 22.043 88.7925C19.7765 88.7925 17.9392 90.6298 17.9392 92.8963C17.9392 95.1628 19.7765 97.0002 22.043 97.0002Z" fill="#DADADA"/>
</g>
<g id="Vector_39">
<path d="M39.9813 97.0002C42.2478 97.0002 44.0851 95.1628 44.0851 92.8963C44.0851 90.6298 42.2478 88.7925 39.9813 88.7925C37.7149 88.7925 35.8774 90.6298 35.8774 92.8963C35.8774 95.1628 37.7149 97.0002 39.9813 97.0002Z" fill="#DADADA"/>
<path d="M39.9813 97.0002C42.2478 97.0002 44.0851 95.1628 44.0851 92.8963C44.0851 90.6298 42.2478 88.7925 39.9813 88.7925C37.7149 88.7925 35.8774 90.6298 35.8774 92.8963C35.8774 95.1628 37.7149 97.0002 39.9813 97.0002Z" fill="#DADADA"/>
<path d="M39.9813 97.0002C42.2478 97.0002 44.0851 95.1628 44.0851 92.8963C44.0851 90.6298 42.2478 88.7925 39.9813 88.7925C37.7149 88.7925 35.8774 90.6298 35.8774 92.8963C35.8774 95.1628 37.7149 97.0002 39.9813 97.0002Z" fill="#DADADA"/>
<path d="M39.9813 97.0002C42.2478 97.0002 44.0851 95.1628 44.0851 92.8963C44.0851 90.6298 42.2478 88.7925 39.9813 88.7925C37.7149 88.7925 35.8774 90.6298 35.8774 92.8963C35.8774 95.1628 37.7149 97.0002 39.9813 97.0002Z" fill="#DADADA"/>
<path d="M39.9813 97.0002C42.2478 97.0002 44.0851 95.1628 44.0851 92.8963C44.0851 90.6298 42.2478 88.7925 39.9813 88.7925C37.7149 88.7925 35.8774 90.6298 35.8774 92.8963C35.8774 95.1628 37.7149 97.0002 39.9813 97.0002Z" fill="#DADADA"/>
</g>
<g id="Vector_40">
<path d="M57.9512 97.0002C60.2177 97.0002 62.0551 95.1628 62.0551 92.8963C62.0551 90.6298 60.2177 88.7925 57.9512 88.7925C55.6847 88.7925 53.8474 90.6298 53.8474 92.8963C53.8474 95.1628 55.6847 97.0002 57.9512 97.0002Z" fill="#DADADA"/>
<path d="M57.9512 97.0002C60.2177 97.0002 62.0551 95.1628 62.0551 92.8963C62.0551 90.6298 60.2177 88.7925 57.9512 88.7925C55.6847 88.7925 53.8474 90.6298 53.8474 92.8963C53.8474 95.1628 55.6847 97.0002 57.9512 97.0002Z" fill="#DADADA"/>
<path d="M57.9512 97.0002C60.2177 97.0002 62.0551 95.1628 62.0551 92.8963C62.0551 90.6298 60.2177 88.7925 57.9512 88.7925C55.6847 88.7925 53.8474 90.6298 53.8474 92.8963C53.8474 95.1628 55.6847 97.0002 57.9512 97.0002Z" fill="#DADADA"/>
<path d="M57.9512 97.0002C60.2177 97.0002 62.0551 95.1628 62.0551 92.8963C62.0551 90.6298 60.2177 88.7925 57.9512 88.7925C55.6847 88.7925 53.8474 90.6298 53.8474 92.8963C53.8474 95.1628 55.6847 97.0002 57.9512 97.0002Z" fill="#DADADA"/>
<path d="M57.9512 97.0002C60.2177 97.0002 62.0551 95.1628 62.0551 92.8963C62.0551 90.6298 60.2177 88.7925 57.9512 88.7925C55.6847 88.7925 53.8474 90.6298 53.8474 92.8963C53.8474 95.1628 55.6847 97.0002 57.9512 97.0002Z" fill="#DADADA"/>
</g>
<g id="Vector_41">
<path d="M75.8904 97.0002C78.1569 97.0002 79.9942 95.1628 79.9942 92.8963C79.9942 90.6298 78.1569 88.7925 75.8904 88.7925C73.6239 88.7925 71.7865 90.6298 71.7865 92.8963C71.7865 95.1628 73.6239 97.0002 75.8904 97.0002Z" fill="#DADADA"/>
<path d="M75.8904 97.0002C78.1569 97.0002 79.9942 95.1628 79.9942 92.8963C79.9942 90.6298 78.1569 88.7925 75.8904 88.7925C73.6239 88.7925 71.7865 90.6298 71.7865 92.8963C71.7865 95.1628 73.6239 97.0002 75.8904 97.0002Z" fill="#DADADA"/>
<path d="M75.8904 97.0002C78.1569 97.0002 79.9942 95.1628 79.9942 92.8963C79.9942 90.6298 78.1569 88.7925 75.8904 88.7925C73.6239 88.7925 71.7865 90.6298 71.7865 92.8963C71.7865 95.1628 73.6239 97.0002 75.8904 97.0002Z" fill="#DADADA"/>
<path d="M75.8904 97.0002C78.1569 97.0002 79.9942 95.1628 79.9942 92.8963C79.9942 90.6298 78.1569 88.7925 75.8904 88.7925C73.6239 88.7925 71.7865 90.6298 71.7865 92.8963C71.7865 95.1628 73.6239 97.0002 75.8904 97.0002Z" fill="#DADADA"/>
<path d="M75.8904 97.0002C78.1569 97.0002 79.9942 95.1628 79.9942 92.8963C79.9942 90.6298 78.1569 88.7925 75.8904 88.7925C73.6239 88.7925 71.7865 90.6298 71.7865 92.8963C71.7865 95.1628 73.6239 97.0002 75.8904 97.0002Z" fill="#DADADA"/>
</g>
<g id="Vector_42">
<path d="M93.8599 97.0002C96.1263 97.0002 97.9638 95.1628 97.9638 92.8963C97.9638 90.6298 96.1263 88.7925 93.8599 88.7925C91.5934 88.7925 89.7561 90.6298 89.7561 92.8963C89.7561 95.1628 91.5934 97.0002 93.8599 97.0002Z" fill="#DADADA"/>
<path d="M93.8599 97.0002C96.1263 97.0002 97.9638 95.1628 97.9638 92.8963C97.9638 90.6298 96.1263 88.7925 93.8599 88.7925C91.5934 88.7925 89.7561 90.6298 89.7561 92.8963C89.7561 95.1628 91.5934 97.0002 93.8599 97.0002Z" fill="#DADADA"/>
<path d="M93.8599 97.0002C96.1263 97.0002 97.9638 95.1628 97.9638 92.8963C97.9638 90.6298 96.1263 88.7925 93.8599 88.7925C91.5934 88.7925 89.7561 90.6298 89.7561 92.8963C89.7561 95.1628 91.5934 97.0002 93.8599 97.0002Z" fill="#DADADA"/>
<path d="M93.8599 97.0002C96.1263 97.0002 97.9638 95.1628 97.9638 92.8963C97.9638 90.6298 96.1263 88.7925 93.8599 88.7925C91.5934 88.7925 89.7561 90.6298 89.7561 92.8963C89.7561 95.1628 91.5934 97.0002 93.8599 97.0002Z" fill="#DADADA"/>
<path d="M93.8599 97.0002C96.1263 97.0002 97.9638 95.1628 97.9638 92.8963C97.9638 90.6298 96.1263 88.7925 93.8599 88.7925C91.5934 88.7925 89.7561 90.6298 89.7561 92.8963C89.7561 95.1628 91.5934 97.0002 93.8599 97.0002Z" fill="#DADADA"/>
</g>
</g>
</g>
</svg>
