<svg width="1166" height="1153" viewBox="0 0 1166 1153" fill="none" xmlns="http://www.w3.org/2000/svg">
<path opacity="0.1" d="M1166 576.5C1166 423.603 1104.58 276.968 995.243 168.853C885.91 60.7382 737.621 1.15434e-05 583 0C428.379 -1.15434e-05 280.091 60.7382 170.757 168.853C61.4231 276.968 2.33472e-05 423.603 0 576.5H1.02893C1.02895 423.872 62.3436 277.496 171.484 169.572C280.625 61.6484 428.652 1.01744 583 1.01746C737.348 1.01747 885.375 61.6485 994.516 169.572C1103.66 277.496 1164.97 423.873 1164.97 576.5H1166Z" fill="#D9D9D9"/>
<path opacity="0.1" d="M1039 576C1039 453.205 989.798 335.439 902.219 248.61C814.639 161.78 695.856 113 572 113C448.144 113 329.361 161.78 241.781 248.61C154.202 335.439 105 453.205 105 576H105.824C105.824 453.421 154.939 335.863 242.364 249.187C329.789 162.511 448.363 113.817 572 113.817C695.638 113.817 814.211 162.511 901.636 249.187C989.061 335.863 1038.18 453.421 1038.18 576H1039Z" fill="#D9D9D9"/>
<path opacity="0.1" d="M944 576C944 480.787 905.861 389.474 837.973 322.149C770.084 254.823 678.008 217 582 217C485.992 217 393.916 254.823 326.027 322.149C258.139 389.474 220 480.787 220 576H220.639C220.639 480.955 258.711 389.803 326.479 322.597C394.247 255.39 486.161 217.634 582 217.634C677.839 217.634 769.753 255.39 837.521 322.597C905.289 389.803 943.361 480.955 943.361 576H944Z" fill="#D9D9D9"/>
<path opacity="0.1" d="M812 576C812 515.531 787.768 457.538 744.635 414.78C701.501 372.021 643 348 582 348C521 348 462.499 372.021 419.365 414.78C376.232 457.538 352 515.531 352 576H352.406C352.406 515.637 376.595 457.747 419.652 415.064C462.71 372.381 521.108 348.402 582 348.402C642.892 348.402 701.29 372.381 744.348 415.064C787.405 457.747 811.594 515.637 811.594 576H812Z" fill="#D9D9D9"/>
<path opacity="0.1" d="M708 576C708 542.848 694.725 511.054 671.095 487.612C647.466 464.17 615.417 451 582 451C548.583 451 516.534 464.17 492.905 487.612C469.275 511.054 456 542.848 456 576H456.222C456.222 542.906 469.474 511.168 493.062 487.768C516.65 464.367 548.642 451.221 582 451.221C615.358 451.221 647.35 464.367 670.938 487.768C694.526 511.168 707.778 542.906 707.778 576H708Z" fill="#D9D9D9"/>
<path opacity="0.1" d="M642 576C642 560.087 635.679 544.826 624.426 533.574C613.174 522.321 597.913 516 582 516C566.087 516 550.826 522.321 539.574 533.574C528.321 544.826 522 560.087 522 576H522.106C522.106 560.115 528.416 544.881 539.648 533.648C550.881 522.416 566.115 516.106 582 516.106C597.885 516.106 613.119 522.416 624.352 533.648C635.584 544.881 641.894 560.115 641.894 576H642Z" fill="#D9D9D9"/>
</svg>
