<svg width="50" height="48" viewBox="0 0 50 48" fill="none" xmlns="http://www.w3.org/2000/svg">
<path d="M42.3067 35.3658L38.2214 34.7646L36.393 30.9981C36.3258 30.8597 36.2219 30.7432 36.0929 30.6617C35.964 30.5803 35.8152 30.5371 35.6633 30.5371C35.5115 30.5371 35.3627 30.5803 35.2338 30.6617C35.1048 30.7432 35.0008 30.8597 34.9336 30.9981L33.1053 34.7591L29.02 35.3602C28.8696 35.3824 28.7284 35.447 28.6122 35.5466C28.4961 35.6462 28.4097 35.7768 28.3628 35.9237C28.3159 36.0707 28.3105 36.228 28.347 36.3779C28.3836 36.5278 28.4607 36.6643 28.5697 36.772L31.5102 39.7058L30.8321 43.8529C30.8063 44.0052 30.823 44.1619 30.8804 44.305C30.9377 44.4482 31.0334 44.5722 31.1565 44.6629C31.2796 44.7536 31.4253 44.8074 31.577 44.8183C31.7287 44.8291 31.8804 44.7965 32.0148 44.7242L35.666 42.7499L39.3173 44.7022C39.45 44.7726 39.5992 44.8046 39.7485 44.7944C39.8979 44.7843 40.0416 44.7325 40.1638 44.6447C40.2861 44.5569 40.3822 44.4365 40.4415 44.2968C40.5008 44.1571 40.5211 44.0035 40.5 43.8529L39.8002 39.7169L42.757 36.7885C42.8659 36.6809 42.9431 36.5444 42.9796 36.3945C43.0162 36.2445 43.0107 36.0872 42.9639 35.9403C42.917 35.7934 42.8306 35.6627 42.7145 35.5631C42.5983 35.4635 42.457 35.399 42.3067 35.3768V35.3658ZM38.357 38.8235C38.2625 38.9173 38.1918 39.0331 38.1512 39.1609C38.1105 39.2887 38.1011 39.4246 38.1237 39.5569L38.6174 42.4687L36.0404 41.0955C35.9267 41.0378 35.8013 41.0077 35.6742 41.0077C35.5471 41.0077 35.4217 41.0378 35.308 41.0955L32.7364 42.4687L33.2301 39.5569C33.2527 39.4246 33.2433 39.2887 33.2026 39.1609C33.162 39.0331 33.0913 38.9173 32.9968 38.8235L30.9134 36.761L33.7889 36.3363C33.9195 36.3171 34.0435 36.2659 34.1503 36.1872C34.2571 36.1084 34.3435 36.0044 34.4019 35.8841L35.6877 33.2371L36.9356 35.8841C36.994 36.0044 37.0804 36.1084 37.1872 36.1872C37.294 36.2659 37.418 36.3171 37.5486 36.3363L40.4241 36.761L38.357 38.8235ZM20.9742 35.3658L16.8889 34.7646L15.0606 31.0036C14.9934 30.8652 14.8894 30.7487 14.7605 30.6673C14.6315 30.5858 14.4827 30.5426 14.3309 30.5426C14.179 30.5426 14.0302 30.5858 13.9013 30.6673C13.7723 30.7487 13.6684 30.8652 13.6012 31.0036L11.7728 34.7646L7.69296 35.3658C7.54258 35.3879 7.40132 35.4525 7.28517 35.5521C7.16903 35.6517 7.08263 35.7823 7.03576 35.9293C6.9889 36.0762 6.98344 36.2335 7.02001 36.3834C7.05657 36.5333 7.1337 36.6699 7.24265 36.7775L10.1995 39.7058L9.4996 43.8529C9.47382 44.0052 9.49055 44.1619 9.5479 44.305C9.60525 44.4482 9.70091 44.5722 9.82405 44.6629C9.94718 44.7536 10.0929 44.8074 10.2446 44.8183C10.3963 44.8291 10.5479 44.7965 10.6823 44.7242L14.3336 42.7499L17.9848 44.7022C18.1175 44.7726 18.2667 44.8046 18.4161 44.7944C18.5654 44.7843 18.7091 44.7325 18.8314 44.6447C18.9536 44.5569 19.0497 44.4365 19.109 44.2968C19.1683 44.1571 19.1886 44.0035 19.1676 43.8529L18.4894 39.7058L21.4462 36.7775C21.5552 36.6699 21.6323 36.5333 21.6689 36.3834C21.7054 36.2335 21.7 36.0762 21.6531 35.9293C21.6062 35.7823 21.5198 35.6517 21.4037 35.5521C21.2875 35.4525 21.1463 35.3879 20.9959 35.3658H20.9742ZM17.03 38.8235C16.9354 38.9173 16.8648 39.0331 16.8241 39.1609C16.7835 39.2887 16.7741 39.4246 16.7967 39.5569L17.2904 42.4687L14.6917 41.0955C14.5746 41.0328 14.4442 40.9999 14.3119 40.9999C14.1795 40.9999 14.0492 41.0328 13.9321 41.0955L11.3605 42.4687L11.8542 39.5569C11.8768 39.4246 11.8674 39.2887 11.8267 39.1609C11.7861 39.0331 11.7154 38.9173 11.6209 38.8235L9.53758 36.761L12.413 36.3363C12.5503 36.3232 12.6821 36.2748 12.796 36.1957C12.9099 36.1166 13.0021 36.0094 13.0641 35.8841L14.3499 33.2371L15.6357 35.8841C15.6941 36.0044 15.7805 36.1084 15.8873 36.1872C15.9941 36.2659 16.1181 36.3171 16.2487 36.3363L19.1242 36.761L17.03 38.8235Z" fill="white"/>
<path d="M28.2557 31.2574C28.1596 31.4502 28.1416 31.6735 28.2055 31.8797C28.2693 32.0858 28.41 32.2583 28.5975 32.3603L31.0768 33.7059C31.2121 33.7793 31.365 33.8122 31.518 33.8011C31.6709 33.7899 31.8176 33.7351 31.9412 33.6429C32.0648 33.5506 32.1603 33.4248 32.2166 33.2799C32.2729 33.1349 32.2878 32.9768 32.2596 32.8236L31.0985 25.9523L36.0139 21.0828C36.1229 20.9751 36.2 20.8386 36.2366 20.6887C36.2731 20.5388 36.2677 20.3814 36.2208 20.2345C36.1739 20.0876 36.0875 19.9569 35.9714 19.8573C35.8552 19.7577 35.714 19.6932 35.5636 19.671L28.7656 18.6673L25.7274 12.4192C25.6602 12.2808 25.5563 12.1643 25.4273 12.0828C25.2984 12.0013 25.1496 11.9582 24.9977 11.9582C24.8459 11.9582 24.6971 12.0013 24.5682 12.0828C24.4392 12.1643 24.3352 12.2808 24.268 12.4192L21.2298 18.6784L14.4373 19.671C14.2869 19.6932 14.1457 19.7577 14.0295 19.8573C13.9134 19.9569 13.827 20.0876 13.7801 20.2345C13.7332 20.3814 13.7278 20.5388 13.7643 20.6887C13.8009 20.8386 13.878 20.9751 13.987 21.0828L18.9024 25.9523L17.7413 32.8236C17.7131 32.9768 17.728 33.1349 17.7843 33.2799C17.8406 33.4248 17.9361 33.5506 18.0597 33.6429C18.1833 33.7351 18.33 33.7899 18.4829 33.8011C18.6359 33.8122 18.7888 33.7793 18.9241 33.7059L25.0005 30.4578L26.0855 31.0368C26.2769 31.1392 26.5004 31.1601 26.707 31.095C26.9135 31.0298 27.0861 30.8839 27.1869 30.6894C27.2876 30.4949 27.3082 30.2676 27.2441 30.0577C27.18 29.8477 27.0364 29.6723 26.8451 29.5699L25.3802 28.7868C25.263 28.7245 25.1327 28.6919 25.0005 28.6919C24.8682 28.6919 24.7379 28.7245 24.6207 28.7868L19.6294 31.4615L20.5842 25.8089C20.6068 25.6766 20.5974 25.5406 20.5568 25.4128C20.5161 25.285 20.4455 25.1692 20.3509 25.0754L16.3199 21.0717L21.9026 20.2445C22.0332 20.2253 22.1572 20.1741 22.264 20.0954C22.3708 20.0166 22.4572 19.9126 22.5156 19.7923L25.0005 14.6251L27.4961 19.7703C27.5546 19.8905 27.6409 19.9945 27.7477 20.0733C27.8545 20.1521 27.9786 20.2033 28.1092 20.2225L33.681 21.0717L29.6391 25.0754C29.5446 25.1692 29.4739 25.285 29.4333 25.4128C29.3926 25.5406 29.3832 25.6766 29.4058 25.8089L30.3607 31.4615L29.3353 30.91C29.1462 30.814 28.9278 30.7967 28.7263 30.8615C28.5248 30.9263 28.356 31.0683 28.2557 31.2574ZM26.9644 10.9137C27.0778 10.9137 27.1899 10.8897 27.2936 10.8432C27.3973 10.7967 27.4903 10.7286 27.5666 10.6434C29.6019 8.36628 31.9198 6.36789 34.4623 4.69858C34.5582 4.64293 34.6421 4.568 34.7086 4.47834C34.7752 4.38869 34.8231 4.2862 34.8494 4.17712C34.8757 4.06803 34.8799 3.95465 34.8617 3.84386C34.8435 3.73308 34.8033 3.62722 34.7436 3.53274C34.6838 3.43827 34.6058 3.35715 34.5142 3.29433C34.4226 3.23151 34.3194 3.18831 34.2108 3.16737C34.1022 3.14642 33.9906 3.14817 33.8827 3.1725C33.7749 3.19682 33.673 3.24323 33.5834 3.30888C30.9243 5.04891 28.4988 7.1325 26.3676 9.50741C26.2614 9.62597 26.1914 9.77337 26.1661 9.93165C26.1407 10.0899 26.1612 10.2523 26.225 10.399C26.2888 10.5456 26.3932 10.6703 26.5255 10.7577C26.6577 10.8452 26.8121 10.8917 26.9699 10.8916L26.9644 10.9137ZM48.3294 4.82542C48.2935 4.61113 48.176 4.41983 48.0024 4.29289C47.8288 4.16596 47.613 4.11359 47.4017 4.14711C41.3453 5.35053 35.7984 8.41509 31.5109 12.9265C31.4236 13.0009 31.3526 13.093 31.3025 13.197C31.2524 13.3009 31.2244 13.4144 31.2202 13.5301C31.216 13.6458 31.2357 13.7611 31.2781 13.8685C31.3204 13.976 31.3845 14.0732 31.4662 14.1539C31.5479 14.2345 31.6453 14.2969 31.7522 14.3369C31.859 14.3769 31.973 14.3937 32.0866 14.3861C32.2002 14.3785 32.3111 14.3468 32.4119 14.293C32.5127 14.2392 32.6013 14.1644 32.6719 14.0736C36.7344 9.81737 41.9835 6.93017 47.711 5.80153C47.9195 5.75397 48.1012 5.62493 48.217 5.4423C48.3327 5.25966 48.3731 5.03808 48.3294 4.82542ZM44.8464 13.0203C42.6902 13.6166 40.6213 14.5012 38.694 15.6508C38.6018 15.7058 38.5211 15.7788 38.4566 15.8655C38.392 15.9523 38.345 16.0511 38.318 16.1563C38.291 16.2616 38.2847 16.3712 38.2995 16.4789C38.3142 16.5866 38.3496 16.6903 38.4038 16.7841C38.4579 16.8778 38.5297 16.9599 38.615 17.0255C38.7004 17.091 38.7976 17.1389 38.9011 17.1663C39.0046 17.1937 39.1125 17.2001 39.2184 17.1851C39.3244 17.1702 39.4264 17.1341 39.5187 17.0791C41.3239 16.0054 43.2614 15.1802 45.2804 14.6251C45.3882 14.6011 45.4902 14.555 45.5799 14.4898C45.6697 14.4245 45.7455 14.3413 45.8027 14.2453C45.8598 14.1493 45.8972 14.0425 45.9125 13.9313C45.9277 13.8202 45.9206 13.7071 45.8915 13.5988C45.8624 13.4906 45.8119 13.3895 45.7431 13.3017C45.6744 13.2139 45.5888 13.1413 45.4915 13.0882C45.3942 13.0351 45.2874 13.0027 45.1774 12.9929C45.0674 12.9831 44.9566 12.9962 44.8518 13.0313L44.8464 13.0203ZM15.5386 4.69858C18.0811 6.36789 20.399 8.36628 22.4343 10.6434C22.5021 10.7353 22.588 10.8118 22.6865 10.868C22.785 10.9243 22.894 10.959 23.0065 10.9701C23.1189 10.9812 23.2324 10.9684 23.3397 10.9324C23.447 10.8965 23.5458 10.8382 23.6298 10.7614C23.7137 10.6845 23.781 10.5907 23.8273 10.4859C23.8736 10.3812 23.898 10.2678 23.8988 10.1529C23.8997 10.0381 23.877 9.92432 23.8322 9.81887C23.7874 9.71343 23.7215 9.61863 23.6387 9.54049C21.5076 7.16545 19.0821 5.08185 16.423 3.34197C16.337 3.2579 16.234 3.19407 16.121 3.15499C16.0081 3.11591 15.8882 3.10254 15.7696 3.11582C15.651 3.12909 15.5368 3.1687 15.435 3.23183C15.3331 3.29496 15.2462 3.38007 15.1803 3.48114C15.1144 3.5822 15.0712 3.69676 15.0537 3.81668C15.0362 3.93661 15.0449 4.05898 15.0791 4.17514C15.1132 4.29129 15.1721 4.39838 15.2516 4.48884C15.331 4.57929 15.429 4.6509 15.5386 4.69858ZM17.329 14.0736C17.3996 14.1644 17.4882 14.2392 17.589 14.293C17.6898 14.3468 17.8007 14.3785 17.9143 14.3861C18.0279 14.3937 18.1419 14.3769 18.2487 14.3369C18.3556 14.2969 18.453 14.2345 18.5347 14.1539C18.6164 14.0732 18.6805 13.976 18.7228 13.8685C18.7652 13.7611 18.7849 13.6458 18.7807 13.5301C18.7765 13.4144 18.7485 13.3009 18.6984 13.197C18.6483 13.093 18.5773 13.0009 18.49 12.9265C17.7961 12.2042 17.0721 11.5124 16.3199 10.853C16.1559 10.7067 15.9414 10.6327 15.7237 10.6472C15.5059 10.6617 15.3028 10.7635 15.1589 10.9302C15.015 11.0969 14.9421 11.3149 14.9564 11.5363C14.9706 11.7576 15.0708 11.9641 15.2348 12.1103C15.9727 12.728 16.6671 13.3898 17.329 14.0736ZM13.1298 10.285C13.3055 10.2893 13.4778 10.2358 13.6211 10.1323C13.7643 10.0289 13.8707 9.88103 13.9245 9.71097C13.9782 9.5409 13.9764 9.35773 13.9192 9.18883C13.862 9.01993 13.7525 8.87438 13.6072 8.77395C10.2789 6.49956 6.53581 4.9263 2.59919 4.14711C2.49232 4.12647 2.3825 4.12743 2.276 4.14993C2.16949 4.17244 2.06839 4.21604 1.97846 4.27826C1.88853 4.34048 1.81154 4.42009 1.75189 4.51256C1.69223 4.60502 1.65107 4.70852 1.63077 4.81715C1.61046 4.92578 1.61141 5.03741 1.63355 5.14567C1.65568 5.25393 1.69858 5.3567 1.75979 5.44811C1.821 5.53951 1.89933 5.61777 1.99029 5.67841C2.08126 5.73905 2.18308 5.78089 2.28995 5.80153C6.00365 6.5341 9.53595 8.01342 12.6795 10.1526C12.8134 10.241 12.9701 10.287 13.1298 10.285ZM10.8946 17.1894C11.0726 17.1887 11.2456 17.1287 11.3868 17.0186C11.5281 16.9084 11.63 16.7542 11.6768 16.5796C11.7236 16.405 11.7128 16.2196 11.6459 16.0518C11.5791 15.884 11.46 15.7431 11.3069 15.6508C9.3797 14.501 7.31084 13.6164 5.15453 13.0203C5.05087 12.9913 4.94261 12.9834 4.83593 12.9969C4.72925 13.0105 4.62624 13.0453 4.53279 13.0993C4.43934 13.1533 4.35727 13.2255 4.29127 13.3118C4.22527 13.3981 4.17663 13.4967 4.14813 13.6021C4.11963 13.7074 4.11183 13.8175 4.12517 13.9259C4.13851 14.0344 4.17274 14.1391 4.22589 14.2341C4.27904 14.3291 4.35007 14.4125 4.43494 14.4796C4.51981 14.5466 4.61684 14.5961 4.72051 14.6251C6.73791 15.1823 8.67359 16.0094 10.4768 17.0846C10.6042 17.1573 10.7485 17.1935 10.8946 17.1894Z" fill="white"/>
</svg>
