<svg width="124" height="11" viewBox="0 0 124 11" fill="none" xmlns="http://www.w3.org/2000/svg">
<path fill-rule="evenodd" clip-rule="evenodd" d="M5.77344 2.97771C2.96538 3.2817 1.29253 3.55527 1.02367 3.85927C0.366466 4.52807 1.68083 4.86259 5.83317 4.89298C5.86305 4.89298 113.675 2.40014 113.704 2.40014C118.574 2.18734 118.962 1.9138 118.962 1.39701C118.962 0.728209 117.648 0.272093 114.84 0.0592945C111.135 -0.275104 26.5351 0.819319 5.77344 2.97771ZM115.527 4.4977C114.212 4.5585 28.6562 6.56486 26.5053 6.74725C0.157374 8.72324 -1.87399 9.02733 0.96394 10.4865C2.3381 11.1857 4.93705 11.1856 16.1992 10.3952C43.3537 8.54084 120.665 8.32816 123.383 7.32497C124.638 6.83857 124.817 4.1633 115.527 4.4977Z" fill="#276FD4"/>
</svg>
